<?xml version="1.0" encoding="utf-8"?>
<!-- Generator: Adobe Illustrator 19.1.0, SVG Export Plug-In . SVG Version: 6.00 Build 0)  -->
<svg version="1.1" id="Layer_1" xmlns="http://www.w3.org/2000/svg" xmlns:xlink="http://www.w3.org/1999/xlink" x="0px" y="0px"
	 viewBox="0 0 64.2 56.7" style="enable-background:new 0 0 64.2 56.7;" xml:space="preserve">
<style type="text/css">
	.st0{fill:#99A479;}
</style>
<g id="jMHKQC.tif_1_">
	<g>
		<g>
			<path class="st0" d="M56.4,56.7c-16.1,0-32.3,0-48.4,0c-1.4-0.5-2-1.5-2.3-3c-1.3-6.8-2.6-13.6-3.9-20.3c-0.5-3-1.2-5.9-1.8-8.9
				c0-0.1,0-0.1,0-0.1c0.5-2.2,1.3-2.8,3.6-2.8c19,0,38.1,0,57.2,0c1.6,0,2.7,0.5,3.4,2.1c0,0.5,0,1.1,0,1.6
				c-0.1,0.3-0.1,0.5-0.2,0.9c-1.8,9.3-3.6,18.5-5.4,27.8C58.4,55.3,57.7,56.3,56.4,56.7z M12.5,39c0,2.1,0,4.3,0,6.3
				c0,0.7,0,1.4,0,2.1c0.1,0.8,0.7,1.3,1.4,1.2c0.7,0,1.2-0.5,1.3-1.2c0-0.3,0-0.5,0-0.9c0-5,0-10.1,0-15.2c0-0.3,0-0.7,0-0.9
				c-0.1-0.5-0.4-1-1-1.1s-1,0-1.3,0.3s-0.4,0.9-0.4,1.3C12.5,33.7,12.5,36.3,12.5,39z M24.7,39.1c0-2.6,0-5.1,0-7.8
				c0-1.3-0.4-1.9-1.3-2c-1,0-1.4,0.7-1.4,2c0,5.1,0,10.3,0,15.4c0,0.2,0,0.5,0,0.8c0.1,0.7,0.7,1.1,1.3,1.2c0.7,0,1.3-0.4,1.4-1.2
				c0-0.3,0-0.5,0-0.9C24.7,44.1,24.7,41.6,24.7,39.1z M33.5,39.1c0-2.2,0-4.4,0-6.6c0-0.7,0-1.3,0-1.9c-0.1-0.8-0.7-1.2-1.3-1.2
				c-0.8,0-1.3,0.5-1.4,1.2c0,0.3,0,0.5,0,0.9c0,5,0,10.1,0,15.2c0,0.3,0,0.7,0,0.9c0.1,0.5,0.4,1,1.1,1.1c0.5,0.1,1,0,1.3-0.4
				c0.3-0.3,0.3-0.8,0.3-1.3C33.5,44.3,33.5,41.7,33.5,39.1z M40,39.1c0,2.6,0,5.1,0,7.8c0,1.3,0.4,1.9,1.3,2c1,0,1.4-0.7,1.4-2
				c0-5.1,0-10.3,0-15.4c0-0.2,0-0.5,0-0.8c-0.1-0.7-0.7-1.1-1.3-1.2c-0.7,0-1.3,0.4-1.4,1.2c0,0.3,0,0.5,0,0.9
				C40,33.9,40,36.5,40,39.1z M49.2,39c0,2.4,0,4.9,0,7.3c0,0.4,0,0.8,0,1.2c0.1,0.8,0.7,1.3,1.4,1.2c0.7,0,1.2-0.5,1.3-1.2
				c0-0.3,0-0.5,0-0.9c0-5,0-10.1,0-15.2c0-0.3,0-0.7,0-0.9c-0.1-0.7-0.7-1.2-1.4-1.2c-0.7,0-1.2,0.5-1.3,1.2c0,0.3,0,0.5,0,0.9
				C49.2,33.9,49.2,36.5,49.2,39z"/>
			<path class="st0" d="M42,0c1.5,0,3,0,4.4,0C51,0,54.3,2.8,55,7.3c0.7,3.7,1.9,11.9,2.5,15.6c0.1,0.7-0.1,0.9-0.7,0.9
				c-2.7,0-2.2,0.3-2.5-2.1c-0.5-3.3-1.8-10.9-2.3-14.2C51.6,4.8,49.4,3,46.6,3c-1.5,0-3.1,0-4.6,0c-0.5,0-19,0-19.6,0
				c-1.6,0-3.2,0-4.8,0c-2.7,0-4.9,1.9-5.4,4.6c-0.5,3.6-1.6,10.5-2.2,14.2c-0.1,0.7-0.3,1.1-1.1,1c-0.4-0.1-0.9,0-1.3,0
				c-0.5,0-0.8-0.2-0.7-0.8C7.4,18.7,8.4,12.2,9,9c0.1-0.8,0.2-1.6,0.4-2.4c0.7-3.3,3.8-6.3,7.5-6.5C18.8,0,20.5,0,22.3,0
				C22.8,0,41.6,0,42,0z"/>
		</g>
	</g>
</g>
</svg>
