<?xml version="1.0" encoding="utf-8"?>
<!-- Generator: Adobe Illustrator 19.1.0, SVG Export Plug-In . SVG Version: 6.00 Build 0)  -->
<svg version="1.1" id="Layer_1" xmlns="http://www.w3.org/2000/svg" xmlns:xlink="http://www.w3.org/1999/xlink" x="0px" y="0px"
	 viewBox="0 0 64.2 56.7" style="enable-background:new 0 0 64.2 56.7;" xml:space="preserve">
<style type="text/css">
	.st0{fill:#99A479;}
</style>
<g id="R9srDK.tif_3_">
	<g>
		<g>
			<path class="st0" d="M3.3,14.2c0-2.1,0-4.1,0-6.2c0.1-0.2,0.2-0.5,0.4-0.7c0.7-1.4,2-2.2,3.3-2.9c1.9-1.1,3.9-1.8,6-2.2
				c3-0.8,6.1-1.4,9.2-1.8c2.6-0.2,5.1-0.5,7.7-0.6c3,0,6,0,8.9,0.2c2.5,0.2,4.9,0.5,7.4,0.8c2.7,0.5,5.5,1.1,8.1,2
				c2,0.7,3.9,1.5,5.5,3c0.8,0.8,1.4,1.8,1.4,2.9c0,1.5,0,3.2,0,4.7c0,0.4-0.1,0.6-0.4,0.8c-1.9,1.9-3.8,3.6-5.6,5.5
				c-2.9,2.8-5.6,5.6-8.5,8.3c-2.3,2.2-4.5,4.4-6.8,6.7c-0.4,0.4-0.5,0.7-0.5,1.2c0,5.6,0,11.2,0,16.8c0,0.8-0.2,1.5-1,2
				c-0.4,0.4-0.8,0.6-1.3,0.8c-1.1,0.5-2.1,0.7-3.3,0.9c-1.1,0-2.3,0-3.3,0c-1.2-0.2-2.3-0.5-3.3-0.9C25.8,54.8,25,54,25,52.2
				c0.1-5.5,0-11,0-16.3c0-0.4-0.1-0.7-0.4-0.9c-0.7-0.7-1.4-1.4-2.1-2.1c-2.6-2.6-5.2-5.1-7.7-7.7c-2.6-2.6-5.2-5.1-7.9-7.7
				C5.7,16.4,4.5,15.3,3.3,14.2z M32.3,3.5c-3.2-0.1-6.4,0.1-9.6,0.5c-3.2,0.4-6.6,0.9-9.6,1.9C11.2,6.4,9.5,7,8,8
				C7.1,8.6,7.1,8.7,8,9.3c1.8,1.2,3.7,1.9,5.7,2.3c4.6,1.3,9.4,1.9,14.3,2.1c3.1,0.1,6.2,0.1,9.4,0c3.6-0.2,7.3-0.6,10.8-1.4
				c2.3-0.5,4.5-1.2,6.7-2.1c0.8-0.4,1.5-0.8,2.3-1.3c0.2-0.2,0.2-0.4,0-0.6c-0.1-0.1-0.2-0.1-0.4-0.2c-1.5-1.1-3.3-1.8-5.1-2.2
				c-3.2-0.9-6.4-1.5-9.8-1.9C38.7,3.6,35.5,3.5,32.3,3.5z"/>
		</g>
	</g>
</g>
</svg>
