<?xml version="1.0" encoding="utf-8"?>
<svg version="1.1" id="Layer_1" xmlns="http://www.w3.org/2000/svg" xmlns:xlink="http://www.w3.org/1999/xlink" x="0px" y="0px"
	 viewBox="0 0 204.1 83.4" style="enable-background:new 0 0 204.1 83.4;" xml:space="preserve">
<style type="text/css">
	.st1{clip-path:url(#SVGID_2_);fill:#FFFFFF;}
	.st2{fill:#FFFFFF;}
	.st3{fill:#1D70B7;}
	.st4{clip-path:url(#SVGID_4_);fill:#FFFFFF;}
	.st5{clip-path:url(#SVGID_6_);fill:#FFFFFF;}
</style>
<g>
	<defs>
		<rect id="SVGID_1_" width="204.1" height="83.4"/>
	</defs>
	<clipPath id="SVGID_2_">
		<use xlink:href="#SVGID_1_"  style="overflow:visible;"/>
	</clipPath>
	<path class="st1" d="M202.9,19.9c0,0,0.1-0.1,0.1-0.2c0-0.1,0-0.2-0.1-0.2c-0.1,0-0.1-0.1-0.3-0.1h-0.3V20h0.3
		C202.7,20,202.8,20,202.9,19.9 M203.2,19.7c0,0.2-0.1,0.4-0.3,0.4l0.4,0.5H203l-0.3-0.5h-0.3v0.5h-0.2v-1.4h0.5
		c0.2,0,0.4,0,0.5,0.1C203.1,19.5,203.2,19.6,203.2,19.7"/>
	<path class="st1" d="M202.6,18.4c-0.9,0-1.6,0.7-1.6,1.6c0,0.9,0.7,1.6,1.6,1.6c0.9,0,1.6-0.7,1.6-1.6
		C204.1,19.1,203.4,18.4,202.6,18.4 M202.6,18.7c0.7,0,1.3,0.6,1.3,1.3c0,0.7-0.6,1.3-1.3,1.3c-0.7,0-1.3-0.6-1.3-1.3
		C201.3,19.3,201.8,18.7,202.6,18.7"/>
</g>
<polygon class="st2" points="40.1,15.8 37.9,14.5 37.9,14.5 35.8,15.8 19.7,25.1 35.8,34.4 37.9,35.6 37.9,35.6 40.1,34.4
	55.1,25.7 56.2,25.1 "/>
<polygon class="st2" points="34.4,36.4 18.3,27.1 18.3,45.7 18.3,48.2 18.3,48.2 20.5,49.5 36.6,58.8 36.6,40.2 36.6,37.7 "/>
<polygon class="st2" points="41.5,36.4 39.3,37.7 39.3,37.7 39.3,40.2 39.3,58.8 55.4,49.5 57.6,48.2 57.6,48.2 57.6,45.7
	57.6,27.1 "/>
<polyline class="st2" points="12.4,24.5 5,20.2 5,53.5 14.5,48 14.5,25.7 "/>
<polygon class="st2" points="40,0 40,11 59.3,22.1 68.8,16.6 "/>
<polygon class="st2" points="35.9,0 7.1,16.6 16.5,22.1 35.9,11 "/>
<polygon class="st2" points="35.9,62.7 16.5,51.6 7.1,57 35.9,73.7 35.9,65.1 35.9,65.1 "/>
<polygon class="st2" points="40,73.7 68.8,57 59.3,51.6 40,62.7 "/>
<polygon class="st3" points="42,36.8 42,36.8 42,36.8 "/>
<path class="st3" d="M40,38L40,38L40,38z"/>
<g>
	<defs>
		<rect id="SVGID_3_" width="204.1" height="83.4"/>
	</defs>
	<clipPath id="SVGID_4_">
		<use xlink:href="#SVGID_3_"  style="overflow:visible;"/>
	</clipPath>
	<path class="st4" d="M37.9,34.5L37.9,34.5z"/>
</g>
<polygon class="st2" points="37.9,34.5 37.9,34.5 37.9,34.5 "/>
<polygon class="st2" points="35.9,40.4 35.9,40.4 35.9,40.4 "/>
<circle class="st2" cx="35.9" cy="38" r="0"/>
<g>
	<defs>
		<rect id="SVGID_5_" width="204.1" height="83.4"/>
	</defs>
	<clipPath id="SVGID_6_">
		<use xlink:href="#SVGID_5_"  style="overflow:visible;"/>
	</clipPath>
	<path class="st5" d="M77.4,44.1c1.3,0,2.3-0.2,3.2-0.6c0.9-0.4,1.8-1.1,2.8-2l2.3,2.4c-2.3,2.5-5,3.8-8.3,3.8c-3.3,0-6-1-8.1-3.1
		c-2.1-2.1-3.2-4.7-3.2-7.9c0-3.2,1.1-5.9,3.3-8c2.2-2.1,4.9-3.2,8.3-3.2c3.3,0,6.1,1.2,8.4,3.7l-2.3,2.5c-1-1-2-1.7-2.9-2.1
		c-0.9-0.4-2-0.6-3.2-0.6c-2.2,0-4,0.7-5.5,2.1c-1.5,1.4-2.2,3.2-2.2,5.4c0,2.2,0.7,4,2.2,5.5C73.6,43.3,75.3,44.1,77.4,44.1"/>
	<path class="st5" d="M95,42.4c1,1.2,2.3,1.7,4,1.7c1.7,0,3-0.6,4-1.7c1-1.1,1.5-2.7,1.5-4.7V25.8h3.6v12.1c0,3.1-0.9,5.5-2.6,7.2
		c-1.7,1.7-3.9,2.5-6.6,2.5c-2.7,0-4.9-0.8-6.6-2.5c-1.7-1.7-2.6-4.1-2.6-7.2V25.8h3.6v11.9C93.6,39.7,94,41.3,95,42.4"/>
	<path class="st5" d="M117.5,44h5.7c1.3,0,2.4-0.2,3.1-0.6c0.7-0.4,1.1-1.2,1.1-2.4c0-1.9-1.5-2.9-4.6-2.9h-5.2V44z M117.5,34.8h4.6
		c2.6,0,3.9-0.9,3.9-2.7c0-1-0.3-1.8-1-2.2c-0.6-0.5-1.6-0.7-3-0.7h-4.6V34.8z M123.3,47.4h-9.4V25.8h8.4c1.5,0,2.7,0.2,3.8,0.5
		c1.1,0.3,1.8,0.8,2.4,1.4c1,1.1,1.5,2.4,1.5,3.8c0,1.7-0.5,2.9-1.6,3.8c-0.4,0.3-0.7,0.5-0.8,0.5c-0.1,0.1-0.4,0.2-0.8,0.4
		c1.3,0.3,2.4,0.9,3.2,1.8c0.8,0.9,1.2,2,1.2,3.4c0,1.5-0.5,2.8-1.5,4C128.3,46.7,126.2,47.4,123.3,47.4"/>
</g>
<path class="st2" d="M147.7,39.1l-3.9-8.9l-3.9,8.9H147.7z M138.4,42.5l-2.2,4.9h-3.9l9.5-21.5h3.9l9.5,21.5h-3.9l-2.2-4.9H138.4z"
	/>
<polygon class="st2" points="174.3,25.8 177.9,25.8 177.9,47.4 174,47.4 161.8,31.7 161.8,47.4 158.2,47.4 158.2,25.8 161.8,25.8
	174.3,41.9 "/>
<polygon class="st2" points="199,25.8 199,29.3 187.6,29.3 187.6,35 197.9,35 197.9,38.2 187.6,38.2 187.6,43.9 199.4,43.9
	199.4,47.4 183.9,47.4 183.9,25.8 "/>
</svg>