<?xml version="1.0" encoding="UTF-8" standalone="no"?><!DOCTYPE svg PUBLIC "-//W3C//DTD SVG 1.1//EN" "http://www.w3.org/Graphics/SVG/1.1/DTD/svg11.dtd"><svg width="100%" height="100%" viewBox="0 0 16 16" version="1.1" xmlns="http://www.w3.org/2000/svg" xmlns:xlink="http://www.w3.org/1999/xlink" xml:space="preserve" xmlns:serif="http://www.serif.com/" style="fill-rule:evenodd;clip-rule:evenodd;stroke-linejoin:round;stroke-miterlimit:1.41421;">
<rect id="Artboard1" x="0" y="0" width="15.36" height="15.36" style="fill:none;"/>
<clipPath id="_clip1">
  <rect id="Artboard11" serif:id="Artboard1" x="0" y="0" width="15.36" height="15.36"/>
</clipPath>
<g clip-path="url(#_clip1)">
  <path fill="white" d="M7.699,0.072c4.206,0 7.62,3.414 7.62,7.62c0,4.206 -3.414,7.621 -7.62,7.621c-4.206,0 -7.621,-3.415 -7.621,-7.621c0,-4.206 3.415,-7.62 7.621,-7.62Zm1.108,8.686c1.072,0 1.943,-0.871 1.943,-1.943l0,-0.338c0,-0.448 -0.152,-0.861 -0.408,-1.19c0.057,-0.161 0.157,-0.571 -0.06,-1.071c0,0 -0.429,-0.098 -1.061,0.362c-0.015,-0.003 -0.029,-0.006 -0.044,-0.009c-0.367,-0.103 -0.816,-0.164 -1.301,-0.164c-0.462,0 -0.891,0.055 -1.248,0.15c-0.614,-0.433 -1.028,-0.339 -1.028,-0.339c-0.194,0.447 -0.134,0.823 -0.079,1.012c-0.284,0.338 -0.455,0.774 -0.455,1.249l0,0.338c0,1.072 0.871,1.943 1.943,1.943l0.047,0c-0.086,0.064 -0.248,0.231 -0.249,0.564l0,0.01c-0.089,0.059 -0.266,0.145 -0.529,0.123c-0.392,-0.033 -0.61,-0.241 -0.777,-0.527c-0.167,-0.286 -0.481,-0.412 -0.71,-0.396c-0.228,0.016 -0.145,0.139 -0.023,0.219c0.122,0.08 0.413,0.279 0.509,0.567c0.094,0.282 0.481,0.893 1.529,0.634c0,0.391 0.001,0.767 0.001,0.767c0,0 -0.014,0.31 -0.039,0.332c0.407,0.101 1.233,0.227 2.246,-0.006c0.065,-0.015 -0.031,-0.02 -0.031,-0.324c0,-0.304 0,-1.245 0,-1.245c0,0 0.022,-0.45 -0.255,-0.718l0.079,0Z"/>
</g>
</svg>