<?xml version="1.0" encoding="UTF-8" standalone="no"?><!DOCTYPE svg PUBLIC "-//W3C//DTD SVG 1.1//EN" "http://www.w3.org/Graphics/SVG/1.1/DTD/svg11.dtd"><svg width="100%" height="100%" viewBox="0 0 64 64" version="1.1" xmlns="http://www.w3.org/2000/svg" xmlns:xlink="http://www.w3.org/1999/xlink" xml:space="preserve" xmlns:serif="http://www.serif.com/" style="fill-rule:evenodd;clip-rule:evenodd;stroke-linejoin:round;stroke-miterlimit:1.41421;">
<path fill="white" d="M32,0C14.3,0,0,14.3,0,32c0,17.7,14.3,32,32,32c17.7,0,32-14.3,32-32C64,14.3,49.7,0,32,0z M45,26.2c0,0.3,0,0.5,0,0.8
        	C45,35.4,38.7,45,27.1,45c-3.6,0-6.9-1-9.7-2.8c0.5,0.1,1,0.1,1.5,0.1c3,0,5.7-1,7.8-2.7c-2.8-0.1-5.1-1.9-5.9-4.4
        	c0.4,0.1,0.8,0.1,1.2,0.1c0.6,0,1.1-0.1,1.7-0.2c-2.9-0.6-5.1-3.1-5.1-6.2c0,0,0-0.1,0-0.1c0.8,0.5,1.8,0.8,2.9,0.8
        	c-1.7-1.1-2.8-3.1-2.8-5.2c0-1.2,0.3-2.2,0.9-3.2c3.1,3.8,7.8,6.3,13,6.6c-0.1-0.5-0.2-0.9-0.2-1.4c0-3.5,2.8-6.3,6.3-6.3
        	c1.8,0,3.5,0.8,4.6,2c1.4-0.3,2.8-0.8,4-1.5c-0.5,1.5-1.5,2.7-2.8,3.5c1.3-0.2,2.5-0.5,3.6-1C47.3,24.2,46.2,25.3,45,26.2z"></path>
</svg>