<?xml version="1.0" encoding="utf-8"?>
<!-- Generator: Adobe Illustrator 19.1.0, SVG Export Plug-In . SVG Version: 6.00 Build 0)  -->
<svg version="1.1" id="Layer_1" xmlns="http://www.w3.org/2000/svg" xmlns:xlink="http://www.w3.org/1999/xlink" x="0px" y="0px"
	 viewBox="0 0 9.5 12" style="enable-background:new 0 0 9.5 12;" xml:space="preserve">
<style type="text/css">
	.st0{clip-path:url(#SVGID_2_);fill:#d8d8d8;}
</style>
<g>
	<defs>
		<rect id="SVGID_1_" x="0" y="0" width="9.5" height="12"/>
	</defs>
	<clipPath id="SVGID_2_">
		<use xlink:href="#SVGID_1_"  style="overflow:visible;"/>
	</clipPath>
	<path class="st0" d="M6,2.3L5.3,1.5h-1L3.5,2.3H2.4c0,0,1.2-1.4,1.3-1.6C3.8,0.6,4,0.6,4.1,0.6h1.3c0.2,0,0.3,0.1,0.4,0.2
		C5.9,1,7.1,2.3,7.1,2.3H6z M6.7,0.9L6.2,0.3C6,0.1,5.8,0,5.3,0H4.2C3.7,0,3.5,0.1,3.3,0.3L2.8,0.9C1.2,1.2,0,2,0,2.5v0.1
		c0,1,2.1,1.7,4.7,1.7c2.6,0,4.8-0.8,4.8-1.7V2.5C9.5,2,8.3,1.2,6.7,0.9 M0.6,4.7l0.7,6.1c0,0.3,1.4,1.2,3.4,1.2
		c2,0,3.4-0.9,3.4-1.2l0.7-6.1C7.8,5.3,6.3,5.6,4.7,5.6S1.7,5.3,0.6,4.7"/>
</g>
</svg>
