<?xml version="1.0" encoding="utf-8"?>
<!-- Generator: Adobe Illustrator 19.1.0, SVG Export Plug-In . SVG Version: 6.00 Build 0)  -->
<svg version="1.1" id="Layer_1" xmlns="http://www.w3.org/2000/svg" xmlns:xlink="http://www.w3.org/1999/xlink" x="0px" y="0px"
	 viewBox="0 0 199.9 133.3" style="enable-background:new 0 0 199.9 133.3;" xml:space="preserve">
<style type="text/css">
	.st0{fill:#009CDE;}
	.st1{fill:#BCBCBC;}
	.st2{fill:#FFFFFF;}
</style>
<g>
	<path class="st0" d="M197.5,35.8H2.3c-1.3,0-2.3-1-2.3-2.3V2.3C0,1,1,0,2.3,0h195.2c1.3,0,2.3,1,2.3,2.3v31.2
		C199.9,34.8,198.8,35.8,197.5,35.8z M2.3,1.5c-0.4,0-0.8,0.3-0.8,0.8v31.2c0,0.4,0.3,0.8,0.8,0.8h195.2c0.4,0,0.8-0.3,0.8-0.8V2.3
		c0-0.4-0.3-0.8-0.8-0.8H2.3z"/>
</g>
<g>
	<path class="st0" d="M197.5,84.7H2.3c-1.3,0-2.3-1-2.3-2.3V51.2c0-1.3,1-2.3,2.3-2.3h195.2c1.3,0,2.3,1,2.3,2.3v31.2
		C199.9,83.7,198.8,84.7,197.5,84.7z M2.3,50.4c-0.4,0-0.8,0.3-0.8,0.8v31.2c0,0.4,0.3,0.8,0.8,0.8h195.2c0.4,0,0.8-0.3,0.8-0.8
		V51.2c0-0.4-0.3-0.8-0.8-0.8H2.3z"/>
</g>
<g>
	<path class="st1" d="M10.9,13h1.3l1.8,4.7c0.4,1.1,0.6,1.8,0.7,2.3h0.1c0.1-0.3,0.2-0.7,0.4-1.3c0.2-0.6,0.9-2.5,2-5.7h1.3
		l-3.5,9.4c-0.3,0.9-0.8,1.6-1.2,2c-0.5,0.4-1,0.6-1.7,0.6c-0.4,0-0.8,0-1.1-0.1v-1c0.3,0.1,0.6,0.1,0.9,0.1c0.9,0,1.5-0.5,1.8-1.4
		l0.5-1.2L10.9,13z"/>
	<path class="st1" d="M27.1,17.1c0,1.3-0.3,2.4-1,3.1c-0.7,0.8-1.6,1.1-2.8,1.1c-0.7,0-1.4-0.2-2-0.5c-0.6-0.3-1-0.8-1.3-1.5
		c-0.3-0.6-0.5-1.4-0.5-2.3c0-1.3,0.3-2.4,1-3.1c0.7-0.7,1.6-1.1,2.8-1.1c1.1,0,2.1,0.4,2.7,1.1C26.7,14.8,27.1,15.8,27.1,17.1z
		 M20.8,17.1c0,1,0.2,1.8,0.6,2.4c0.4,0.5,1,0.8,1.9,0.8c0.8,0,1.4-0.3,1.9-0.8c0.4-0.5,0.6-1.3,0.6-2.4c0-1-0.2-1.8-0.6-2.4
		c-0.4-0.5-1-0.8-1.9-0.8c-0.8,0-1.4,0.3-1.8,0.8C21,15.3,20.8,16,20.8,17.1z"/>
	<path class="st1" d="M30.4,13v5.3c0,0.7,0.2,1.2,0.5,1.5c0.3,0.3,0.8,0.5,1.4,0.5c0.9,0,1.5-0.2,1.9-0.7c0.4-0.5,0.6-1.2,0.6-2.3
		V13H36v8.2h-1l-0.2-1.1h-0.1c-0.3,0.4-0.6,0.7-1.1,0.9c-0.5,0.2-1,0.3-1.5,0.3c-1,0-1.7-0.2-2.2-0.7c-0.5-0.5-0.7-1.2-0.7-2.3V13
		H30.4z"/>
	<path class="st1" d="M42.4,12.9c0.4,0,0.7,0,1,0.1l-0.2,1.2C42.9,14,42.6,14,42.3,14c-0.7,0-1.2,0.3-1.7,0.8s-0.7,1.2-0.7,2v4.4
		h-1.2V13h1l0.1,1.5h0.1c0.3-0.5,0.7-0.9,1.1-1.2C41.4,13,41.9,12.9,42.4,12.9z"/>
	<path class="st1" d="M44.2,17.7v-1.1h3.7v1.1H44.2z"/>
	<path class="st1" d="M53.3,21.4c-1.2,0-2.2-0.4-2.9-1.1c-0.7-0.7-1.1-1.8-1.1-3.1c0-1.3,0.3-2.4,1-3.2c0.7-0.8,1.5-1.2,2.6-1.2
		c1,0,1.8,0.3,2.4,1c0.6,0.7,0.9,1.6,0.9,2.7v0.8h-5.7c0,1,0.3,1.7,0.7,2.2c0.5,0.5,1.1,0.7,2,0.7c0.9,0,1.8-0.2,2.6-0.6v1.1
		c-0.4,0.2-0.9,0.3-1.2,0.4C54.4,21.3,53.9,21.4,53.3,21.4z M53,13.9c-0.7,0-1.2,0.2-1.6,0.6c-0.4,0.4-0.6,1-0.7,1.8H55
		c0-0.8-0.2-1.4-0.5-1.8C54.1,14.1,53.6,13.9,53,13.9z"/>
	<path class="st1" d="M69,21.2v-5.3c0-0.7-0.1-1.1-0.4-1.5c-0.3-0.3-0.7-0.5-1.3-0.5c-0.8,0-1.3,0.2-1.7,0.7
		C65.1,15,65,15.7,65,16.6v4.6h-1.2v-5.3c0-0.7-0.1-1.1-0.4-1.5c-0.3-0.3-0.7-0.5-1.3-0.5c-0.8,0-1.4,0.2-1.7,0.7
		c-0.4,0.5-0.5,1.2-0.5,2.3v4.3h-1.2V13h1l0.2,1.1h0.1c0.2-0.4,0.6-0.7,1-0.9c0.4-0.2,0.9-0.3,1.4-0.3c1.3,0,2.1,0.5,2.5,1.4h0.1
		c0.2-0.4,0.6-0.8,1.1-1c0.5-0.2,1-0.4,1.6-0.4c0.9,0,1.6,0.2,2.1,0.7c0.5,0.5,0.7,1.2,0.7,2.3v5.4H69z"/>
	<path class="st1" d="M77.8,21.2l-0.2-1.2h-0.1c-0.4,0.5-0.8,0.9-1.2,1c-0.4,0.2-0.9,0.3-1.5,0.3c-0.8,0-1.5-0.2-1.9-0.6
		c-0.5-0.4-0.7-1-0.7-1.8c0-1.7,1.3-2.5,4-2.6l1.4,0v-0.5c0-0.6-0.1-1.1-0.4-1.4s-0.7-0.5-1.3-0.5c-0.7,0-1.5,0.2-2.3,0.6l-0.4-1
		c0.4-0.2,0.8-0.4,1.3-0.5c0.5-0.1,1-0.2,1.5-0.2c1,0,1.7,0.2,2.2,0.7c0.5,0.4,0.7,1.1,0.7,2.1v5.6H77.8z M75,20.3
		c0.8,0,1.4-0.2,1.8-0.6c0.4-0.4,0.7-1,0.7-1.8v-0.7l-1.2,0.1c-1,0-1.7,0.2-2.1,0.5c-0.4,0.3-0.7,0.7-0.7,1.3c0,0.4,0.1,0.8,0.4,1
		C74.1,20.2,74.5,20.3,75,20.3z"/>
	<path class="st1" d="M81.2,10.8c0-0.3,0.1-0.5,0.2-0.6c0.1-0.1,0.3-0.2,0.5-0.2c0.2,0,0.4,0.1,0.5,0.2c0.1,0.1,0.2,0.3,0.2,0.6
		c0,0.3-0.1,0.5-0.2,0.6c-0.1,0.1-0.3,0.2-0.5,0.2c-0.2,0-0.4-0.1-0.5-0.2C81.3,11.3,81.2,11.1,81.2,10.8z M82.5,21.2h-1.2V13h1.2
		V21.2z"/>
	<path class="st1" d="M86.4,21.2h-1.2V9.6h1.2V21.2z"/>
	<path class="st1" d="M88.9,20.4c0-0.3,0.1-0.6,0.2-0.8c0.2-0.2,0.4-0.3,0.7-0.3c0.3,0,0.5,0.1,0.7,0.3c0.2,0.2,0.2,0.4,0.2,0.8
		c0,0.3-0.1,0.6-0.2,0.7c-0.2,0.2-0.4,0.3-0.7,0.3c-0.3,0-0.5-0.1-0.6-0.2C89,21,88.9,20.8,88.9,20.4z"/>
	<path class="st1" d="M96.4,21.4c-1.2,0-2.1-0.4-2.8-1.1c-0.7-0.7-1-1.8-1-3.1c0-1.4,0.3-2.4,1-3.2c0.7-0.7,1.6-1.1,2.8-1.1
		c0.4,0,0.8,0,1.2,0.1c0.4,0.1,0.7,0.2,0.9,0.3l-0.4,1.1c-0.3-0.1-0.6-0.2-0.9-0.3C97,14,96.7,14,96.5,14C94.8,14,94,15,94,17.2
		c0,1,0.2,1.8,0.6,2.3c0.4,0.5,1,0.8,1.8,0.8c0.7,0,1.4-0.1,2.1-0.4v1.1C98,21.2,97.3,21.4,96.4,21.4z"/>
	<path class="st1" d="M107.6,17.1c0,1.3-0.3,2.4-1,3.1c-0.7,0.8-1.6,1.1-2.8,1.1c-0.7,0-1.4-0.2-2-0.5c-0.6-0.3-1-0.8-1.3-1.5
		c-0.3-0.6-0.5-1.4-0.5-2.3c0-1.3,0.3-2.4,1-3.1c0.7-0.7,1.6-1.1,2.8-1.1c1.1,0,2.1,0.4,2.7,1.1C107.2,14.8,107.6,15.8,107.6,17.1z
		 M101.3,17.1c0,1,0.2,1.8,0.6,2.4c0.4,0.5,1,0.8,1.9,0.8c0.8,0,1.4-0.3,1.9-0.8c0.4-0.5,0.6-1.3,0.6-2.4c0-1-0.2-1.8-0.6-2.4
		c-0.4-0.5-1-0.8-1.9-0.8c-0.8,0-1.4,0.3-1.8,0.8C101.5,15.3,101.3,16,101.3,17.1z"/>
	<path class="st1" d="M120.2,21.2v-5.3c0-0.7-0.1-1.1-0.4-1.5c-0.3-0.3-0.7-0.5-1.3-0.5c-0.8,0-1.3,0.2-1.7,0.7
		c-0.4,0.4-0.6,1.1-0.6,2.1v4.6H115v-5.3c0-0.7-0.1-1.1-0.4-1.5c-0.3-0.3-0.7-0.5-1.3-0.5c-0.8,0-1.4,0.2-1.7,0.7
		c-0.4,0.5-0.5,1.2-0.5,2.3v4.3h-1.2V13h1l0.2,1.1h0.1c0.2-0.4,0.6-0.7,1-0.9s0.9-0.3,1.4-0.3c1.3,0,2.1,0.5,2.5,1.4h0.1
		c0.2-0.4,0.6-0.8,1.1-1c0.5-0.2,1-0.4,1.6-0.4c0.9,0,1.6,0.2,2.1,0.7c0.5,0.5,0.7,1.2,0.7,2.3v5.4H120.2z"/>
</g>
<g>
	<circle class="st1" cx="14.7" cy="67.1" r="4.6"/>
</g>
<g>
	<circle class="st1" cx="28.8" cy="67.1" r="4.6"/>
</g>
<g>
	<circle class="st1" cx="42.9" cy="67.1" r="4.6"/>
</g>
<g>
	<circle class="st1" cx="57" cy="67.1" r="4.6"/>
</g>
<g>
	<circle class="st1" cx="71" cy="67.1" r="4.6"/>
</g>
<g>
	<circle class="st1" cx="85.1" cy="67.1" r="4.6"/>
</g>
<g>
	<circle class="st1" cx="98.9" cy="67.1" r="4.6"/>
</g>
<g>
	<circle class="st1" cx="113" cy="67.1" r="4.6"/>
</g>
<g>
	<rect x="123.2" y="54" class="st1" width="1.3" height="25.7"/>
</g>
<g>
	<path class="st0" d="M138.2,133.3H61.7c-6.6,0-12-5.4-12-12v-8.8c0-6.6,5.4-12,12-12h76.5c6.6,0,12,5.4,12,12v8.8
		C150.2,127.9,144.8,133.3,138.2,133.3z"/>
</g>
<g>
	<path class="st2" d="M76.1,112.2c-1.2,0-2.2,0.4-2.9,1.2s-1,1.9-1,3.3c0,1.4,0.3,2.5,1,3.3c0.7,0.8,1.6,1.2,2.9,1.2
		c0.8,0,1.6-0.1,2.6-0.4v1.1c-0.8,0.3-1.7,0.4-2.8,0.4c-1.6,0-2.9-0.5-3.7-1.5c-0.9-1-1.3-2.4-1.3-4.2c0-1.1,0.2-2.1,0.6-3
		c0.4-0.8,1-1.5,1.8-2c0.8-0.5,1.7-0.7,2.8-0.7c1.1,0,2.2,0.2,3,0.6l-0.5,1.1C77.8,112.4,77,112.2,76.1,112.2z"/>
	<path class="st2" d="M88,118.1c0,1.3-0.3,2.4-1,3.1c-0.7,0.8-1.6,1.1-2.8,1.1c-0.7,0-1.4-0.2-2-0.5c-0.6-0.3-1-0.8-1.3-1.5
		c-0.3-0.6-0.5-1.4-0.5-2.3c0-1.3,0.3-2.4,1-3.1c0.7-0.7,1.6-1.1,2.8-1.1c1.1,0,2.1,0.4,2.7,1.1C87.7,115.8,88,116.8,88,118.1z
		 M81.8,118.1c0,1,0.2,1.8,0.6,2.4c0.4,0.5,1,0.8,1.9,0.8c0.8,0,1.4-0.3,1.9-0.8c0.4-0.5,0.6-1.3,0.6-2.4c0-1-0.2-1.8-0.6-2.4
		c-0.4-0.5-1-0.8-1.9-0.8c-0.8,0-1.4,0.3-1.8,0.8C82,116.2,81.8,117,81.8,118.1z"/>
	<path class="st2" d="M95.8,122.2v-5.3c0-0.7-0.2-1.2-0.5-1.5c-0.3-0.3-0.8-0.5-1.4-0.5c-0.9,0-1.5,0.2-1.9,0.7
		c-0.4,0.5-0.6,1.2-0.6,2.3v4.3h-1.2V114h1l0.2,1.1h0.1c0.3-0.4,0.6-0.7,1.1-0.9c0.5-0.2,1-0.3,1.5-0.3c1,0,1.7,0.2,2.2,0.7
		c0.5,0.5,0.7,1.2,0.7,2.3v5.4H95.8z"/>
	<path class="st2" d="M105.3,122.2v-5.3c0-0.7-0.2-1.2-0.5-1.5c-0.3-0.3-0.8-0.5-1.4-0.5c-0.9,0-1.5,0.2-1.9,0.7
		c-0.4,0.5-0.6,1.2-0.6,2.3v4.3h-1.2V114h1l0.2,1.1h0.1c0.3-0.4,0.6-0.7,1.1-0.9c0.5-0.2,1-0.3,1.5-0.3c1,0,1.7,0.2,2.2,0.7
		c0.5,0.5,0.7,1.2,0.7,2.3v5.4H105.3z"/>
	<path class="st2" d="M112.5,122.4c-1.2,0-2.2-0.4-2.9-1.1c-0.7-0.7-1.1-1.8-1.1-3.1c0-1.3,0.3-2.4,1-3.2s1.5-1.2,2.6-1.2
		c1,0,1.8,0.3,2.4,1c0.6,0.7,0.9,1.6,0.9,2.7v0.8h-5.7c0,1,0.3,1.7,0.7,2.2c0.5,0.5,1.1,0.7,2,0.7c0.9,0,1.8-0.2,2.6-0.6v1.1
		c-0.4,0.2-0.9,0.3-1.2,0.4C113.6,122.3,113.1,122.4,112.5,122.4z M112.2,114.9c-0.7,0-1.2,0.2-1.6,0.6c-0.4,0.4-0.6,1-0.7,1.8h4.3
		c0-0.8-0.2-1.4-0.5-1.8C113.3,115.1,112.8,114.9,112.2,114.9z"/>
	<path class="st2" d="M121,122.4c-1.2,0-2.1-0.4-2.8-1.1c-0.7-0.7-1-1.8-1-3.1c0-1.4,0.3-2.4,1-3.2c0.7-0.7,1.6-1.1,2.8-1.1
		c0.4,0,0.8,0,1.2,0.1c0.4,0.1,0.7,0.2,0.9,0.3l-0.4,1.1c-0.3-0.1-0.6-0.2-0.9-0.3c-0.3-0.1-0.6-0.1-0.9-0.1c-1.7,0-2.5,1.1-2.5,3.2
		c0,1,0.2,1.8,0.6,2.3c0.4,0.5,1,0.8,1.8,0.8c0.7,0,1.4-0.1,2.1-0.4v1.1C122.5,122.2,121.8,122.4,121,122.4z"/>
	<path class="st2" d="M127.6,121.3c0.2,0,0.4,0,0.6,0c0.2,0,0.4-0.1,0.5-0.1v1c-0.1,0.1-0.3,0.1-0.6,0.2c-0.3,0-0.5,0.1-0.7,0.1
		c-1.6,0-2.4-0.8-2.4-2.5V115h-1.2v-0.6l1.2-0.5l0.5-1.8h0.7v1.9h2.4v1h-2.4v4.8c0,0.5,0.1,0.9,0.4,1.1
		C126.9,121.2,127.2,121.3,127.6,121.3z"/>
</g>
</svg>
