<?xml version="1.0" encoding="utf-8"?>
<!-- Generator: Adobe Illustrator 19.1.0, SVG Export Plug-In . SVG Version: 6.00 Build 0)  -->
<svg version="1.1" id="Layer_1" xmlns="http://www.w3.org/2000/svg" xmlns:xlink="http://www.w3.org/1999/xlink" x="0px" y="0px"
	 viewBox="0 0 251 74.8" style="enable-background:new 0 0 251 74.8;" xml:space="preserve">
<style type="text/css">
	.st0{fill:#009CDE;}
</style>
<g id="VeR3bc.tif">
	<g>
		<g>
			<path class="st0" d="M251,41.3c-6.6,0.2-13.1,0.1-19.7,0.1c-0.6,0-0.8,0.2-0.8,0.8c0,5.1,0,10.2,0,15.3c0,1,0,1.1-1.1,1.1
				c-4.3,0-8.6,0-12.9,0c-1.1,0-1.2-0.1-1.2-1.1c0-14.8,0-29.7,0-44.5c0-1.1,0.1-1.1,1.1-1.1c11.5,0,23,0,34.5,0c0,4.1,0,8.2,0,12.3
				c-6.3,0-12.7,0-19,0c-0.3,0-0.5,0-0.8,0c-0.5,0-0.7,0.2-0.7,0.7c0,1.1,0,2.1,0,3.2c0,0.9,0,0.9,1,0.9c6.5,0,13-0.1,19.5,0.1
				C251,33.2,251,37.2,251,41.3z"/>
			<path class="st0" d="M34.8,0c0,16.5,0,33,0,49.6c0,1.4,0,1.4-1.3,1.4c-4.2,0-8.5,0-12.7,0c-0.8,0-0.9-0.1-0.9-0.9
				c0-16.7,0-33.4,0-50.1C24.8,0,29.8,0,34.8,0z"/>
			<path class="st0" d="M40,74.8c0-6,0-12,0-18c0-10.6,0-21.2,0-31.8c0-1.1,0-1.1,1.1-1.1c4.3,0,8.6,0,12.9,0c0.8,0,0.9,0.1,0.9,0.9
				c0,16.6,0,33.2,0,49.8c0,0.1,0,0.2,0,0.3C50,74.8,45,74.8,40,74.8z"/>
			<path class="st0" d="M0,12.8c4.6,0,9.2,0,13.9,0c0.9,0,1,0,1,1c0,16.4,0,32.8,0,49.2c0,0.9,0,1-1,1c-4.6,0-9.2,0-13.9,0
				C0,46.9,0,29.8,0,12.8z"/>
			<path class="st0" d="M158.9,58.6c-5.6,0-11.2,0-16.8,0c-1,0-1.1-0.1-1.1-1.1c0-3.1,0-6.1,0-9.2c0-0.2,0.1-0.6-0.1-0.7
				c-0.3-0.1-0.4,0.3-0.5,0.5c-0.9,1.6-2.1,3.1-3.4,4.4c-2,2-4.3,3.6-6.9,4.9c-2.2,1-4.4,1.8-6.8,2.1c-2.1,0.3-4.1,0.2-6.2,0.1
				c-1.3-0.1-2.6-0.2-3.8-0.6c-2.4-0.6-4.6-1.5-6.7-2.8c-2.1-1.3-4.1-2.8-5.7-4.7c-2.3-2.7-4.1-5.8-5.1-9.2c-0.6-2-1-4-0.9-6
				c0.1-1.1,0-2.2,0-3.3c0-1.4,0.4-2.7,0.7-4.1c0.4-1.7,1.1-3.3,1.8-4.9c0.8-1.6,1.9-3.1,3-4.5c1.3-1.6,2.8-3,4.4-4.2
				c2.2-1.6,4.7-2.8,7.3-3.7c3.8-1.2,7.6-1.2,11.5-0.7c3.3,0.4,6.2,1.7,9,3.4c2.8,1.8,5.2,3.9,7.1,6.7c0.3,0.5,0.6,1,0.9,1.5
				c0.1,0.1,0.2,0.4,0.3,0.3c0.2-0.1,0.1-0.3,0.1-0.4c0-3.1,0-6.2,0-9.3c0-1.1,0-1.2,1.2-1.2c4.3,0,8.7,0,13,0c0.9,0,1,0,1,1
				c0,10.5,0,21,0,31.4c0,1.1,0,1.1,1.1,1.1c6.1,0,12.3,0,18.4,0c1,0,1.1,0,1.1,1.1c0,3.7,0,7.5,0,11.2c0,1-0.1,1-1,1
				C170.1,58.6,164.5,58.6,158.9,58.6z M140.9,35.1c0-3.3,0-6.7,0-10c0-0.7,0-0.7-0.7-0.4c-4,2-8,4-12,6.2c-0.9,0.5-1,0.4-1.5-0.4
				c-2.3-3.5-6.9-5.3-11.2-3.3c-3.5,1.6-5.7,5.2-5.2,9.2c0.3,2.1,1.1,3.9,2.7,5.4c1.3,1.2,2.9,1.9,4.6,2.3c1.5,0.4,3,0.1,4.4-0.3
				c2.1-0.7,3.7-2.1,4.8-3.9c0.3-0.5,0.6-0.5,1.1-0.3c1.5,0.8,3,1.6,4.5,2.4c2.5,1.3,5,2.6,7.5,3.9c0.8,0.4,0.9,0.3,0.9-0.5
				C140.9,41.8,140.9,38.5,140.9,35.1z"/>
			<path class="st0" d="M178.2,35.2c0-7.4,0-14.8,0-22.3c0-1.1,0-1.1,1.1-1.1c11.2,0,22.4,0,33.6,0c1.1,0,1.1,0,1.1,1.1
				c0,3.4,0,6.9,0,10.3c0,0.9-0.1,0.9-0.9,0.9c-6.1,0-12.3,0-18.4,0c-0.3,0-0.5,0-0.8,0c-0.4,0-0.6,0.3-0.6,0.7
				c0.1,1.2,0.1,2.4,0,3.6c0,0.4,0.1,0.5,0.5,0.5c0.2,0,0.4,0,0.6,0c6.2,0,12.3,0,18.5,0c1,0,1,0,1,1.1c0,3.4,0,6.8,0,10.2
				c0,1.1,0,1.2-1.2,1.2c-6.2,0-12.4,0-18.6,0c-0.9,0-0.9,0-0.8,0.8c0,1,0,1.9,0,2.9c0,1,0,1.1,1,1.1c6.1,0,12.1,0,18.2,0
				c0.2,0,0.4,0,0.6,0c0.7,0,0.8,0.2,0.8,0.9c0,1.8,0,3.6,0,5.3c0,1.8,0,3.5,0,5.3c0,0.8-0.1,0.9-0.9,0.9c-3.2,0-6.4,0-9.6,0
				c-8,0-16.1,0-24.1,0c-1.1,0-1.2,0-1.2-1.2C178.2,50,178.2,42.6,178.2,35.2z"/>
			<path class="st0" d="M60,33.2c0-8.1,0-16.3,0-24.4c0-1.1,0-1.1,1.1-1.1c2.9,0,5.9,0,8.8,0c1.4,0,2.9,0.1,4.3,0.1
				c0.4,0,0.6,0.2,0.6,0.6c0,0.2,0,0.3,0,0.5c0,16.2,0,32.5,0,48.7c0,1.1,0,1-1.1,1.1c-4.2,0.1-8.4,0.1-12.7,0.1
				c-1.1,0-1.1,0-1.1-1.1C60,49.5,60,41.3,60,33.2z"/>
		</g>
	</g>
</g>
</svg>
