<?xml version="1.0" encoding="utf-8"?>
<!-- Generator: Adobe Illustrator 20.0.0, SVG Export Plug-In . SVG Version: 6.00 Build 0)  -->
<svg version="1.1" id="Layer_1" xmlns="http://www.w3.org/2000/svg" xmlns:xlink="http://www.w3.org/1999/xlink" x="0px" y="0px"
	 viewBox="0 0 64 64" style="enable-background:new 0 0 64 64;" xml:space="preserve">
<path d="M40,32l21.9-21.9c2.2-2.2,2.2-5.8,0-8c-2.2-2.2-5.8-2.2-8,0L32,24L10.1,2.1c-2.2-2.2-5.8-2.2-8,0c-2.2,2.2-2.2,5.8,0,8
	L24,32L2.1,53.9c-2.2,2.2-2.2,5.8,0,8c1.1,1.1,2.5,1.7,4,1.7s2.9-0.6,4-1.7L32,40l21.9,21.9c1.1,1.1,2.5,1.7,4,1.7s2.9-0.6,4-1.7
	c2.2-2.2,2.2-5.8,0-8L40,32z"/>
</svg>
