<?xml version="1.0" encoding="UTF-8" standalone="no"?>
<!DOCTYPE svg PUBLIC "-//W3C//DTD SVG 1.1//EN" "http://www.w3.org/Graphics/SVG/1.1/DTD/svg11.dtd">
<svg width="100%" height="100%" viewBox="0 0 64 64" version="1.1" xmlns="http://www.w3.org/2000/svg" xmlns:xlink="http://www.w3.org/1999/xlink" xml:space="preserve" style="fill-rule:evenodd;clip-rule:evenodd;stroke-linejoin:round;stroke-miterlimit:1.41421;">
    <rect id="Artboard1" x="0" y="0" width="64" height="64" style="fill:none;"/>
    <path d="M32.635,4.325C34.179,4.585 34.136,5.271 34.137,6C34.138,6.894 33.351,7.639 32.452,7.691C25.278,7.702 18.104,7.591 10.932,7.728C7.169,7.847 3.854,11.143 3.734,14.925C3.498,27.347 3.498,39.776 3.734,52.197C3.854,55.956 7.149,59.275 10.932,59.395C23.354,59.631 35.782,59.631 48.204,59.395C52.017,59.274 55.379,55.863 55.404,52.001L55.404,29.84C55.469,28.684 55.928,28.527 56.359,28.32C57.384,27.826 58.712,28.629 58.78,29.84C58.78,37.275 58.826,44.71 58.779,52.145C58.673,57.701 53.964,62.662 48.151,62.772C35.763,62.851 23.373,62.851 10.985,62.772C5.433,62.667 0.467,57.941 0.357,52.145C0.278,39.756 0.278,27.367 0.357,14.978C0.462,9.441 5.172,4.461 10.985,4.35L32.446,4.315C32.509,4.318 32.572,4.322 32.635,4.325L32.635,4.325ZM38.977,8.785C39.245,8.582 39.406,8.582 39.976,8.61C40.064,8.624 40.149,8.643 40.231,8.669C40.501,8.732 40.752,8.854 40.971,9.033C45.426,13.091 49.66,17.385 53.991,21.575C54.317,21.695 54.548,21.963 54.685,22.301C55.002,22.806 54.959,23.469 54.688,24.011C54.601,24.252 54.476,24.473 54.315,24.651L29.628,49.392C29.191,49.79 29.098,49.766 28.802,49.847L11.45,53.739C10.282,53.942 9.21,52.875 9.442,51.688L13.722,34.335C13.802,34.065 13.828,33.917 14.167,33.546L37.838,9.876C37.891,9.309 38.424,8.965 38.977,8.785L38.977,8.785ZM39.848,12.64L16.887,35.6L13.373,49.848L27.585,46.66L50.882,23.323C49.925,22.434 48.977,21.534 48.034,20.629L25.581,43.983C24.69,44.83 22.989,43.527 23.959,42.423L46.416,19.065C45.507,18.181 44.601,17.294 43.695,16.405L21.305,39.775C20.436,40.603 18.662,39.381 19.68,38.218L42.089,14.829C41.343,14.098 40.597,13.367 39.848,12.64L39.848,12.64ZM53.11,-0.03C61.261,0.155 67.638,11.398 60.818,18.42C59.305,19.939 57.657,21.851 56.278,20.546L43.337,7.497C41.72,5.761 44.735,3.179 47.259,1.598C48.997,0.51 51.052,-0.052 53.11,-0.03L53.11,-0.03ZM52.873,3.344C49.865,3.388 46.922,6.319 46.922,6.319L57.486,16.97C61.798,12.694 61.174,3.327 52.873,3.344L52.873,3.344Z" style="fill:white;"/>
</svg>
