<?xml version="1.0" encoding="UTF-8" standalone="no"?><!DOCTYPE svg PUBLIC "-//W3C//DTD SVG 1.1//EN" "http://www.w3.org/Graphics/SVG/1.1/DTD/svg11.dtd"><svg width="100%" height="100%" viewBox="0 0 64 64" version="1.1" xmlns="http://www.w3.org/2000/svg" xmlns:xlink="http://www.w3.org/1999/xlink" xml:space="preserve" xmlns:serif="http://www.serif.com/" style="fill-rule:evenodd;clip-rule:evenodd;stroke-linejoin:round;stroke-miterlimit:1.41421;"><rect id="Artboard1" x="0" y="0" width="64" height="64" style="fill:none;"/><clipPath id="_clip1"><rect id="Artboard11" serif:id="Artboard1" x="0" y="0" width="64" height="64"/></clipPath><g clip-path="url(#_clip1)"><path d="M50.873,27.874l-28.282,28.344l-19.879,4.459l4.903,-19.88l28.01,-28.009" style="fill:#fff;"/><path d="M58.071,20.986c1.982,-1.966 3.102,-4.639 3.114,-7.43c0.011,-2.792 -1.087,-5.474 -3.053,-7.456c0,0 0,-0.001 -0.001,-0.001c-1.966,-1.982 -4.638,-3.102 -7.43,-3.114c-2.792,-0.011 -5.473,1.087 -7.456,3.053c-1.28,1.269 -2.207,2.189 -2.207,2.189l14.825,14.948c0,0 0.928,-0.919 2.208,-2.189Z" style="fill:#fff;"/><path d="M35.814,10.864c1.449,0.215 2.267,2.09 1.178,3.292l-27.628,27.628l-4.026,16.322l16.281,-3.652l27.885,-27.946c0,0 1.506,-1.021 2.594,-0.13c0.735,0.602 0.913,1.775 0.384,2.569c-0.094,0.141 -0.127,0.168 -0.24,0.293l-28.282,28.344c-0.5,0.456 -0.607,0.428 -0.946,0.521l-19.878,4.458c-1.325,0.231 -2.567,-0.989 -2.301,-2.349l4.903,-19.88c0.091,-0.309 0.122,-0.479 0.51,-0.904l28.009,-28.009c0.648,-0.587 0.668,-0.601 1.557,-0.557Z" style="fill:#f29d3c;fill-rule:nonzero;"/><path d="M50.709,1.052c4.353,0.031 8.54,2.466 10.707,6.173c2.755,4.713 1.985,11.173 -1.981,15.132l-2.21,2.191c-0.273,0.255 -0.338,0.277 -0.491,0.354c-0.65,0.328 -1.485,0.248 -2.062,-0.204c-0.085,-0.066 -0.103,-0.087 -0.181,-0.161l-14.826,-14.948c-0.271,-0.291 -0.317,-0.397 -0.405,-0.601c-0.271,-0.633 -0.173,-1.406 0.255,-1.952c0.066,-0.086 0.087,-0.104 0.161,-0.182c1.27,-1.259 2.466,-2.609 3.922,-3.609c2.077,-1.429 4.615,-2.196 7.111,-2.193Zm-0.123,3.867c-2.209,0.026 -4.394,0.929 -5.981,2.494l-0.832,0.825l12.102,12.203c1.01,-1.003 1.991,-2.045 2.581,-3.32c1.513,-3.269 0.696,-7.459 -1.966,-9.919c-1.586,-1.466 -3.746,-2.294 -5.904,-2.283Z" style="fill:#f29d3c;fill-rule:nonzero;"/><path d="M39.826,17.029c0.979,0.134 1.501,1.392 0.814,2.176l-26.215,27.362c-0.745,0.71 -2.172,0.228 -2.219,-0.836c-0.015,-0.337 0.015,-0.558 0.357,-0.948l26.215,-27.362c0.414,-0.394 0.427,-0.42 1.048,-0.392Z" style="fill:#f29d3c;fill-rule:nonzero;"/><path d="M44.845,21.823c0.97,0.134 1.517,1.372 0.81,2.177l-26.331,27.387c-0.743,0.706 -2.171,0.254 -2.217,-0.84c-0.015,-0.337 0.016,-0.558 0.358,-0.947l26.331,-27.387c0.414,-0.394 0.427,-0.42 1.049,-0.39Z" style="fill:#f29d3c;fill-rule:nonzero;"/><path d="M35.766,10.881c0.472,0.031 0.918,0.22 1.269,0.54l15.42,14.86c1.034,1.054 0.43,3.2 -1.198,3.321c-0.469,0.035 -0.949,-0.108 -1.321,-0.394c-0.077,-0.059 -0.093,-0.077 -0.165,-0.142l-15.419,-14.86c-1.005,-1.025 -0.493,-3.102 1.089,-3.31c0.209,-0.027 0.258,-0.016 0.325,-0.015Z" style="fill:#f29d3c;fill-rule:nonzero;"/></g></svg>