<?xml version="1.0" encoding="utf-8"?>
<!-- Generator: Adobe Illustrator 19.1.0, SVG Export Plug-In . SVG Version: 6.00 Build 0)  -->
<svg version="1.1" id="Layer_1" xmlns="http://www.w3.org/2000/svg" xmlns:xlink="http://www.w3.org/1999/xlink" x="0px" y="0px"
	 width="821.2px" height="813.7px" viewBox="379 -374.7 821.2 813.7" style="enable-background:new 379 -374.7 821.2 813.7;"
	 xml:space="preserve">
<style type="text/css">
	.st0{opacity:0.17;fill:#BDBDBD;enable-background:new    ;}
	.st1{opacity:0.17;fill:#A8A8A8;enable-background:new    ;}
	.st2{opacity:0.17;fill:#858585;enable-background:new    ;}
	.st3{opacity:0.17;fill:#DBDBDB;enable-background:new    ;}
	.st4{opacity:0.17;fill:#A6A6A6;enable-background:new    ;}
	.st5{opacity:0.17;fill:#949494;enable-background:new    ;}
	.st6{opacity:0.17;fill:#9C9C9C;enable-background:new    ;}
	.st7{opacity:0.17;fill:#7D7D7D;enable-background:new    ;}
	.st8{opacity:0.17;fill:#C4C4C4;enable-background:new    ;}
	.st9{opacity:0.17;fill:#ABABAB;enable-background:new    ;}
	.st10{opacity:0.17;fill:#8F8F8F;enable-background:new    ;}
	.st11{opacity:0.17;fill:#737373;enable-background:new    ;}
	.st12{opacity:0.17;fill:#808080;enable-background:new    ;}
	.st13{opacity:0.17;fill:#6B6B6B;enable-background:new    ;}
	.st14{opacity:0.17;fill:#BABABA;enable-background:new    ;}
	.st15{opacity:0.17;fill:#919191;enable-background:new    ;}
	.st16{opacity:0.17;fill:#787878;enable-background:new    ;}
	.st17{opacity:0.17;fill:#828282;enable-background:new    ;}
	.st18{opacity:0.17;fill:#6E6E6E;enable-background:new    ;}
	.st19{opacity:0.17;fill:#8A8A8A;enable-background:new    ;}
	.st20{opacity:0.17;fill:#969696;enable-background:new    ;}
	.st21{opacity:0.17;fill:#A1A1A1;enable-background:new    ;}
	.st22{opacity:0.17;fill:#707070;enable-background:new    ;}
	.st23{opacity:0.17;fill:#8C8C8C;enable-background:new    ;}
	.st24{opacity:0.17;fill:#757575;enable-background:new    ;}
	.st25{opacity:0.17;fill:#696969;enable-background:new    ;}
	.st26{opacity:0.17;fill:#EDEDED;enable-background:new    ;}
	.st27{opacity:0.17;fill:#B0B0B0;enable-background:new    ;}
	.st28{opacity:0.17;fill:#9E9E9E;enable-background:new    ;}
	.st29{opacity:0.17;fill:#CCCCCC;enable-background:new    ;}
	.st30{opacity:0.17;fill:#878787;enable-background:new    ;}
	.st31{opacity:0.17;fill:#7A7A7A;enable-background:new    ;}
	.st32{opacity:0.17;fill:#999999;enable-background:new    ;}
	.st33{opacity:0.17;fill:#616161;enable-background:new    ;}
	.st34{opacity:0.17;fill:#666666;enable-background:new    ;}
	.st35{opacity:0.17;fill:#595959;enable-background:new    ;}
</style>
<path class="st0" d="M876.2-374.7c-9.2,13.1-21,29.8-35,49.7h303.1l34.6-49.7H876.2z"/>
<path class="st1" d="M894.7,439c-26.1-45.2-57-98.5-90.1-155.7l-108.2,33.8l-55.5,79.6l77.9,42.2h175.9V439z"/>
<polygon class="st2" points="696.4,317.2 568,357.3 640.9,396.8 "/>
<path class="st3" d="M1063-208.4L977.7-86.1l87.7-2.2C1064.6-132.6,1063.7-173.5,1063-208.4z"/>
<path class="st3" d="M766.8-325L704-130.4c55.3-78.5,102.9-146,137.2-194.6C841.2-325,766.8-325,766.8-325z"/>
<path class="st3" d="M894.7,439h101.5c7.5-49.4,16.6-108.7,26.3-172c-15.9-11.5-32.7-23.6-50-36.1l-167.8,52.4L894.7,439z"/>
<path class="st4" d="M1060.6-325H841.1c-34.2,48.6-81.8,116.1-137.1,194.6l-0.4,1.3c41.5,15.4,83.8,31,126.2,46.7l148-3.8
	l85.2-122.2C1061.5-278.9,1060.6-325,1060.6-325"/>
<path class="st5" d="M894.7,439l-90.1-155.7l0,0C837.7,340.5,868.6,393.9,894.7,439L894.7,439z"/>
<path class="st6" d="M1106.5-270.9l-43.5,62.5c0.7,34.9,1.6,75.8,2.5,120l12-0.3C1089.2-163.7,1099.4-228.3,1106.5-270.9"/>
<path class="st7" d="M1116.5-325h-55.9c0,0,1,46.1,2.4,116.6l43.5-62.4C1112.2-305,1115.8-325,1116.5-325"/>
<path class="st8" d="M1076.4,439c-0.7-34.1-1.7-81-2.8-135c-15.6-11.3-32.3-23.4-49.9-36.1L996.9,439L1076.4,439L1076.4,439z"/>
<path class="st9" d="M996.9,439l26.8-171.1c-0.4-0.3-0.8-0.6-1.2-0.9c-9.7,63.3-18.7,122.6-26.3,172L996.9,439L996.9,439z"/>
<path class="st8" d="M1200.2,395.6c-5.8-4.2-33.8-24.5-77-55.7c-11.4,38.9-21.3,72.8-28.9,99.1h54l51.9-41.6V395.6z"/>
<path class="st10" d="M1200.2-282.1c-0.2-4.6-0.2-9.1,0-13.5V-325h-55.9l-35.8,51.3l-29,184.9l120.7-3.1V-282.1z"/>
<polygon class="st11" points="1144.3,-325 1116.5,-325 1108.5,-273.7 "/>
<path class="st12" d="M1108.5-273.7l-1.9,2.8c-7.1,42.6-17.4,107.2-29.1,182.1l2.1-0.1L1108.5-273.7z"/>
<path class="st13" d="M1116.5-325L1116.5-325c-0.7,0-4.3,20-10,54.1l1.9-2.8L1116.5-325z"/>
<path class="st10" d="M1094.3,439c7.6-26.3,17.6-60.2,28.9-99.1c-14.8-10.7-31.5-22.8-49.6-35.9c1.1,54,2.1,100.9,2.8,135H1094.3z"
	/>
<path class="st14" d="M1065.5-88.4l-87.7,2.2l-32.4,46.4c40,14.7,79.4,29.2,117.7,43.3c1.3-8.3,2.5-16.4,3.8-24.5
	C1066.4-44,1065.9-66.7,1065.5-88.4"/>
<path class="st15" d="M977.7-86.2l-148,3.8c38.7,14.3,77.4,28.6,115.6,42.7L977.7-86.2z"/>
<path class="st15" d="M766.3,217l-69.8,100.1l108.1-33.8C792.1,261.7,779.3,239.6,766.3,217"/>
<path class="st16" d="M654.3,23.6L549.8,347.4l18.2,9.9l128.4-40.1l69.8-100.1C729.4,153.3,691,87,654.3,23.6"/>
<path class="st14" d="M828.9,127.2L766.3,217l38.4,66.3l167.8-52.5C928,198.7,879.4,163.7,828.9,127.2"/>
<path class="st15" d="M660.1,5.5l-5.8,18l112,193.5l62.6-89.8C773.9,87.5,716.7,46.3,660.1,5.5"/>
<path class="st17" d="M766.3,217L766.3,217c13,22.5,25.8,44.7,38.4,66.3l0,0L766.3,217z"/>
<path class="st18" d="M654.3,23.5L654.3,23.5c36.7,63.4,75.1,129.7,112,193.5l0,0L654.3,23.5z"/>
<path class="st19" d="M1077.4-88.7l-12,0.3c0.5,21.8,0.9,44.4,1.4,67.5C1070.5-44.2,1074-66.9,1077.4-88.7"/>
<path class="st1" d="M1065,4.3c0.8,0.3,1.6,0.6,2.5,0.9c-0.1-4.9-0.2-9.8-0.3-14.7L1065,4.3z"/>
<path class="st20" d="M1066.9-21c-1.3,8.1-2.5,16.3-3.8,24.5c0.6,0.2,1.3,0.5,1.9,0.7l2.2-13.8C1067-13.3,1066.9-17.2,1066.9-21"/>
<path class="st12" d="M1200.2-91.9l-120.7,3.1l-12.4,79.3c0.1,4.9,0.2,9.8,0.3,14.7c46.4,17.1,91.1,33.4,132.8,48.7V-91.9
	L1200.2-91.9z"/>
<path class="st11" d="M1079.5-88.8l-2.1,0.1c-3.4,21.8-7,44.5-10.6,67.8c0.1,3.8,0.2,7.6,0.2,11.5L1079.5-88.8z"/>
<path class="st12" d="M703.6-129.1l-16.2,50.3l142.4-3.6C787.4-98.1,745.1-113.7,703.6-129.1"/>
<path class="st21" d="M1030.8,212.7l-58.3,18.2c17.3,12.5,34,24.6,50,36.1C1025.2,249.2,1028,231,1030.8,212.7"/>
<path class="st5" d="M1200.2,159.7l-26.9,8.4c-18,61.8-35.3,121-50.1,171.8c43.2,31.2,71.1,51.5,77,55.7V159.7z"/>
<path class="st5" d="M1032.4,212.2l-8.7,55.7c17.7,12.8,34.3,24.8,49.9,36.1c-0.7-32.5-1.4-67.6-2.2-104L1032.4,212.2z"/>
<path class="st2" d="M1032.4,212.2l-1.6,0.5c-2.8,18.3-5.6,36.5-8.3,54.4c0.4,0.3,0.8,0.6,1.2,0.9L1032.4,212.2z"/>
<path class="st22" d="M1173.4,168.1l-101.9,31.8c0.8,36.4,1.5,71.5,2.2,104c18.1,13.1,34.8,25.2,49.6,35.9
	C1138.1,289.1,1155.4,229.9,1173.4,168.1"/>
<path class="st23" d="M945.3-39.8l-116.4,167c50.5,36.5,99.1,71.5,143.6,103.7l58.3-18.2c10.6-69.2,21.7-141.1,32.2-209.1
	C1024.8-10.5,985.4-25,945.3-39.8"/>
<path class="st11" d="M829.7-82.4l-142.4,3.6L660.1,5.5c56.6,40.7,113.8,82,168.8,121.7l116.4-167C907.1-53.8,868.4-68.1,829.7-82.4
	"/>
<path class="st17" d="M1065,4.3l-32.6,207.9l39.1-12.2c-1.3-63.2-2.7-130.4-4-194.8C1066.6,4.9,1065.8,4.6,1065,4.3"/>
<path class="st24" d="M1063.1,3.6c-10.5,68-21.6,139.9-32.2,209.1l1.6-0.5L1065,4.3C1064.3,4,1063.7,3.8,1063.1,3.6"/>
<path class="st17" d="M1200.2,75.7c-9,31-18,62-26.9,92.4l26.9-8.4V75.7z"/>
<path class="st25" d="M1200.2,53.9c-41.7-15.3-86.4-31.7-132.8-48.7c1.3,64.4,2.7,131.6,4,194.8l101.9-31.8
	c8.9-30.4,17.9-61.5,26.9-92.4L1200.2,53.9L1200.2,53.9z"/>
<polygon class="st2" points="537.5,439 532.8,400.2 520.2,439 "/>
<polygon class="st15" points="718.8,439 640.9,396.8 611.5,439 "/>
<polygon class="st24" points="611.5,439 640.9,396.8 568,357.3 544.2,364.7 532.8,400.2 537.5,439 "/>
<polygon class="st13" points="549.8,347.4 544.2,364.7 568,357.3 "/>
<path class="st26" d="M722.3-374.7c-4.5,0.2-9,0.2-13.6,0H551.3c-4.5,0.2-9,0.2-13.6,0H379v49.7h59.9c2.9-9.8,4.6-15.1,4.8-15.4
	l8.9,15.3l0,0v0.1h314.2l16-49.7H722.3z"/>
<path class="st27" d="M379-114.4c6.8-24.2,13.2-47,19.2-68c-6.5-4.6-12.9-9.2-19.2-13.7V-114.4z"/>
<path class="st27" d="M379-325v74.5c11.2,4.3,22.8,8.6,34.7,13.2c11.5-40.6,20.2-70.7,25.1-87.6L379-325L379-325z"/>
<path class="st14" d="M443.7-340.4c-0.3,0.3-1.9,5.6-4.8,15.4h6.7L443.7-340.4z M449.9-289l-17.8,58.6c8.5,3.2,17.2,6.5,26,9.8
	L449.9-289z M414.1-171L383.8-71l92.1-2.4l-7-58.6C449.9-145.4,431.7-158.5,414.1-171"/>
<path class="st10" d="M379-114.4v43.6l4.8-0.1l30.3-100c-5.4-3.8-10.7-7.6-15.9-11.4C392.2-161.4,385.8-138.7,379-114.4z"/>
<path class="st10" d="M445.5-325h-6.7c-5,16.9-13.6,47.1-25.1,87.6c6,2.3,12.2,4.6,18.4,6.9l17.8-58.6L445.5-325z"/>
<path class="st28" d="M443.7-340.4l1.9,15.4h7.1v-0.1l0,0L443.7-340.4z M458-315.8l-8.1,26.7l8.2,68.4c22.5,8.5,45.9,17.2,70.1,26.3
	C494-253.5,468.5-297.5,458-315.8 M468.8-131.9l7,58.6l72-1.8C520.7-94.7,494.3-113.6,468.8-131.9"/>
<path class="st7" d="M452.6-325h-7.1l4.3,36l8.2-26.8C454.7-321.3,452.9-324.5,452.6-325"/>
<path class="st28" d="M452.6-325.1L452.6-325.1L452.6-325.1z"/>
<path class="st29" d="M452.6-325.1L452.6-325.1L452.6-325.1 M766.8-325H452.6h8.2l-2.8,9.2l70.2,121.4
	c55.1,20.6,114.2,42.6,175,65.1c0.3-0.4,0.6-0.8,0.8-1.2L766.8-325z"/>
<path class="st28" d="M704-130.4c-0.3,0.4-0.6,0.8-0.8,1.2c0.2,0.1,0.2,0.1,0.4,0.1L704-130.4z"/>
<polygon class="st6" points="460.8,-325 452.6,-325 458,-315.8 "/>
<path class="st23" d="M452.6-325.1L452.6-325.1L452.6-325.1L452.6-325.1L452.6-325.1 M458-315.8L458-315.8
	c10.6,18.3,36,62.2,70.2,121.4l0,0L458-315.8z"/>
<path class="st11" d="M452.6-325L452.6-325c0.3,0.5,2.1,3.7,5.4,9.3l0,0L452.6-325z"/>
<path class="st28" d="M475.8-73.3l-92.1,2.4L379-55.3v310.2l38.9,21.1c28.5-40.5,57.1-81.2,85.4-121.3L475.8-73.3z"/>
<path class="st12" d="M503.2,154.6c-28.2,40.2-56.8,80.8-85.3,121.4l106.9,57.9L503.2,154.6z"/>
<polygon class="st7" points="379,-70.9 379,-55.3 383.8,-71 "/>
<path class="st23" d="M547.8-75.2l-72,1.8l27.4,228c42-59.7,83.3-118.3,122.4-173.9C599.4-38.2,573.3-56.9,547.8-75.2"/>
<path class="st11" d="M625.7-19.3c-39.1,55.6-80.4,114.2-122.4,173.9l21.6,179.3l25,13.5L654.4,23.5c-7.4-12.8-14.8-25.5-22-38
	C630.1-16.1,627.9-17.7,625.7-19.3"/>
<path class="st19" d="M632.3-14.5l22,38l5.8-18C650.8-1.1,641.5-7.8,632.3-14.5"/>
<path class="st25" d="M632.3-14.5c7.2,12.5,14.6,25.2,22,38l0,0L632.3-14.5L632.3-14.5z"/>
<path class="st30" d="M379-250.6v54.5c6.3,4.5,12.7,9,19.2,13.7c5.6-19.9,10.8-38.4,15.6-55C401.8-241.9,390.2-246.3,379-250.6z"/>
<path class="st23" d="M432.1-230.5l-18,59.4c17.6,12.6,35.9,25.6,54.7,39.1l-10.7-88.7C449.3-224,440.6-227.3,432.1-230.5"/>
<path class="st22" d="M413.7-237.4c-4.7,16.6-9.9,35.1-15.6,55c5.2,3.7,10.6,7.5,15.9,11.4l18-59.5
	C425.9-232.8,419.8-235.1,413.7-237.4"/>
<path class="st31" d="M458.1-220.7l10.7,88.8c25.5,18.3,52,37.2,79.1,56.7l48.6-1.2c-25-43.2-48.1-83.2-68.3-118
	C504-203.5,480.6-212.2,458.1-220.7"/>
<path class="st32" d="M528.2-194.4l68.3,118l70.8-1.8c12.3-17.4,24.3-34.5,35.9-51C642.4-151.8,583.3-173.8,528.2-194.4"/>
<path class="st31" d="M703.2-129.2c-11.6,16.5-23.7,33.6-35.9,51l20.1-0.5l16.2-50.3C703.4-129.2,703.3-129.2,703.2-129.2"/>
<path class="st22" d="M528.2-194.4c20.1,34.8,43.3,74.8,68.3,118l0,0L528.2-194.4L528.2-194.4z"/>
<path class="st22" d="M596.4-76.4l-48.6,1.2c25.5,18.3,51.5,37,77.8,55.9c0.7-1,1.4-2,2.1-3C617.1-40.8,606.6-58.8,596.4-76.4"/>
<path class="st33" d="M627.8-22.3c-0.7,1-1.4,2-2.1,3c2.2,1.6,4.4,3.2,6.6,4.8C630.8-17.1,629.3-19.7,627.8-22.3"/>
<path class="st30" d="M667.2-78.2l-70.8,1.8l31.3,54.2C641.2-41.3,654.4-60,667.2-78.2"/>
<path class="st18" d="M687.3-78.8l-20.1,0.5c-12.8,18.2-26,36.9-39.4,56l4.5,7.8c9.2,6.6,18.5,13.3,27.8,20L687.3-78.8z"/>
<path class="st34" d="M596.5-76.4L596.5-76.4c10.2,17.6,20.6,35.7,31.3,54.2l0,0L596.5-76.4z"/>
<path class="st35" d="M627.8-22.3L627.8-22.3c1.5,2.6,3,5.2,4.5,7.8l0,0L627.8-22.3z"/>
<polygon class="st12" points="520.2,439 532.8,400.2 529.1,369.5 379,416.4 379,439 "/>
<polygon class="st22" points="544.2,364.7 529.1,369.5 532.8,400.2 "/>
<path class="st23" d="M379,254.9v76.4c12.9-18.4,25.9-36.8,38.9-55.3L379,254.9z"/>
<path class="st11" d="M379,416.4l150.1-46.9l-4.3-35.6L417.9,276c-13,18.5-26,36.9-38.9,55.3V416.4z"/>
<polygon class="st34" points="524.8,333.9 529.1,369.5 544.2,364.7 549.8,347.4 "/>
</svg>
