<?xml version="1.0" encoding="utf-8"?>
<!-- Generator: Adobe Illustrator 19.1.0, SVG Export Plug-In . SVG Version: 6.00 Build 0)  -->
<svg version="1.1" xmlns="http://www.w3.org/2000/svg" xmlns:xlink="http://www.w3.org/1999/xlink" x="0px" y="0px"
	 viewBox="0 0 17.1 17.3" style="enable-background:new 0 0 17.1 17.3;" xml:space="preserve">
<style type="text/css">
	.st0{fill:#C6C6C6;}
	.st1{clip-path:url(#SVGID_2_);fill:#C6C6C6;}
</style>
<g id="Layer_2">
</g>
<g id="Layer_1">
</g>
<g id="Layer_3">
	<rect y="5.9" class="st0" width="17.1" height="2.2"/>
	<rect y="9.4" class="st0" width="17.1" height="2.2"/>
	<g>
		<defs>
			<rect id="SVGID_1_" y="0" width="17.1" height="17.3"/>
		</defs>
		<clipPath id="SVGID_2_">
			<use xlink:href="#SVGID_1_"  style="overflow:visible;"/>
		</clipPath>
		<path class="st1" d="M6.2,3.5c0.4,0,0.8,0,1.2,0c0.1,0,0.1,0,0.2,0v1h2.1v-1c0.1,0,0.1,0,0.2,0c0.4,0,0.8,0,1.3,0
			c0.2,0,0.3-0.1,0.3-0.2c0.1-0.2,0-0.3-0.1-0.4c-0.1-0.1-0.1-0.1-0.2-0.2C10.6,1.9,9.8,1,9,0.2c-0.2-0.2-0.4-0.2-0.6,0
			C7.6,1.1,6.8,2,6,2.9C5.9,3,5.8,3.1,5.9,3.3C5.9,3.5,6.1,3.5,6.2,3.5"/>
		<path class="st1" d="M11.2,13.8c-0.4,0-0.8,0-1.2,0H9.8v-0.9H7.7v0.9H7.5c-0.4,0-0.8,0-1.2,0c-0.2,0-0.3,0-0.4,0.2
			c-0.1,0.2,0,0.3,0.1,0.4c0.8,0.9,1.6,1.8,2.5,2.7c0.2,0.2,0.4,0.2,0.6,0c0.2-0.2,0.3-0.4,0.5-0.6c0.6-0.7,1.3-1.4,1.9-2.1
			c0.1-0.1,0.2-0.3,0.1-0.4C11.5,13.8,11.3,13.8,11.2,13.8"/>
	</g>
</g>
</svg>
