<?xml version="1.0" encoding="utf-8"?>
<!-- Generator: Adobe Illustrator 19.1.0, SVG Export Plug-In . SVG Version: 6.00 Build 0)  -->
<svg version="1.1" id="Layer_1" xmlns="http://www.w3.org/2000/svg" xmlns:xlink="http://www.w3.org/1999/xlink" x="0px" y="0px"
	 width="64px" height="64px" viewBox="0 0 64 64" style="enable-background:new 0 0 64 64;" xml:space="preserve">
<g id="sc8O5C.tif">
	<g>
		<path d="M6.4,13.7c17.1,0,34.1,0,51.2,0c0.1,0.1,0.2,0.1,0.4,0.2c1.3,0.8,1.4,2,0.4,3c-5.5,5.5-11,11-16.4,16.5
			c-2.7,2.7-5.4,5.5-8.1,8.2c-1,1-2.6,1.1-3.5,0.1c-2-2-3.9-3.9-5.9-5.9c-3.5-3.5-6.9-7-10.4-10.5c-2.9-3-5.9-5.9-8.8-8.9
			c-0.3-0.3-0.4-0.6-0.3-1C5.1,14.6,5.6,14,6.4,13.7z"/>
		<path d="M32,52.3c-8.1,0-16.2,0-24.4,0c-1,0-1.8-0.2-2.4-1.1c-0.5-0.9-0.5-1.4,0.3-2.1c4.5-4.6,9.1-9.1,13.6-13.7
			c0.5-0.5,0.5-0.5,1,0c2.8,2.8,5.5,5.5,8.3,8.3c2,2,5.2,2,7.2,0c2.8-2.8,5.5-5.6,8.3-8.3c0.5-0.5,0.5-0.5,1,0
			c2.9,2.9,5.7,5.8,8.6,8.6c1.7,1.7,3.4,3.5,5.2,5.2c0.4,0.4,0.5,0.9,0.4,1.4c-0.2,1-1.1,1.6-2.1,1.7c-0.2,0-0.4,0-0.6,0
			C48.2,52.3,40.1,52.3,32,52.3z"/>
		<path d="M4.9,32.9c0-4,0-8,0-12.1c0-0.2-0.1-0.5,0.1-0.6c0.2-0.1,0.3,0.2,0.5,0.4c3.9,4,7.9,7.9,11.8,11.9c0.4,0.4,0.3,0.6,0,0.9
			c-4,4-7.9,8-11.9,12c-0.1,0.1-0.2,0.3-0.4,0.2c-0.2-0.1-0.1-0.3-0.1-0.5C4.9,41,4.9,37,4.9,32.9z"/>
		<path d="M59.1,32.9c0,3.9,0,7.9,0,11.8c0,0.1,0,0.3,0,0.4c0,0.1,0.1,0.3-0.1,0.4c-0.2,0.1-0.3-0.1-0.4-0.2
			c-0.7-0.7-1.4-1.4-2.1-2.1c-1.8-1.8-3.6-3.6-5.4-5.4c-1.5-1.5-3-3-4.5-4.5c-0.3-0.3-0.3-0.5,0-0.9c4-4,7.9-8,11.9-11.9
			c0.1-0.1,0.2-0.2,0.3-0.2c0.1-0.1,0.3-0.1,0.3,0.1c0,0.2,0,0.3,0,0.5C59.1,24.9,59.1,28.9,59.1,32.9z"/>
	</g>
</g>
</svg>
