<?xml version="1.0" encoding="utf-8"?>
<!-- Generator: Adobe Illustrator 19.1.0, SVG Export Plug-In . SVG Version: 6.00 Build 0)  -->
<svg version="1.1" id="Layer_1" xmlns="http://www.w3.org/2000/svg" xmlns:xlink="http://www.w3.org/1999/xlink" x="0px" y="0px"
	 width="64px" height="64px" viewBox="0 0 64 64" style="enable-background:new 0 0 64 64;" xml:space="preserve">
<g id="xNv91c.tif">
	<g>
		<path d="M28.4,0c1.8,0,3.5,0,5.3,0c0.1,0,0.2,0.1,0.4,0.1c8.7,1.3,15.1,5.8,18.9,13.7c2.1,4.2,2.9,8.8,1.9,13.5
			c-0.7,3.4-2.2,6.5-3.9,9.6c-4.2,7.7-9.4,14.7-15,21.5c-1.5,1.9-3.1,3.7-4.7,5.6c-0.1,0-0.2,0-0.3,0C24.8,57,19,49.7,14,41.7
			c-3.1-4.9-5.9-10-7-15.8c0-1.5,0-3,0-4.5c0-0.2,0.1-0.4,0.1-0.6c1.5-9.1,6.4-15.4,14.8-19.1C24,0.8,26.2,0.4,28.4,0z"/>
	</g>
</g>
</svg>
