<?xml version="1.0" encoding="utf-8"?>
<!-- Generator: Adobe Illustrator 19.1.0, SVG Export Plug-In . SVG Version: 6.00 Build 0)  -->
<svg version="1.1" id="Layer_1" xmlns="http://www.w3.org/2000/svg" xmlns:xlink="http://www.w3.org/1999/xlink" x="0px" y="0px"
	 width="60px" height="60px" viewBox="0 0 60 60" style="enable-background:new 0 0 60 60;" xml:space="preserve">
<style type="text/css">
	.st0{fill:#FFFFFF;}
</style>
<path class="st0" fill="red" stroke="blue" d="M9.8,6.2c-0.9,0.6-7.2,5.2-8.1,10.4S0.5,27.1,6.2,36.2c5.9,9.3,17.4,20.7,27.4,21.3c8.9,0.5,15.2-5.7,15.9-8.1
	c0.7-2.3-2.7-5.8-3.6-6.5c-0.8-0.6-5.6-4.9-8.4-4.3c-4.6,0.9-4.3,4.9-8.4,5.3c-2.4,0.2-5.3-1.5-9.6-6.8c-9.4-11.7-4.8-12.2-3.1-13.7
	c1.7-1.5,4.7-3.2,4.1-5.6s-3-8.5-5.5-10.6c-1.8-1.7-2.1-1.6-2.8-1.7S10.7,5.6,9.8,6.2z"/>
</svg>
