<svg clip-rule="evenodd" fill-rule="evenodd" stroke-linejoin="round" stroke-miterlimit="1.41421" viewBox="0 0 2005 542" xmlns="http://www.w3.org/2000/svg"><g fill="#0e0d0d" fill-rule="nonzero" transform="scale(4.16667)"><path d="m92.497 55.713h-40.357c-1.041 0-1.886.845-1.886 1.887v19.73c0 1.041.845 1.889 1.886 1.889h15.743v24.513s-3.535 1.205-13.307 1.205c-11.531 0-27.637-4.213-27.637-39.631 0-35.425 16.771-40.086 32.518-40.086 13.629 0 19.502 2.399 23.238 3.556 1.174.359 2.26-.81 2.26-1.851l4.502-19.064c0-.488-.165-1.075-.721-1.473-1.518-1.083-10.775-6.263-34.16-6.263-26.942 0-54.576 11.462-54.576 66.562 0 55.102 31.639 63.313 58.301 63.313 22.076 0 35.469-9.434 35.469-9.434.552-.305.611-1.076.611-1.43v-61.536c0-1.042-.843-1.887-1.884-1.887z"/><path d="m300.475 6.728c0-1.05-.832-1.897-1.873-1.897h-22.723c-1.038 0-1.882.847-1.882 1.897 0 .004.006 43.912.006 43.912h-35.419v-43.912c0-1.05-.836-1.897-1.875-1.897h-22.722c-1.034 0-1.877.847-1.877 1.897v118.902c0 1.049.843 1.903 1.877 1.903h22.722c1.039 0 1.875-.854 1.875-1.903v-50.859h35.419s-.062 50.855-.062 50.859c0 1.049.843 1.903 1.882 1.903h22.777c1.041 0 1.873-.854 1.875-1.903z"/><path d="m135.376 22.33c0-8.182-6.561-14.793-14.653-14.793-8.085 0-14.65 6.611-14.65 14.793 0 8.174 6.565 14.804 14.65 14.804 8.092 0 14.653-6.63 14.653-14.804z"/><path d="m133.751 100.548c0-3.046 0-54.885 0-54.885 0-1.042-.841-1.894-1.88-1.894h-22.651c-1.039 0-1.969 1.071-1.969 2.113v78.635c0 2.311 1.44 2.998 3.304 2.998h20.408c2.239 0 2.788-1.099 2.788-3.035 0-4.215 0-20.727 0-23.932z"/><path d="m386.832 43.947h-22.549c-1.034 0-1.876.853-1.876 1.902v58.301s-5.728 4.191-13.859 4.191c-8.13 0-10.288-3.689-10.288-11.65 0-7.97 0-50.842 0-50.842 0-1.049-.84-1.902-1.875-1.902h-22.885c-1.033 0-1.879.853-1.879 1.902v54.692c0 23.646 13.179 29.431 31.309 29.431 14.873 0 26.865-8.217 26.865-8.217s.571 4.33.829 4.844c.259.512.932 1.029 1.659 1.029l14.559-.064c1.033 0 1.879-.854 1.879-1.898l-.007-79.817c0-1.049-.843-1.902-1.882-1.902z"/><path d="m439.567 108.269c-7.821-.238-13.126-3.787-13.126-3.787v-37.654s5.234-3.207 11.655-3.781c8.12-.727 15.944 1.726 15.944 21.096 0 20.425-3.531 24.456-14.473 24.126zm8.894-66.993c-12.807 0-21.518 5.714-21.518 5.714v-40.262c0-1.05-.839-1.897-1.875-1.897h-22.787c-1.036 0-1.878.847-1.878 1.897v118.902c0 1.049.842 1.903 1.881 1.903h15.81c.712 0 1.251-.367 1.649-1.01.393-.639.96-5.482.96-5.482s9.318 8.83 26.957 8.83c20.708 0 32.584-10.504 32.584-47.154 0-36.651-18.967-41.441-31.783-41.441z"/><path d="m199.058 43.758h-17.045s-.026-22.513-.026-22.518c0-.853-.439-1.279-1.424-1.279h-23.228c-.903 0-1.388.398-1.388 1.266v23.269s-11.64 2.81-12.427 3.037c-.784.228-1.361.95-1.361 1.813v14.622c0 1.052.84 1.9 1.879 1.9h11.909v35.178c0 26.129 18.328 28.697 30.696 28.697 5.651 0 12.411-1.816 13.527-2.228.675-.248 1.067-.947 1.067-1.705l.019-16.086c0-1.049-.886-1.898-1.884-1.898-.993 0-3.534.404-6.15.404-8.372 0-11.209-3.893-11.209-8.931 0-5.035-.001-33.431-.001-33.431h17.046c1.039 0 1.88-.848 1.88-1.9v-18.316c0-1.049-.841-1.894-1.88-1.894z"/></g></svg>