<?xml version="1.0" encoding="utf-8"?>
<svg version="1.1" id="Layer_1" xmlns="http://www.w3.org/2000/svg" xmlns:xlink="http://www.w3.org/1999/xlink" x="0px" y="0px"
	 viewBox="0 0 64 64" style="enable-background:new 0 0 64 64;" xml:space="preserve">
<style type="text/css">
	.st1{fill:#b4b4b4;}
</style>
<g>
	<path class="st1" d="M46.8,47.7c0-0.1,0-0.2,0-0.3c0-5.6-2.9-10.4-7.4-13.1c-2.1,2.4-5.2,3.9-8.7,3.9c-3.2,0-6.1-1.3-8.2-3.3
		c-4,2.8-6.5,7.4-6.5,12.6c0,0.1,0,0.2,0,0.3H46.8z"/>
	<path class="st1" d="M30.7,17.6c-4.9,0-8.9,4-8.9,8.9c0,2.8,1.3,5.3,3.3,6.9c1.5,1.2,3.5,2,5.6,2c2.3,0,4.4-0.9,6-2.4
		c1.7-1.6,2.8-3.9,2.8-6.5C39.6,21.5,35.6,17.6,30.7,17.6z"/>
</g>
</svg>
