<?xml version="1.0" encoding="utf-8"?>
<!-- Generator: Adobe Illustrator 20.0.0, SVG Export Plug-In . SVG Version: 6.00 Build 0)  -->
<svg version="1.1" id="Layer_1" xmlns="http://www.w3.org/2000/svg" xmlns:xlink="http://www.w3.org/1999/xlink" x="0px" y="0px"
	 viewBox="0 0 1278.3 813.8" style="enable-background:new 0 0 1278.3 813.8;" xml:space="preserve">
<style type="text/css">
	.st0{fill:#414A4C;}
	.st1{opacity:0.35;fill:#414A4C;}
</style>
<polygon class="st0" points="158.8,524.2 145.2,516.3 145.2,516.3 131.6,524.2 31,582.3 131.6,640.4 145.2,648.3 145.2,648.3 
	158.8,640.4 252.7,586.2 259.5,582.3 "/>
<polygon class="st0" points="123.2,653.2 22.5,595 22.5,711.3 22.5,727 22.5,727 36.1,734.8 136.7,793 136.7,676.7 136.7,661 "/>
<polygon class="st0" points="167.3,653.2 153.7,661 153.7,661 153.7,676.7 153.7,793 254.4,734.8 268,727 268,727 268,711.3 
	268,595 "/>
<polyline class="st0" points="338.3,529.6 158.1,425.5 158.1,494.1 279,563.9 "/>
<polygon class="st0" points="0,502 0,557.2 11.5,563.9 132.4,494.1 132.4,425.5 "/>
<polygon class="st0" points="125.5,813.8 11.5,747.9 0,754.6 0,809.8 6.8,813.8 "/>
<polygon class="st0" points="283.7,813.8 338.3,782.2 278.9,747.9 164.9,813.8 "/>
<polygon class="st1" points="0,1 0,453.5 148.3,365 917.3,812.7 1278.3,813 1278.3,0 "/>
</svg>
