<?xml version="1.0" encoding="UTF-8" standalone="no"?><!DOCTYPE svg PUBLIC "-//W3C//DTD SVG 1.1//EN" "http://www.w3.org/Graphics/SVG/1.1/DTD/svg11.dtd"><svg width="100%" height="100%" viewBox="0 0 200 74" version="1.1" xmlns="http://www.w3.org/2000/svg" xmlns:xlink="http://www.w3.org/1999/xlink" xml:space="preserve" xmlns:serif="http://www.serif.com/" style="fill-rule:evenodd;clip-rule:evenodd;stroke-linejoin:round;stroke-miterlimit:1.41421;"><rect id="Artboard1" x="0" y="0" width="199.2" height="73.7" style="fill:none;"/><g><path d="M197.9,19.9c0,0 0.1,-0.1 0.1,-0.2c0,-0.1 0,-0.2 -0.1,-0.2c-0.1,0 -0.1,-0.1 -0.3,-0.1l-0.3,0l0,0.6l0.3,0c0.1,0 0.2,0 0.3,-0.1m0.3,-0.2c0,0.2 -0.1,0.4 -0.3,0.4l0.4,0.5l-0.3,0l-0.3,-0.5l-0.3,0l0,0.5l-0.2,0l0,-1.4l0.5,0c0.2,0 0.4,0 0.5,0.1c-0.1,0.2 0,0.3 0,0.4" style="fill:#fff;fill-rule:nonzero;"/><path d="M197.6,18.4c-0.9,0 -1.6,0.7 -1.6,1.6c0,0.9 0.7,1.6 1.6,1.6c0.9,0 1.6,-0.7 1.6,-1.6c-0.1,-0.9 -0.8,-1.6 -1.6,-1.6m0,0.3c0.7,0 1.3,0.6 1.3,1.3c0,0.7 -0.6,1.3 -1.3,1.3c-0.7,0 -1.3,-0.6 -1.3,-1.3c0,-0.7 0.5,-1.3 1.3,-1.3" style="fill:#fff;fill-rule:nonzero;"/></g><path d="M35.1,15.8l-2.2,-1.3l-2.1,1.3l-16.1,9.3l16.1,9.3l2.1,1.2l2.2,-1.2l15,-8.7l1.1,-0.6l-16.1,-9.3Z" style="fill:#fff;fill-rule:nonzero;"/><path d="M29.4,36.4l-16.1,-9.3l0,21.1l2.2,1.3l16.1,9.3l0,-18.6l0,-2.5l-2.2,-1.3Z" style="fill:#fff;fill-rule:nonzero;"/><path d="M36.5,36.4l-2.2,1.3l0,21.1l16.1,-9.3l2.2,-1.3l0,-2.5l0,-18.6l-16.1,9.3Z" style="fill:#fff;fill-rule:nonzero;"/><path d="M7.4,24.5l-7.4,-4.3l0,33.3l9.5,-5.5l0,-22.3" style="fill:#fff;fill-rule:nonzero;"/><path d="M35,0l0,11l19.3,11.1l9.5,-5.5l-28.8,-16.6Z" style="fill:#fff;fill-rule:nonzero;"/><path d="M30.9,0l-28.8,16.6l9.4,5.5l19.4,-11.1l0,-11Z" style="fill:#fff;fill-rule:nonzero;"/><path d="M30.9,62.7l-19.4,-11.1l-9.4,5.4l28.8,16.7l0,-8.6l0,-2.4Z" style="fill:#fff;fill-rule:nonzero;"/><path d="M35,73.7l28.8,-16.7l-9.5,-5.4l-19.3,11.1l0,11Z" style="fill:#fff;fill-rule:nonzero;"/><path d="M30.9,38Z" style="fill:#fff;"/><g><path d="M72.4,44.1c1.3,0 2.3,-0.2 3.2,-0.6c0.9,-0.4 1.8,-1.1 2.8,-2l2.3,2.4c-2.3,2.5 -5,3.8 -8.3,3.8c-3.3,0 -6,-1 -8.1,-3.1c-2.1,-2.1 -3.2,-4.7 -3.2,-7.9c0,-3.2 1.1,-5.9 3.3,-8c2.2,-2.1 4.9,-3.2 8.3,-3.2c3.3,0 6.1,1.2 8.4,3.7l-2.3,2.5c-1,-1 -2,-1.7 -2.9,-2.1c-0.9,-0.4 -2,-0.6 -3.2,-0.6c-2.2,0 -4,0.7 -5.5,2.1c-1.5,1.4 -2.2,3.2 -2.2,5.4c0,2.2 0.7,4 2.2,5.5c1.4,1.3 3.1,2.1 5.2,2.1" style="fill:#fff;fill-rule:nonzero;"/><path d="M90,42.4c1,1.2 2.3,1.7 4,1.7c1.7,0 3,-0.6 4,-1.7c1,-1.1 1.5,-2.7 1.5,-4.7l0,-11.9l3.6,0l0,12.1c0,3.1 -0.9,5.5 -2.6,7.2c-1.7,1.7 -3.9,2.5 -6.6,2.5c-2.7,0 -4.9,-0.8 -6.6,-2.5c-1.7,-1.7 -2.6,-4.1 -2.6,-7.2l0,-12.1l3.6,0l0,11.9c0.3,2 0.7,3.6 1.7,4.7" style="fill:#fff;fill-rule:nonzero;"/><path d="M112.5,44l5.7,0c1.3,0 2.4,-0.2 3.1,-0.6c0.7,-0.4 1.1,-1.2 1.1,-2.4c0,-1.9 -1.5,-2.9 -4.6,-2.9l-5.2,0l0,5.9l-0.1,0Zm0,-9.2l4.6,0c2.6,0 3.9,-0.9 3.9,-2.7c0,-1 -0.3,-1.8 -1,-2.2c-0.6,-0.5 -1.6,-0.7 -3,-0.7l-4.6,0l0,5.6l0.1,0Zm5.8,12.6l-9.4,0l0,-21.6l8.4,0c1.5,0 2.7,0.2 3.8,0.5c1.1,0.3 1.8,0.8 2.4,1.4c1,1.1 1.5,2.4 1.5,3.8c0,1.7 -0.5,2.9 -1.6,3.8c-0.4,0.3 -0.7,0.5 -0.8,0.5c-0.1,0.1 -0.4,0.2 -0.8,0.4c1.3,0.3 2.4,0.9 3.2,1.8c0.8,0.9 1.2,2 1.2,3.4c0,1.5 -0.5,2.8 -1.5,4c-1.4,1.3 -3.5,2 -6.4,2" style="fill:#fff;fill-rule:nonzero;"/></g><path d="M142.7,39.1l-3.9,-8.9l-3.9,8.9l7.8,0Zm-9.3,3.4l-2.2,4.9l-3.9,0l9.5,-21.5l3.9,0l9.5,21.5l-3.9,0l-2.2,-4.9l-10.7,0Z" style="fill:#fff;fill-rule:nonzero;"/><path d="M169.3,25.8l3.6,0l0,21.6l-3.9,0l-12.2,-15.7l0,15.7l-3.6,0l0,-21.6l3.6,0l12.5,16.1l0,-16.1Z" style="fill:#fff;fill-rule:nonzero;"/><path d="M194,25.8l0,3.5l-11.4,0l0,5.7l10.3,0l0,3.2l-10.3,0l0,5.7l11.8,0l0,3.5l-15.5,0l0,-21.6l15.1,0Z" style="fill:#fff;fill-rule:nonzero;"/></svg>