<?xml version="1.0" encoding="UTF-8" standalone="no"?><!DOCTYPE svg PUBLIC "-//W3C//DTD SVG 1.1//EN" "http://www.w3.org/Graphics/SVG/1.1/DTD/svg11.dtd"><svg width="100%" height="100%" viewBox="0 0 136 127" version="1.1" xmlns="http://www.w3.org/2000/svg" xmlns:xlink="http://www.w3.org/1999/xlink" xml:space="preserve" xmlns:serif="http://www.serif.com/" style="fill-rule:evenodd;clip-rule:evenodd;stroke-linecap:round;stroke-linejoin:round;stroke-miterlimit:1.5;"><path d="M44.099,42.834l11.284,20.312l-3.032,19.11l-9.034,20.821l-9.819,12.755l-25.989,-8.874l-4.282,-19.855l6.808,-34.649l15.27,-10.074l7.719,-0.477" style="fill:#2c76b6;"/><rect id="Artboard1" x="0" y="0" width="135.33" height="126.26" style="fill:none;"/><g><path d="M37.178,126.494c0,0 2.103,-4.497 7.207,-5.509c5.104,-1.012 8.581,0.048 8.878,-2.823c0,0 0.402,1.674 1.851,0.531c1.449,-1.143 8.27,-7.826 13.334,-8.859c5.064,-1.033 14.498,-3.666 17.683,2.243c3.186,5.909 2.467,6.758 2.467,6.758c0,0 -0.543,-1.723 -2.288,-1.924c0,0 1.209,5.723 -1.111,7.938c0,0 0.029,-0.721 -1.422,-1.803c0,0 -1.122,4.141 -3.487,5.249" style="fill:#2a5e88;"/><path d="M48.946,59.858c0,0 -2.074,1.405 -4.491,1.134c-4.308,-0.484 -10.231,-3.681 -11.206,-11.057c-1.211,-9.157 3.183,-17.952 9.757,-14.945c0,0 0.425,-5.814 1.483,-7.232c0,0 -1.657,-0.615 -2.508,0.692c0,0 0.881,-9.186 8.179,-12.844c7.297,-3.658 31.902,-2.221 34.232,0.374c2.329,2.596 5.832,8.055 7.212,14.524c1.38,6.469 1.701,13.217 1.701,13.217c0,0 2.149,-0.208 3.213,0.652c1.064,0.86 2.911,3.765 -1.104,10.913c0.026,0.141 -3.486,-2.838 -6.959,-2.323c-3.472,0.516 -8.676,4.153 -11.336,3.301c-2.661,-0.851 -3.74,-0.897 -6.369,-8.387c-2.628,-7.491 -4.691,-11.176 -9.104,-9.831c-4.413,1.345 -4.317,5.982 -2.832,11.75c1.485,5.768 2.445,8.559 2.445,8.559c0,0 -1.603,-3.829 -6.169,-4.509c-1.288,-0.193 -4.366,1.709 -6.144,6.012Z" style="fill:#1a4a70;"/><path d="M57.806,71.539c-0.34,-1.069 -0.632,0.433 -1.419,-0.265c0,0 -9.508,-1.886 -6.485,-12.124c2.227,-7.546 8.845,-4.34 8.845,-4.34c0,0 1.052,0.918 -0.001,-7.345c-1.303,-10.234 5.419,-15.332 10.992,-5.109c6.853,12.571 3.258,12.841 7.285,13.881c4.027,1.04 9.256,-4.63 13.679,-3.486c4.423,1.143 3.357,3.818 3.357,3.818c0,0 -1.952,4.253 -4.767,5.6c0,0 2.349,1.053 2.096,7.178c-0.268,6.476 -4.159,8.025 -4.159,8.025c0,0 0.009,-1.518 -1.805,-1.12c-1.814,0.399 -5.659,3.261 -7.67,4.353c-2.011,1.093 -3.812,1.788 -7.131,0.494c-3.32,-1.295 -7.576,-4.803 -7.576,-4.803l-2.325,0.995c0,0 -1.408,-1 -2.916,-5.752Z" style="fill:#c3a16e;"/><path d="M76.129,93.775c0,0 -0.418,-3.79 -4.315,-5.689c-3.961,-1.931 -7.601,-4.627 -9.849,-7.99c-2.248,-3.363 -0.291,-5.093 2.943,-3.354c3.234,1.739 5.341,6.123 12.089,4.058c3.173,-0.972 4.838,-3.429 6.905,-4.353c2.067,-0.923 4.784,0.6 2.344,2.824c0.202,0.169 3.507,1.232 2.444,4.706c0,0 2.95,1.167 1.948,3.905c0,0 1.96,1.635 -0.441,4.488c-2.401,2.852 -4.106,3.516 -4.106,3.516" style="fill:#dbb985;"/><path d="M62.693,75.607c3.162,0.048 5.467,3.573 8.373,4.708c2.52,0.983 5.546,0.382 7.721,-0.876c1.805,-1.044 3.202,-2.806 5.154,-3.498c1.498,-0.53 3.688,-0.067 3.672,1.658c-0.006,0.572 -0.328,1.124 -0.725,1.567c0,0 1.537,0.829 2.068,2.138c0.319,0.787 0.3,1.683 0.08,2.504c0,0 2.638,1.659 1.835,4.009c0,0 0.802,1.041 0.659,2.169c-0.202,1.596 -1.476,2.8 -2.603,3.866c-0.851,0.804 -1.745,1.623 -2.836,2.034c1.981,-0.843 3.68,-2.804 4.62,-4.442c0.59,-1.028 0.841,-2.484 -0.185,-3.398l-0.06,-0.067c0,0 0.468,-1.58 -0.375,-2.637c-0.391,-0.491 -0.927,-0.87 -1.501,-1.1c0,0 -0.213,-0.157 -0.111,-0.577c0.381,-1.622 -0.586,-3.188 -2.299,-4.002c-0.026,-0.013 -0.053,-0.026 -0.079,-0.04c-0.153,-0.086 -0.153,-0.089 -0.203,-0.21c-0.215,-0.526 1.191,-1.074 0.872,-2.032c-0.249,-0.75 -1.238,-0.828 -1.875,-0.747c-2.662,0.337 -4.361,3.657 -7.905,4.723c-2.745,0.826 -5.734,0.68 -8.378,-1.203c-1.826,-1.301 -3.309,-3.262 -5.615,-3.616c-0.51,-0.079 -1.107,-0.059 -1.408,0.394c-0.731,1.101 0.428,2.665 1.33,3.872c2.325,3.11 5.677,5.423 9.054,7.192c2.183,1.159 3.905,3.247 4.156,5.779c-0.328,-2.307 -2.073,-4.438 -4.247,-5.488c-3.975,-1.92 -7.775,-4.297 -10.313,-8.102c-0.128,-0.192 -0.249,-0.388 -0.361,-0.59c-0.081,-0.147 -0.158,-0.298 -0.228,-0.451c-0.054,-0.119 -0.105,-0.24 -0.151,-0.362c-0.034,-0.093 -0.066,-0.186 -0.095,-0.281c-0.303,-0.999 -0.093,-2.354 1.066,-2.759c0.292,-0.102 0.521,-0.137 0.893,-0.135Zm23.773,3.36l0,0Zm-0.003,-0.002c0,0 -0.001,-0.001 0,0Z" style="fill:#a58e6c;fill-rule:nonzero;"/><path d="M55.878,53.298c1.706,0.027 3.374,0.783 4.478,2.073l0.029,0.358l-0.308,-0.014c-2.053,-2.071 -5.786,-2.25 -8.302,0.143c-2.139,2.033 -2.822,5.167 -3.141,7.542c-0.351,2.614 -0.114,5.915 3.058,6.901c0.132,0.041 0.265,0.077 0.4,0.098l0.194,0.239l-0.24,0.193c-2.034,-0.141 -3.679,-1.963 -4.211,-3.968c-0.547,-2.06 -0.278,-4.273 0.204,-6.336c0.583,-2.497 1.863,-5.032 4.194,-6.315c1.071,-0.59 2.295,-0.898 3.518,-0.914c0.064,0 0.063,0 0.127,0Z" style="fill:#2878b6;fill-rule:nonzero;"/><path d="M63.685,36.518c2.964,0.047 5.336,2.727 6.611,5.019c0.223,0.401 0.431,0.811 0.626,1.226c1.579,3.361 2.186,7.218 3.773,10.392c0.331,0.662 0.757,1.3 1.358,1.74c2.365,1.733 5.845,0.119 8.945,-1.132c1.874,-0.751 3.842,-1.533 5.791,-1.325c1.705,0.182 3.367,1.455 3.508,3.251c0.232,2.978 -3.217,5.508 -6.102,7.392l-0.098,0.063l-0.2,-0.039l0.041,-0.201c0.066,-0.045 0.131,-0.09 0.197,-0.135c2.217,-1.535 4.563,-3.308 5.43,-5.628c0.554,-1.48 -0.225,-3.306 -1.924,-3.887c-2.546,-0.87 -5.4,0.81 -8.12,1.999c-2.412,1.049 -4.973,2.09 -7.509,0.79c-2.267,-1.161 -3.031,-4.017 -3.875,-6.501c-1.174,-3.455 -2.106,-7.12 -4.573,-9.821c-1.624,-1.777 -4.333,-2.878 -6.492,-1.19c-1.406,1.1 -1.847,2.978 -2.038,4.628c-0.476,4.107 0.442,8.287 0.857,12.509c0.009,0.093 0.022,0.231 0.022,0.231l-0.132,0.427l-0.398,0.212l-0.426,-0.132l-0.211,-0.393c-0.032,-0.318 -0.064,-0.635 -0.097,-0.952c-0.432,-4.186 -1.498,-8.317 -0.668,-12.944c0.405,-2.26 1.524,-4.632 3.947,-5.348c0.579,-0.171 1.073,-0.256 1.757,-0.251Z" style="fill:#2878b6;fill-rule:nonzero;"/><path d="M93.597,43.251c1.753,0.018 3.631,0.418 4.409,2.124c0.969,2.127 0.156,4.563 -0.6,6.577c-0.472,1.258 -1.032,2.486 -1.695,3.649l-0.633,0.455l-0.772,-0.124l-0.454,-0.632l0.121,-0.768c1.343,-2.177 2.921,-4.675 3.003,-7.395c0.021,-0.689 -0.112,-1.417 -0.567,-1.924c-0.685,-0.765 -1.828,-0.909 -2.852,-0.992c-3.091,-0.248 -6.286,1.083 -8.424,3.285l-0.201,0.024l-0.011,-0.188c2.052,-2.495 5.381,-4.102 8.676,-4.091Z" style="fill:#2878b6;fill-rule:nonzero;"/><path d="M65.954,53.255c1.873,0.026 3.224,0.179 3.015,0.342c-0.209,0.163 -1.899,0.274 -3.772,0.247c-1.873,-0.026 -3.224,-0.179 -3.015,-0.342c0.209,-0.163 1.899,-0.273 3.772,-0.247Z"/><path d="M72.562,74.279c0.219,0.006 -0.247,-0.118 0.685,0.085c0.791,0.173 1.532,0.599 2.039,1.264l0.026,0.274l-0.264,0.014c-0.753,-0.417 -1.59,-0.465 -2.484,-0.439c-0.447,0.013 -0.753,-0.075 -2.062,0.081c-0.26,0.031 -0.643,0.093 -0.643,0.093l-0.245,-0.093l0.092,-0.245c0.202,-0.146 0.504,-0.325 0.504,-0.325c0.151,-0.084 0.305,-0.164 0.461,-0.238c0.448,-0.214 0.918,-0.359 1.41,-0.439c0,0 0.24,-0.035 0.481,-0.032Z" style="fill-rule:nonzero;"/><path d="M40.58,33.722c1.012,0.01 2.047,0.303 2.811,0.963c0,0 0.295,0.326 0.179,0.656c-0.143,0.411 -0.667,0.456 -1.086,0.157c-1.8,-1.262 -4.527,-0.014 -6.028,1.277c-2.082,1.79 -2.66,4.76 -2.736,7.65c-0.093,3.495 0.551,7.034 2.121,10.163c1.519,3.029 4.267,5.639 7.735,6.154c1.133,0.167 2.289,0.133 3.423,-0.035c0,0 0.68,0.08 0.688,0.584c0.01,0.593 -0.885,0.68 -1.719,0.734c-3.207,0.209 -6.466,-0.972 -8.718,-3.318c-4.525,-4.712 -5.684,-12.397 -4.224,-18.313c0.4,-1.618 1.111,-3.142 2.372,-4.285c1.421,-1.288 3.115,-2.334 5.029,-2.386c0.051,-0.001 0.102,-0.001 0.153,-0.001Z" style="fill:#2878b6;fill-rule:nonzero;"/><path d="M45.478,48.45c0.447,0.005 0.892,0.045 1.336,0.128c0,0 -1.131,0.316 -1.688,0.555c-0.6,0.257 -1.104,0.548 -1.661,0.912c-0.071,0.047 -0.145,0.091 -0.217,0.138c-0.11,0.072 -0.221,0.14 -0.332,0.209c-0.181,0.113 -0.145,0.047 -0.925,0.621c-0.761,0.56 -1.376,1.323 -2.128,1.82c0,0 0.688,-1.456 1.043,-1.976c0.371,-0.541 0.776,-1.011 1.334,-1.436c0.623,-0.474 1.394,-0.754 2.234,-0.896c0.329,-0.055 0.668,-0.076 1.004,-0.075Z" style="fill:#2878b6;fill-rule:nonzero;"/><path d="M37.687,43.093c2.851,0.848 5.488,2.917 6.232,6.014l-0.087,0.499c0,0 -0.362,0.242 -0.39,0.247l-0.445,-0.099l-0.247,-0.382c-0.027,-0.154 0.012,0.041 -0.038,-0.287c-0.433,-2.683 -2.782,-4.816 -5.092,-5.802l-0.075,-0.133c0,0 0.102,-0.068 0.142,-0.057Z" style="fill:#2878b6;fill-rule:nonzero;"/><path d="M83.835,69.173c-6.402,3.037 -15.575,0.478 -16.245,-1.085c-1.575,-3.676 -1.113,-5.397 0.55,-6.495c1.664,-1.097 5.491,-0.889 6.501,0.213c1.011,1.101 1.777,1.387 1.777,1.387c0,0 3.519,-1.983 5.325,-1.539c1.805,0.443 3.431,1.379 3.645,2.566c0.214,1.187 -0.213,4.317 -1.553,4.953Z" style="fill:#a2865a;"/><path d="M65.476,4.903c0.534,0.101 1.056,0.302 1.583,0.473c3.84,1.246 7.724,2.745 10.775,5.25l-0.366,-1.607c-0.074,-0.558 0.55,-1.004 1.122,-0.45c4.015,3.893 7.674,8.203 10.445,13.017c1.819,3.163 2.818,6.728 3.561,10.393c0.764,3.769 1.332,7.596 1.549,11.404c0,0 -0.179,0.766 -0.731,0.641c-0.348,-0.079 -0.461,-0.488 -0.487,-0.894c-0.35,-5.153 -1.21,-10.316 -2.521,-15.277c-1.283,-4.854 -4.365,-9.077 -7.66,-13.013c-1.161,-1.388 -2.373,-2.732 -3.628,-4.036l0.348,1.582c0,0 0.038,0.387 -0.191,0.586c-0.262,0.228 -0.664,0.168 -0.938,-0.172c-0.196,-0.239 -0.235,-0.277 -0.353,-0.402c-1.902,-2.016 -4.536,-3.248 -7.161,-4.35c-1.409,-0.592 -2.847,-1.115 -4.301,-1.584l0.519,1.126c0.192,0.535 -0.365,1.066 -1.017,0.655c-1.112,-0.682 -2.558,-0.744 -3.956,-0.834c-0.757,-0.05 -1.516,-0.068 -2.274,-0.069c0,0 -0.121,-0.061 0.131,0.156c0.237,0.208 0.555,0.552 0.555,0.552c0.337,0.483 -0.049,1.006 -0.888,0.951c-2.717,-0.163 -5.379,1.124 -7.698,2.757c-1.224,0.861 -2.365,1.837 -3.437,2.881c0,0 -0.321,0.061 0.262,0.009c0.899,-0.075 2.118,-0.421 2.459,0.285c0.252,0.522 -0.541,0.878 -1.127,1.207c-3.053,1.716 -4.901,5.148 -6.29,8.48c-0.376,0.903 -0.714,1.821 -1.018,2.751c0,0 0.951,-0.328 1.781,-0.376c0,0 0.976,0.16 0.447,1.108c-0.784,1.431 -0.961,3.16 -1.158,4.848c-0.085,0.735 -0.151,1.472 -0.193,2.211c0,0 -0.087,0.528 -0.469,0.616c-0.46,0.105 -0.756,-0.328 -0.705,-1.079c0.148,-2.138 0.368,-4.295 1.082,-6.291l0.013,-0.037c-0.513,0.144 -1.028,0.372 -1.344,0.798c0,0 -0.253,0.326 -0.57,0.302c-0.346,-0.027 -0.604,-0.378 -0.536,-0.747c0.367,-1.97 1.413,-4.489 2.61,-6.84c1.146,-2.248 2.573,-4.403 4.533,-5.962c0,0 -0.869,0.028 -1.372,0.396c0,0 -0.43,0.226 -0.724,0.011c-0.503,-0.368 0.15,-1.18 0.708,-1.766c3.161,-3.318 7.011,-6.327 11.467,-6.739c-0.456,-0.247 -0.964,-0.403 -1.479,-0.391c0,0 -0.472,-0.072 -0.584,-0.412c-0.139,-0.419 0.237,-0.771 0.866,-0.807c2.761,-0.15 5.603,-0.229 8.165,0.454l-0.409,-0.916c0,0 -0.21,-0.858 0.604,-0.849Z" style="fill:#2878b6;fill-rule:nonzero;"/><path d="M81.234,61.012c2.198,0.036 4.443,1.526 4.622,3.734c0.133,1.648 -0.764,3.251 -1.785,4.386c0,0 -0.184,0.212 -0.215,-0.159c1.218,-1.584 2.131,-3.873 0.75,-5.537c-1.69,-2.036 -5.194,-1.546 -7.663,0.271l-0.207,0.118c0,0 -0.471,-0.014 -0.918,-0.443c-1.692,-1.604 -3.876,-3.079 -6.373,-2.284c-2.361,0.751 -3.326,3.9 -1.887,6.801l-0.046,0.189l-0.182,-0.05c-1.343,-2.161 -1.526,-5.329 0.495,-7.043c2.41,-2.043 6.304,-0.887 8.77,1.472c0,0 0.91,-0.507 1.492,-0.757c0.996,-0.427 2.064,-0.707 3.147,-0.698Z" style="fill:#69583d;fill-rule:nonzero;"/><path d="M70,65.433c0.929,-0.458 2.311,0.447 3.085,2.019c0.775,1.571 0.65,3.218 -0.278,3.676c-0.929,0.457 -2.311,-0.447 -3.085,-2.019c-0.775,-1.572 -0.65,-3.219 0.278,-3.676Z" style="fill:#69583d;"/><path d="M82.102,66.656c-0.74,-0.568 -2.007,-0.159 -2.829,0.912c-0.822,1.071 -0.889,2.401 -0.15,2.968c0.74,0.568 2.007,0.159 2.829,-0.912c0.822,-1.071 0.889,-2.401 0.15,-2.968Z" style="fill:#69583d;"/><path d="M62.349,27.078c0.084,0.001 0.167,0.004 0.251,0.011c0.093,0.007 0.186,0.017 0.278,0.03c2.488,0.351 4.315,2.632 5.474,4.427c0.682,1.056 1.292,2.165 1.773,3.324l-0.037,0.175c0,0 -0.67,-0.842 -1.068,-1.384c-1.208,-1.649 -2.573,-3.244 -4.299,-4.282c-0.86,-0.518 -1.825,-0.915 -2.892,-0.697c-2.298,0.471 -3.638,2.817 -4.477,4.495c-0.206,0.413 -0.396,0.832 -0.573,1.258c-0.405,0.98 -0.76,1.987 -1.025,3.017l-0.131,0.113l-0.091,-0.125c0.234,-3.028 1.02,-6.114 2.988,-8.418c0.963,-1.128 2.322,-1.949 3.829,-1.944Z" style="fill:#2878b6;fill-rule:nonzero;"/><path d="M85.887,59.512c0.447,0.439 0.739,0.866 0.653,0.954c-0.086,0.087 -0.519,-0.197 -0.965,-0.636c-0.447,-0.439 -0.74,-0.866 -0.654,-0.954c0.086,-0.088 0.519,0.197 0.966,0.636Z"/><path d="M23.28,130.56c0,0 -13.885,3.031 -17.059,-6.99c-3.174,-10.021 1.669,-15.81 10.79,-22.838c9.12,-7.028 9.492,-18.059 4.629,-25.9c-4.864,-7.841 -7.134,-8.584 -11.272,-5.432c-4.139,3.151 -4.011,5.573 0.054,9.681c4.065,4.108 8.151,7.766 6.327,12.359c-1.824,4.594 -5.344,5.926 -11.252,11.851c-5.908,5.925 -10.115,25.083 4.213,30.439c14.328,5.357 18.014,0.536 18.014,0.536" style="fill:#1a4a70;"/><path d="M25.347,130.526c0,0 -4.314,-1.101 -5.456,-1.125c0,0 5.355,0.12 5.163,-3.006c-0.192,-3.126 -3.582,-6.388 -0.454,-11.589l-3.258,1.809c0,0 -0.88,-3.566 3.628,-11.154c4.507,-7.589 15.53,-17.249 15.53,-17.249l-4.32,-0.112c0,0 -0.238,-1.809 2.301,-5.46" style="fill:none;stroke:#b01d0b;stroke-width:1.2px;"/><path d="M38.18,89.279c0,0 9.207,9.037 14.461,10.255c0,0 -4.626,15.192 -1.151,20.634c0,0 -5.034,0.235 -8.971,2.71c-3.936,2.475 -5.373,4.654 -5.373,4.654l-12.301,-0.026c0,0 -4.803,-4.73 -4.441,-11.876c0.362,-7.146 9.274,-21.11 17.776,-26.351Z" style="fill:#103751;"/><path d="M70.053,21.055c20.003,15.183 36.6,8.86 17.495,-0.286" style="fill:#6baee4;"/><path d="M51.008,15.728c0,0 3.545,4.567 19.371,5.637c0,0 14.163,2.2 17.149,-0.801c3.798,-17.493 -31.181,-27.163 -36.52,-4.836Z" style="fill:#113751;"/><path d="M35.522,81.226c0,0 3.521,-4.656 7.669,-7.637c4.608,-3.312 10.965,-6.804 15.204,-3.16c2.517,2.164 2.172,10.549 4.001,14.609c2.104,4.67 7.433,12.94 8.461,17.485l4.264,-7.54c0,0 -0.394,-0.119 -1.007,0.211c0.389,-2.068 3.258,-3.064 3.258,-3.064c0.442,0.152 0.005,1.761 0.819,1.563c0.608,-0.147 0.92,-1.514 2.257,-1.411c-0.501,1.136 0.188,1.789 1.028,2.146c0.551,0.234 2.198,0.602 2.456,-1.375c0.627,0.082 0.693,2.132 1.423,2.155c1.312,0.041 1.608,0.084 3.506,-0.207l-1.14,2.314c0,0 -3.181,4.743 -4.98,7.599c-1.798,2.857 -5.395,9.436 -8.621,11.389c-3.225,1.952 -9.012,0.826 -9.012,0.826l3.526,-0.947c0,0 -2.709,-0.478 -4.224,-1.25c0.03,-0.174 1.921,0.074 2.174,-1.036c0,0 -5.208,-1.519 -9.314,-5.879c-4.106,-4.36 -4.886,-9.898 -11.834,-9.02c0,0 -4.931,-0.268 -6.476,0.934c0,0 -0.846,-4.117 0.997,-4.9c0,0 -5.756,-0.264 -6.749,1.547c0,0 0.511,-4.802 2.949,-5.843c0,0 -2.356,-2.096 -4.321,-0.136c-0.407,0.406 0.882,-3.539 4.985,-7.109c1.454,-1.265 1.395,-3.363 -1.299,-2.264Z" style="fill:#1a4a70;"/><path d="M71.987,2.249c1.476,0.185 2.614,0.819 2.539,1.416c-0.074,0.597 -1.334,0.932 -2.81,0.747c-1.476,-0.184 -2.614,-0.819 -2.539,-1.416c0.074,-0.597 1.333,-0.931 2.81,-0.747Z" style="fill:#6baee4;"/><path d="M59.955,55.727c0,0 -1.015,-1.707 -3.909,-1.609c-1.451,0.049 0.146,2.962 0.146,2.962l3.483,1.585" style="fill:#c3a16e;"/><path d="M51.544,22.495c0,0 -2.316,2.397 -2.95,3.614c-0.633,1.217 -0.022,2.76 1.567,3.121c1.29,0.294 2.804,-0.812 2.762,-2.032c-0.042,-1.22 -1.379,-4.703 -1.379,-4.703" style="fill:#008dff;"/><path d="M50.132,25.432l-0.017,0.048l-0.018,0.052l-0.017,0.052l-0.006,0.017l-0.011,0.033l-0.016,0.049l-0.016,0.048l-0.014,0.048l-0.013,0.047l-0.012,0.046l-0.011,0.046l-0.011,0.044l-0.009,0.044l-0.003,0.014l-0.007,0.029l-0.008,0.041l-0.008,0.041l-0.008,0.041l-0.006,0.039l-0.006,0.039l-0.002,0.02l-0.003,0.018l-0.005,0.037l-0.005,0.036l-0.003,0.036l-0.003,0.035l-0.003,0.034l-0.001,0.034l-0.001,0.018l-0.001,0.015l-0.002,0.032l-0.001,0.031l-0.001,0.031l0,0.059l0.002,0.056l0.001,0.03l0,0.027l0.003,0.041l0,0.012l0.005,0.126l0.001,0.024l0.001,0.01l0,0.014l0.001,0.023l0.002,0.024l0.002,0.023l0,0.003l0.001,0.02l0.001,0.023l0.006,0.067l0.003,0.022l0.004,0.022l0.003,0.022l0.001,0.003l0.002,0.019l0.003,0.022l0.004,0.021l0.004,0.022l0.008,0.042l0.005,0.021l0.006,0.021l0.005,0.019l0,0.001l0.01,0.042l0.006,0.02l0.006,0.021l0.012,0.04l0.007,0.019l0.007,0.02l0.007,0.019l0.003,0.006l0.004,0.013l0.007,0.02l0.014,0.038l0.008,0.018l0.007,0.019l0.016,0.036l0.009,0.018l0.016,0.034l0.018,0.034l0.008,0.016l0.018,0.032l0.027,0.045l0.017,0.026l0.001,0.002l0.017,0.028l0.017,0.027l0.017,0.025l0.016,0.024l0.016,0.022l0.015,0.02l0.015,0.019l0.013,0.017l0.013,0.016l0.011,0.014l0.011,0.012l0.017,0.019l0.011,0.012l0.003,0.003l-0.005,-0.001l-0.015,-0.004l-0.025,-0.008l-0.015,-0.005l-0.018,-0.007l-0.019,-0.007l-0.022,-0.008l-0.023,-0.009l-0.024,-0.01l-0.027,-0.012l-0.027,-0.013l-0.03,-0.014l-0.03,-0.015l-0.032,-0.016l-0.002,-0.002l-0.03,-0.017l-0.032,-0.02l-0.017,-0.011l-0.017,-0.011l-0.017,-0.012l-0.017,-0.011l-0.018,-0.013l-0.017,-0.012l-0.018,-0.013l-0.018,-0.014l-0.018,-0.014l-0.018,-0.014l-0.018,-0.015l-0.018,-0.015l-0.019,-0.016l-0.018,-0.016l-0.018,-0.017l-0.019,-0.017l-0.012,-0.012l-0.006,-0.006l-0.018,-0.018l-0.017,-0.019l-0.018,-0.02l-0.017,-0.02l-0.017,-0.021l-0.018,-0.021l-0.017,-0.021l-0.017,-0.023l-0.016,-0.022l-0.001,-0.002l-0.015,-0.022l-0.016,-0.024l-0.015,-0.025l-0.015,-0.025l-0.015,-0.026l-0.015,-0.026l-0.014,-0.027l-0.014,-0.027l-0.011,-0.024l-0.002,-0.004l-0.012,-0.029l-0.012,-0.03l-0.011,-0.03l-0.011,-0.03l-0.01,-0.031l-0.01,-0.031l-0.009,-0.032l-0.008,-0.029l-0.001,-0.004l-0.007,-0.033l-0.007,-0.034l-0.006,-0.034l-0.003,-0.019l-0.001,-0.015l-0.004,-0.036l-0.003,-0.035l-0.002,-0.036l0,-0.036l0,-0.037l0.002,-0.037l0.001,-0.016l0.002,-0.021l0.004,-0.037l0.005,-0.038l0.006,-0.038l0.001,-0.003l0.007,-0.035l0.01,-0.038l0.01,-0.039l0.01,-0.038l0.012,-0.039l0.012,-0.038l0.014,-0.039l0.006,-0.018l0.009,-0.021l0.016,-0.039l0.017,-0.038l0.019,-0.039l0.019,-0.039l0.02,-0.039l0.021,-0.039l0.01,-0.018l0.012,-0.021l0.024,-0.038l0.025,-0.039l0.026,-0.038l0.026,-0.039l0.028,-0.039l0.019,-0.025l0.01,-0.013l0.031,-0.038l0.031,-0.038l0.033,-0.038l0.033,-0.038l0.035,-0.038l0.036,-0.038l0.036,-0.038l0.038,-0.038l0.025,-0.024l0.014,-0.013l0.04,-0.037l0.042,-0.037l0.039,-0.034l0.004,-0.003l-0.002,0.005Z" style="fill:#fff;"/><path d="M63.951,40.191c1.616,0.025 2.941,1.407 3.792,2.727c0.257,0.404 0.494,0.82 0.712,1.246c0.191,0.373 0.368,0.754 0.516,1.144c0,0 -2.075,-2.185 -2.928,-2.778c-0.589,-0.409 -1.258,-0.76 -1.928,-0.785c-1.282,-0.048 -2.153,1.327 -2.53,2.171c-0.075,0.168 -0.143,0.338 -0.206,0.51c-0.266,0.73 -0.457,1.49 -0.567,2.26c0,0 -0.166,-0.983 -0.173,-1.658c-0.001,-0.142 0,-0.285 0.004,-0.428c0.032,-1.07 0.225,-2.171 0.882,-3.105c0.548,-0.777 1.387,-1.305 2.426,-1.304Z" style="fill:#a3865b;fill-rule:nonzero;"/><path d="M89.284,54.456c1.363,0.025 2.908,1.387 2.021,3.342c-0.436,0.959 -1.236,1.772 -2.105,2.398c0,0 1.786,-2.153 1.668,-3.493c-0.121,-1.38 -2.085,-1.669 -3.694,-1.24c-0.688,0.184 -1.36,0.432 -2.004,0.738c0,0 1.373,-0.974 2.261,-1.336c0.591,-0.242 1.219,-0.414 1.853,-0.409Z" style="fill:#a3865b;fill-rule:nonzero;"/><path d="M70.275,20.287c0.173,0.038 0.195,0.255 0.273,0.44c0,0 0.033,0.17 -0.077,0.231c-0.166,0.091 -0.293,-0.17 -0.387,-0.429c0,0 -0.034,-0.25 0.191,-0.242Zm-0.262,-1.037c0.17,0.062 0.16,0.28 0.21,0.482c0,0 0.012,0.099 -0.035,0.157c-0.083,0.102 -0.264,0.075 -0.315,-0.071c-0.015,-0.06 -0.029,-0.121 -0.043,-0.182c-0.066,-0.293 -0.046,-0.2 -0.04,-0.241c0.015,-0.091 0.062,-0.171 0.223,-0.145Zm-0.194,-1.069c0.124,0.031 0.135,0.081 0.151,0.156c0.01,0.078 0.021,0.157 0.032,0.235c0.038,0.263 -0.017,0.262 -0.058,0.291c-0.101,0.071 -0.249,0.007 -0.281,-0.121c-0.01,-0.065 -0.019,-0.13 -0.028,-0.195c-0.056,-0.418 0.019,-0.376 0.184,-0.366Zm-0.096,-1.073c0.25,0.077 0.171,0.553 0.171,0.553c-0.035,0.181 -0.321,0.203 -0.358,-0.002c-0.022,-0.252 -0.118,-0.585 0.187,-0.551Zm-16.23,-0.454c0.326,0.11 0.058,0.36 -0.053,0.575c0,0 -0.056,0.082 -0.129,0.094c-0.174,0.03 -0.263,-0.136 -0.038,-0.542c0,0 0.074,-0.147 0.22,-0.127Zm16.183,-0.623c0.248,0.088 0.147,0.56 0.147,0.56c-0.043,0.183 -0.328,0.202 -0.358,-0.018c-0.01,-0.252 -0.093,-0.589 0.211,-0.542Zm-15.653,-0.308c0.316,0.062 0.095,0.336 -0.038,0.553c0,0 -0.099,0.138 -0.217,0.106c-0.107,-0.03 -0.16,-0.157 -0.106,-0.267c0.109,-0.179 0.144,-0.394 0.361,-0.392Zm15.641,-0.77c0.242,0.094 0.13,0.564 0.13,0.564c-0.05,0.182 -0.334,0.191 -0.357,-0.029c-0.003,-0.252 -0.075,-0.592 0.227,-0.535Zm-15.04,-0.131c0.311,0.073 0.084,0.337 -0.058,0.547c0,0 -0.067,0.104 -0.158,0.109c-0.132,0.008 -0.234,-0.144 -0.161,-0.28c0.131,-0.195 0.176,-0.386 0.377,-0.376Zm0.634,-0.878c0.307,0.084 0.072,0.338 -0.076,0.542c0,0 -0.088,0.121 -0.197,0.103c-0.123,-0.02 -0.184,-0.169 -0.117,-0.283c0.121,-0.168 0.215,-0.377 0.39,-0.362Zm14.392,-0.077c0.139,0.03 0.15,0.058 0.158,0.184c-0.005,0.191 -0.011,0.391 -0.011,0.391c-0.054,0.18 -0.339,0.182 -0.356,-0.039c0.004,-0.242 -0.083,-0.543 0.209,-0.536Zm-13.727,-0.778c0.406,0.127 -0.142,0.594 -0.142,0.594c-0.152,0.111 -0.38,-0.059 -0.261,-0.246c0.143,-0.183 0.203,-0.372 0.403,-0.348Zm13.769,-0.3c0.253,0.059 0.152,0.237 0.146,0.382l-0.011,0.196c-0.059,0.179 -0.344,0.173 -0.355,-0.048c0.01,-0.251 -0.05,-0.543 0.22,-0.53Zm-13.074,-0.53c0.407,0.144 -0.163,0.588 -0.163,0.588c-0.157,0.107 -0.373,-0.08 -0.252,-0.255c0.136,-0.162 0.249,-0.359 0.415,-0.333Zm13.135,-0.548c0.139,0.034 0.148,0.063 0.152,0.189c-0.011,0.174 -0.026,0.391 -0.026,0.391c-0.063,0.179 -0.347,0.159 -0.355,-0.053c0.004,-0.062 0.007,-0.123 0.011,-0.184l0.016,-0.21c0.048,-0.136 0.107,-0.139 0.202,-0.133Zm-12.443,-0.263c0.14,0.027 0.229,0.152 0.114,0.301c-0.118,0.128 -0.265,0.287 -0.265,0.287c-0.157,0.098 -0.373,-0.089 -0.243,-0.263c0.121,-0.136 0.163,-0.326 0.394,-0.325Zm12.523,-0.814c0.138,0.037 0.147,0.065 0.149,0.191c-0.014,0.178 -0.033,0.391 -0.033,0.391c-0.063,0.174 -0.349,0.15 -0.354,-0.059c0.005,-0.063 0.01,-0.127 0.015,-0.19l0.019,-0.203c0.029,-0.078 0.055,-0.142 0.204,-0.13Zm-11.769,0.035c0.139,0.032 0.223,0.16 0.103,0.305c-0.148,0.149 -0.276,0.277 -0.276,0.277c-0.163,0.094 -0.372,-0.1 -0.233,-0.272c0.127,-0.131 0.175,-0.32 0.406,-0.31Zm0.783,-0.75c0.138,0.038 0.217,0.169 0.091,0.309c-0.132,0.123 -0.286,0.266 -0.286,0.266c-0.168,0.089 -0.362,-0.12 -0.223,-0.28c0.142,-0.136 0.269,-0.307 0.418,-0.295Zm11.082,-0.361c0.248,0.071 0.141,0.243 0.128,0.384l-0.021,0.2c-0.066,0.173 -0.352,0.145 -0.353,-0.064c0.023,-0.247 -0.03,-0.546 0.246,-0.52Zm-10.27,-0.357c0.294,0.093 0.107,0.286 -0.117,0.481c0,0 -0.092,0.113 -0.196,0.111c-0.144,-0.003 -0.228,-0.197 -0.116,-0.315c0.135,-0.119 0.195,-0.306 0.429,-0.277Zm10.379,-0.717c0.262,0.078 0.135,0.272 0.117,0.449c0,0 0.008,0.15 -0.07,0.22c-0.107,0.096 -0.3,0.01 -0.299,-0.153c0.029,-0.281 -0.03,-0.546 0.252,-0.516Zm-9.539,0.032c0.429,0.155 -0.241,0.557 -0.241,0.557c-0.173,0.074 -0.357,-0.144 -0.198,-0.298c0.151,-0.123 0.29,-0.284 0.439,-0.259Zm0.836,-0.657c0.151,0.032 0.208,0.218 0.086,0.325c-0.15,0.108 -0.317,0.229 -0.317,0.229c-0.173,0.066 -0.342,-0.166 -0.187,-0.306c0.141,-0.105 0.258,-0.251 0.418,-0.248Zm8.825,-0.448c0.256,0.08 0.134,0.26 0.116,0.419l-0.023,0.168c-0.072,0.174 -0.355,0.148 -0.351,-0.074c0.03,-0.262 -0.031,-0.547 0.258,-0.513Zm-7.928,-0.164c0.15,0.039 0.198,0.227 0.071,0.328c-0.53,0.348 -0.244,0.254 -0.424,0.228c-0.143,-0.021 -0.201,-0.224 -0.075,-0.327c0.14,-0.095 0.264,-0.24 0.428,-0.229Zm0.924,-0.571c0.148,0.045 0.187,0.236 0.055,0.331c-0.177,0.105 -0.335,0.2 -0.335,0.2c-0.183,0.051 -0.329,-0.194 -0.159,-0.322c0.153,-0.093 0.253,-0.23 0.439,-0.209Zm7.139,-0.336c0.261,0.085 0.128,0.287 0.102,0.488c0,0 -0.005,0.148 -0.097,0.201c-0.115,0.065 -0.274,-0.025 -0.269,-0.179c0.031,-0.241 -0.017,-0.547 0.264,-0.51Zm-6.189,-0.191c0.145,0.052 0.175,0.244 0.039,0.333c-0.181,0.096 -0.344,0.184 -0.344,0.184c-0.184,0.042 -0.327,-0.205 -0.143,-0.329c0.155,-0.085 0.259,-0.218 0.448,-0.188Zm0.942,-0.488c0.157,0.034 0.209,0.252 0.055,0.342c-0.197,0.092 -0.353,0.166 -0.353,0.166c-0.185,0.034 -0.316,-0.22 -0.127,-0.335c0.138,-0.067 0.252,-0.177 0.425,-0.173Zm5.394,-0.391c0.136,0.046 0.143,0.075 0.137,0.2l-0.021,0.149l-0.036,0.24c-0.075,0.169 -0.359,0.135 -0.349,-0.082l0.029,-0.208l0.028,-0.181c0.034,-0.077 0.064,-0.139 0.212,-0.118Zm-4.397,-0.042c0.156,0.041 0.197,0.261 0.039,0.344c-0.164,0.067 -0.361,0.148 -0.361,0.148c-0.189,0.025 -0.298,-0.239 -0.111,-0.34c0.15,-0.065 0.298,-0.162 0.433,-0.152Zm1.018,-0.382c0.154,0.049 0.184,0.271 0.021,0.346c-0.166,0.058 -0.367,0.129 -0.367,0.129c-0.188,0.015 -0.293,-0.25 -0.094,-0.346c0.151,-0.056 0.305,-0.146 0.44,-0.129Zm1.038,-0.329c0.15,0.057 0.168,0.281 0.002,0.346c-0.174,0.051 -0.374,0.111 -0.374,0.111c-0.19,0.005 -0.271,-0.269 -0.075,-0.351c0.209,-0.065 0.414,-0.112 0.414,-0.112c0.011,0.002 0.022,0.004 0.033,0.006Zm2.503,-0.314c0.135,0.047 0.142,0.076 0.134,0.202c-0.029,0.181 -0.063,0.387 -0.063,0.387c-0.078,0.171 -0.36,0.135 -0.348,-0.086c0.04,-0.264 -0.011,-0.549 0.277,-0.503Zm-1.483,0.032c0.17,0.04 0.211,0.288 0.017,0.354c-0.192,0.045 -0.38,0.091 -0.38,0.091c-0.19,-0.006 -0.256,-0.283 -0.056,-0.354c0.134,-0.035 0.193,-0.101 0.419,-0.091Zm1.066,-0.219c0.167,0.048 0.189,0.3 -0.002,0.353c-0.192,0.035 -0.383,0.071 -0.383,0.071c-0.188,-0.015 -0.25,-0.294 -0.037,-0.357c0.135,-0.027 0.197,-0.089 0.422,-0.067Z" style="fill:#2878b6;fill-rule:nonzero;"/><path d="M46.853,117.471c0.028,0.005 0.057,0.008 0.086,0.012c0.199,0.024 0.398,0.033 0.597,0.028c0,0 0.136,0.016 0.174,0.112c0.097,0.238 -0.456,0.268 -0.9,0.206c0,0 -0.276,-0.162 -0.103,-0.315c0.038,-0.033 0.09,-0.046 0.146,-0.043Zm2.457,-0.362c0.184,0.04 0.249,0.265 -0.084,0.399c-0.233,0.091 -0.569,0.191 -0.569,0.191c-0.209,0.039 -0.35,-0.27 0.031,-0.384c0.267,-0.083 0.59,-0.207 0.59,-0.207c0.011,0 0.021,0.001 0.032,0.001Zm-4.1,-0.29c0.11,0.038 0.107,0.059 0.149,0.086c0.199,0.128 0.508,0.277 0.508,0.277c0.189,0.106 0.064,0.43 -0.242,0.284c-0.241,-0.117 -0.56,-0.324 -0.56,-0.324c-0.134,-0.109 -0.061,-0.356 0.145,-0.323Zm5.662,-0.622c0.161,0.052 0.233,0.199 -0.058,0.414c-0.192,0.14 -0.477,0.325 -0.477,0.325c-0.17,0.088 -0.373,-0.166 -0.192,-0.304c0.04,-0.025 0.079,-0.05 0.118,-0.076c0.194,-0.129 0.46,-0.326 0.46,-0.326c0.044,-0.028 0.094,-0.04 0.149,-0.033Zm-6.93,-0.667c0.098,0.02 0.151,0.114 0.208,0.196c0.131,0.185 0.343,0.434 0.343,0.434c0.132,0.177 -0.077,0.468 -0.362,0.132c-0.159,-0.191 -0.36,-0.484 -0.36,-0.484c-0.068,-0.124 -0.03,-0.283 0.171,-0.278Zm-0.722,-1.641c0.118,0.022 0.161,0.152 0.187,0.247c0.064,0.23 0.185,0.55 0.185,0.55c0.073,0.244 -0.244,0.488 -0.484,-0.291c-0.009,-0.027 -0.017,-0.054 -0.025,-0.081c-0.012,-0.041 -0.023,-0.082 -0.034,-0.123c-0.044,-0.164 -0.042,-0.305 0.171,-0.302Zm-0.151,-1.784c0.13,0.037 0.138,0.061 0.146,0.18c-0.004,0.234 -0.008,0.468 0.004,0.702c0,0 -0.031,0.187 -0.169,0.195c-0.246,0.014 -0.202,-0.464 -0.196,-0.865c0,0 -0.001,-0.235 0.215,-0.212Zm0.075,-1.797c0.128,0.041 0.135,0.065 0.139,0.184c-0.017,0.34 -0.037,0.749 -0.037,0.749c-0.054,0.173 -0.345,0.191 -0.356,-0.046c0.018,-0.429 -0.116,-0.938 0.254,-0.887Zm0.103,-1.797c0.127,0.043 0.134,0.067 0.137,0.186c-0.02,0.339 -0.047,0.749 -0.047,0.749c-0.058,0.176 -0.348,0.171 -0.355,-0.051c0.01,-0.169 0.02,-0.338 0.03,-0.507l0.018,-0.244c0.045,-0.137 0.073,-0.154 0.217,-0.133Zm0.117,-1.796c0.127,0.044 0.134,0.067 0.136,0.187c-0.015,0.231 -0.031,0.461 -0.046,0.692c0,0 -0.043,0.204 -0.193,0.194c-0.211,-0.014 -0.156,-0.377 -0.137,-0.657l0.022,-0.284c0.047,-0.137 0.074,-0.154 0.218,-0.132Zm0.125,-1.795c0.127,0.044 0.134,0.068 0.136,0.187l-0.026,0.359l-0.03,0.39c-0.06,0.175 -0.35,0.166 -0.354,-0.056l0.025,-0.359l0.031,-0.39c0.047,-0.137 0.075,-0.154 0.218,-0.131Zm0.133,-1.795c0.127,0.044 0.134,0.068 0.135,0.188c-0.017,0.231 -0.034,0.462 -0.052,0.693c0,0 -0.013,0.13 -0.103,0.173c-0.113,0.055 -0.256,-0.039 -0.257,-0.175c0.008,-0.112 0.016,-0.223 0.024,-0.335l0.034,-0.414c0.048,-0.137 0.076,-0.154 0.219,-0.13Zm7.305,0.256c0.284,0.01 0.678,0.018 0.678,0.018c0.196,0.02 0.238,0.342 -0.005,0.36c-0.079,-0.001 -0.158,-0.003 -0.237,-0.005c-0.203,-0.005 -0.487,-0.015 -0.487,-0.015c-0.206,-0.026 -0.218,-0.368 0.051,-0.358Zm-1.702,-0.098c0.243,0.018 0.591,0.042 0.591,0.042c0.194,0.029 0.22,0.353 -0.023,0.359c-0.102,-0.007 -0.205,-0.014 -0.307,-0.021c-0.185,-0.013 -0.445,-0.036 -0.445,-0.036c-0.199,-0.071 -0.173,-0.373 0.184,-0.344Zm-1.905,-0.199c0.115,0.016 0.229,0.03 0.344,0.044c0.188,0.023 0.398,0.049 0.398,0.049c0.172,0.067 0.152,0.357 -0.071,0.352c-0.124,-0.014 -0.247,-0.028 -0.371,-0.043c-0.143,-0.018 -0.348,-0.045 -0.348,-0.045c-0.188,-0.042 -0.206,-0.369 0.048,-0.357Zm-1.759,-0.302c0.232,0.05 0.465,0.096 0.7,0.138c0,0 0.09,0.027 0.124,0.088c0.067,0.115 -0.03,0.281 -0.188,0.266c-0.079,-0.014 -0.159,-0.029 -0.238,-0.044c-0.109,-0.021 -0.218,-0.042 -0.327,-0.065c-0.553,-0.115 -0.236,-0.404 -0.071,-0.383Zm-1.725,-0.509c0,0 0.384,0.146 0.665,0.234c0,0 0.15,0.054 0.156,0.171c0.013,0.249 -0.483,0.112 -0.888,-0.047c0,0 -0.094,-0.032 -0.129,-0.098c-0.063,-0.117 0.029,-0.281 0.196,-0.26Z" style="fill:#2878b6;fill-rule:nonzero;"/><path d="M50.233,104.745c0.124,0.021 0.133,0.068 0.151,0.12c0.038,0.109 -0.046,0.229 -0.167,0.239c-0.075,0.001 -0.151,0.002 -0.226,0.003c-0.205,0.001 -0.5,-0.002 -0.5,-0.002c-0.173,-0.014 -0.173,-0.09 -0.177,-0.172c-0.012,-0.251 0.415,-0.182 0.867,-0.189c0.026,0 0.026,0 0.052,0.001Zm-2.518,-0.099c0.087,0.009 0.174,0.017 0.262,0.024c0.08,0.007 0.159,0.013 0.239,0.019c0.347,0.025 0.228,0.014 0.255,0.023c0.16,0.053 0.142,0.351 -0.068,0.351c-0.232,-0.015 -0.463,-0.034 -0.694,-0.056c0,0 -0.112,-0.009 -0.161,-0.081c-0.076,-0.114 -0.017,-0.287 0.167,-0.28Zm3.605,0.055c0.144,0.019 0.217,0.2 0.119,0.303c-0.126,0.133 -0.4,-0.034 -0.303,-0.21c0.032,-0.058 0.03,-0.093 0.184,-0.093Zm-5.389,-0.318c0,0 0.362,0.07 0.692,0.123c0,0 0.145,0.027 0.176,0.132c0.034,0.116 -0.071,0.241 -0.201,0.229c-0.074,-0.012 -0.149,-0.024 -0.223,-0.037c-0.202,-0.035 -0.493,-0.091 -0.493,-0.091c-0.121,-0.033 -0.126,-0.08 -0.139,-0.134c-0.028,-0.11 0.06,-0.224 0.188,-0.222Zm-1.723,-0.476c0.244,0.048 0.468,0.162 0.708,0.23c0,0 0.1,0.041 0.124,0.122c0.044,0.146 -0.011,0.288 -0.371,0.181c-0.183,-0.056 -0.366,-0.114 -0.544,-0.184c0,0 -0.259,-0.373 0.083,-0.349Z" style="fill:#2878b6;fill-rule:nonzero;"/><path d="M90.284,28.633c0.215,0.015 0.43,0.025 0.645,0.03c0,0 0.083,-0.002 0.135,0.037c0.121,0.091 0.057,0.309 -0.112,0.324c-0.064,-0.001 -0.128,-0.003 -0.192,-0.005c-0.213,-0.008 -0.501,-0.026 -0.501,-0.026c-0.226,-0.017 -0.25,-0.38 0.025,-0.36Zm2.508,-0.088c0.158,0.058 0.18,0.297 -0.012,0.352c-0.059,0.011 -0.118,0.02 -0.178,0.03c-0.225,0.033 -0.552,0.064 -0.552,0.064c-0.197,-0.004 -0.259,-0.315 -0.03,-0.359c0.065,-0.005 0.129,-0.011 0.194,-0.018c0.241,-0.027 0.54,-0.074 0.54,-0.074c0.013,0.002 0.025,0.004 0.038,0.005Zm-4.307,-0.143c0.085,0.015 0.17,0.03 0.255,0.044c0.083,0.014 0.167,0.028 0.25,0.041c0.714,0.108 0.309,0.391 0.148,0.385c-0.089,-0.012 -0.177,-0.026 -0.266,-0.039c-0.181,-0.029 -0.452,-0.077 -0.452,-0.077c-0.185,-0.055 -0.19,-0.374 0.065,-0.354Zm5.958,-0.501c0.105,0.03 0.103,0.051 0.122,0.082c0.116,0.184 -0.318,0.447 -0.68,0.602c0,0 -0.103,0.043 -0.175,0.008c-0.145,-0.068 -0.132,-0.264 0.116,-0.376c0.167,-0.076 0.327,-0.166 0.473,-0.277c0,0 0.013,-0.047 0.144,-0.039Zm-7.699,0.105c0.088,0.024 0.175,0.047 0.263,0.07c0.093,0.023 0.185,0.047 0.278,0.07c0.611,0.148 0.249,0.409 0.069,0.386c-0.098,-0.023 -0.197,-0.047 -0.295,-0.072c-0.163,-0.041 -0.356,-0.092 -0.356,-0.092c-0.146,-0.039 -0.303,-0.417 0.041,-0.362Zm-1.744,-0.534c0,0 0.352,0.117 0.712,0.231c0,0 0.106,0.047 0.125,0.134c0.028,0.124 -0.095,0.238 -0.23,0.211c-0.099,-0.032 -0.199,-0.064 -0.298,-0.097c-0.162,-0.053 -0.39,-0.131 -0.39,-0.131c-0.163,-0.076 -0.143,-0.352 0.081,-0.348Zm-1.676,-0.633c0,0 0.362,0.143 0.703,0.274c0,0 0.079,0.039 0.104,0.104c0.049,0.128 -0.077,0.274 -0.233,0.232c-0.225,-0.086 -0.449,-0.175 -0.672,-0.265c0,0 -0.259,-0.37 0.098,-0.345Zm11.42,-0.524c0.138,0.04 0.086,0 0.194,0.212c0.101,0.197 0.164,0.415 0.166,0.638c0,0 -0.004,0.069 -0.036,0.113c-0.108,0.145 -0.302,0.037 -0.331,-0.216c-0.026,-0.205 -0.178,-0.475 -0.178,-0.475c-0.089,-0.185 -0.017,-0.287 0.185,-0.272Zm-13.062,-0.191c0,0 0.357,0.16 0.681,0.303c0,0 0.085,0.046 0.106,0.112c0.044,0.13 -0.089,0.27 -0.243,0.221c-0.095,-0.041 -0.19,-0.084 -0.285,-0.127c-0.155,-0.069 -0.342,-0.109 -0.434,-0.215c-0.097,-0.11 -0.017,-0.316 0.175,-0.294Zm-1.612,-0.785c0,0 0.354,0.176 0.677,0.335c0,0 0.075,0.046 0.093,0.112c0.038,0.132 -0.102,0.266 -0.252,0.211c-0.216,-0.106 -0.431,-0.214 -0.645,-0.323c0,0 -0.237,-0.393 0.127,-0.335Zm13.508,-0.396c0.107,0.028 0.361,0.312 0.586,0.563c0,0 0.054,0.058 0.06,0.12c0.015,0.151 -0.188,0.252 -0.313,0.137c-0.048,-0.053 -0.096,-0.106 -0.144,-0.158c-0.137,-0.148 -0.343,-0.357 -0.343,-0.357c-0.069,-0.084 -0.055,-0.1 -0.053,-0.136c0.004,-0.091 0.038,-0.178 0.207,-0.169Zm-15.09,-0.448c0,0 0.331,0.179 0.631,0.341c0,0 0.08,0.036 0.11,0.098c0.066,0.136 -0.09,0.301 -0.247,0.236c-0.131,-0.07 -0.261,-0.14 -0.391,-0.211c-0.1,-0.056 -0.244,-0.135 -0.244,-0.135c-0.146,-0.103 -0.087,-0.374 0.141,-0.329Zm13.755,-0.737c0.138,0.051 0.132,0.085 0.185,0.126c0.103,0.083 0.206,0.166 0.307,0.251c0.163,0.136 0.298,0.399 0.045,0.433c-0.101,0.013 -0.188,-0.082 -0.276,-0.157c-0.173,-0.143 -0.416,-0.336 -0.416,-0.336c-0.119,-0.116 -0.093,-0.352 0.155,-0.317Zm-15.345,-0.17c0.036,0.009 0.036,0.009 0.07,0.024c0.122,0.073 0.244,0.146 0.367,0.218c0.112,0.066 0.252,0.147 0.252,0.147c0.162,0.119 0.039,0.41 -0.181,0.311c-0.119,-0.069 -0.238,-0.138 -0.356,-0.208c-0.126,-0.075 -0.266,-0.159 -0.266,-0.159c-0.087,-0.065 -0.078,-0.084 -0.085,-0.12c-0.021,-0.108 0.061,-0.215 0.199,-0.213Zm13.867,-0.88c0.17,0.046 0.176,0.098 0.255,0.15c0.173,0.116 0.416,0.285 0.416,0.285c0.151,0.132 0.003,0.411 -0.207,0.294c-0.06,-0.042 -0.119,-0.083 -0.179,-0.124c-0.17,-0.116 -0.413,-0.277 -0.413,-0.277c-0.238,-0.195 0.01,-0.335 0.128,-0.328Zm-15.39,-0.069c0.199,0.052 0.221,0.124 0.325,0.19c0.146,0.093 0.35,0.221 0.35,0.221c0.159,0.124 0.026,0.411 -0.19,0.305c-0.118,-0.073 -0.236,-0.148 -0.353,-0.222c-0.122,-0.078 -0.287,-0.188 -0.287,-0.188c-0.068,-0.084 -0.054,-0.101 -0.053,-0.137c0.005,-0.09 0.038,-0.177 0.208,-0.169Zm13.876,-0.859c0,0 0.306,0.168 0.631,0.36c0,0 0.077,0.04 0.104,0.102c0.059,0.139 -0.104,0.297 -0.258,0.226c-0.081,-0.049 -0.162,-0.097 -0.244,-0.144c-0.156,-0.091 -0.375,-0.215 -0.375,-0.215c-0.147,-0.104 -0.078,-0.373 0.142,-0.329Zm-15.36,-0.145c0.179,0.057 0.189,0.116 0.276,0.177c0.176,0.122 0.38,0.261 0.38,0.261c0.155,0.131 -0.001,0.405 -0.202,0.298c-0.107,-0.073 -0.214,-0.146 -0.321,-0.22c-0.114,-0.08 -0.275,-0.194 -0.275,-0.194c-0.124,-0.11 -0.103,-0.346 0.142,-0.322Zm13.752,-0.688c0,0 0.337,0.157 0.633,0.307c0,0 0.169,0.086 0.148,0.216c-0.018,0.112 -0.143,0.177 -0.26,0.132c-0.084,-0.043 -0.169,-0.086 -0.253,-0.128c-0.558,-0.277 -0.431,-0.217 -0.447,-0.235c-0.092,-0.108 -0.056,-0.323 0.179,-0.292Z" style="fill:#2878b6;fill-rule:nonzero;"/><path d="M80.452,71.292c-0.698,-0.676 -1.251,-4.053 1.108,-4.594c1.378,-0.316 1.142,2.143 0.306,3.036c-0.619,0.66 -1.282,0.717 -1.282,0.717" style="fill-opacity:0.266667;"/><path d="M71.621,71.292c0.699,-0.676 0.74,-4.608 -1.618,-5.148c-1.379,-0.317 -0.632,2.697 0.204,3.59c0.619,0.66 1.282,0.717 1.282,0.717" style="fill-opacity:0.266667;"/><path d="M67.244,67.994c0,0 7.69,4.559 16.299,1.067c7.043,-2.856 -6.666,4.332 -6.666,4.332l-9.69,-3.81" style="fill:#c3a16e;"/><path d="M78.936,82.063c-0.124,0.179 -0.257,0.351 -0.4,0.515c-0.113,0.129 -0.231,0.253 -0.355,0.373c-0.163,0.159 -0.338,0.306 -0.521,0.441c-1.227,0.902 -0.694,0.747 -2.19,0.836c-1.313,0.078 -2.634,-0.507 -3.556,-1.359l-0.042,-0.18c0,0 0.548,0.124 0.88,0.222c1.951,0.571 4.223,0.056 5.208,-0.493c0.337,-0.188 0.799,-0.526 0.799,-0.526c0,0 0.174,-0.171 0.177,0.171Z" style="fill:#a58e6c;fill-opacity:0.556863;fill-rule:nonzero;"/></g></svg>