<?xml version="1.0" encoding="UTF-8" standalone="no"?><!DOCTYPE svg PUBLIC "-//W3C//DTD SVG 1.1//EN" "http://www.w3.org/Graphics/SVG/1.1/DTD/svg11.dtd"><svg width="100%" height="100%" viewBox="0 0 136 127" version="1.1" xmlns="http://www.w3.org/2000/svg" xmlns:xlink="http://www.w3.org/1999/xlink" xml:space="preserve" xmlns:serif="http://www.serif.com/" style="fill-rule:evenodd;clip-rule:evenodd;stroke-linejoin:round;stroke-miterlimit:1.41421;"><rect id="Artboard1" x="0" y="0" width="135.33" height="126.26" style="fill:none;"/><path d="M101.661,92.131l-3.645,-4.514l-13.399,10.818l3.645,4.515l13.399,-10.819Z" style="fill:#bbb;"/><path d="M111.669,77.607l-3.815,3.038l2.84,3.568l3.815,-3.038c0.829,2.278 0.348,4.739 -1.397,6.128c-1.59,1.266 -3.814,1.309 -5.738,0.312l-5.235,4.167l-3.58,-4.497l5.235,-4.167c-0.541,-2.099 -0.001,-4.256 1.59,-5.523c1.745,-1.389 4.252,-1.306 6.285,0.012Z" style="fill:#bbb;"/><path d="M43.291,78.806c0,0 28.986,7.219 46.817,7.406c-0.731,0.594 -1.093,3.676 -2.306,6.837c-6.584,1.075 -46.647,4.895 -51.067,-0.681c-4.83,-6.095 2.964,-13.842 2.964,-13.842" style="fill:#1a4a70;"/><path d="M93.295,85.081c0,0 -8.053,1.338 -4.331,9.94" style="fill:#dbb986;"/><path d="M93.493,84.78c0.295,0.218 0.11,0.595 -0.345,0.7c-2.24,0.527 -4.343,2.073 -4.732,4.479c-0.27,1.662 0.209,3.352 0.857,4.87c0,0 0.001,0.857 -0.519,0.485c-0.472,-0.339 -0.62,-1.342 -0.85,-2.266c-0.547,-2.193 -0.227,-4.754 1.473,-6.382c1.037,-0.993 2.389,-1.647 3.798,-1.929c0,0 0.14,-0.06 0.318,0.043Z" style="fill:#a58f6c;fill-rule:nonzero;"/><path d="M91.254,92.436c-1.924,-0.895 -4.199,1.206 -2.368,4.346c1.831,3.141 3.385,4.119 4.515,4.54c1.466,0.546 3.183,-0.447 3.22,-2.021c0.044,-1.898 -1.573,-5.099 -5.367,-6.865Z" style="fill:#dbb986;"/><path d="M91.738,92.005c2.725,1.377 5.2,3.83 5.385,6.938c0.051,0.851 -0.261,1.722 -0.927,2.293c-1.03,0.883 -2.568,0.833 -3.82,0.108c-1.883,-1.089 -3.228,-3.015 -4.075,-4.827c-0.759,-1.623 -0.683,-4.066 1.477,-4.566c0.536,-0.124 1.11,-0.051 1.614,0.186l0.117,-0.244c0.076,0.037 0.153,0.074 0.229,0.112Zm-0.642,0.721c-0.895,-0.387 -2.048,0.031 -2.396,1.087c-0.407,1.231 0.353,2.552 1.077,3.638c1.003,1.504 2.198,3.007 3.926,3.481c1.139,0.313 2.534,-0.475 2.396,-1.961c-0.241,-2.61 -2.571,-4.84 -5.099,-5.991c0,0 0.161,-0.225 0.096,-0.254Z" style="fill:#a58f6c;fill-rule:nonzero;"/><path d="M98.597,87.148c0,0 1.76,0.769 3.27,2.778c1.511,2.008 1.941,3.63 0.263,5.005c-1.678,1.375 -3.54,-0.778 -5.206,-2.624c-1.665,-1.845 -1.92,-2.936 -1.92,-2.936" style="fill:#dbb986;"/><path d="M98.939,86.904c1.951,0.99 3.602,2.688 4.424,4.673c0.641,1.548 -0.021,3.666 -1.772,4.197c-1.454,0.442 -2.884,-0.818 -3.854,-1.792c-1.327,-1.333 -2.845,-2.696 -3.314,-4.462l0.065,-0.454l0.368,-0.277l0.452,0.066l0.276,0.364c0.654,2.538 3.584,4.88 4.623,5.422c0.572,0.298 1.264,0.279 1.875,-0.311c1.193,-1.151 0.293,-3.207 -0.988,-4.709c-0.749,-0.877 -1.63,-1.661 -2.649,-2.139l-0.19,-0.207l0.009,-0.281l0.203,-0.188l0.28,0.006c0.049,0.022 0.059,0.025 0.192,0.092Z" style="fill:#a58f6c;fill-rule:nonzero;"/><path d="M92.174,89.293c-1.483,0.526 -3.122,1.827 -0.119,5.323c3.002,3.497 5.434,5.441 6.835,4.153c0.449,-0.413 1.731,-1.388 1.362,-2.499c-1.089,-3.278 -5.994,-7.716 -8.078,-6.977Z" style="fill:#dbb986;"/><path d="M94.531,89.138c2.861,1.449 5.25,4.128 6.19,6.883c0.43,1.257 -0.8,2.532 -1.555,3.175c-0.972,0.808 -2.524,0.274 -3.474,-0.384c-2.361,-1.634 -4.586,-3.881 -5.504,-6.304c-0.387,-1.021 -0.215,-2.324 0.735,-3.026c0.327,-0.242 0.698,-0.416 1.08,-0.553l-0.024,-0.203c0.829,-0.28 1.772,0.023 2.552,0.412Zm-0.52,1.05c-0.53,-0.256 -1.127,-0.509 -1.642,-0.327l-0.065,-0.189c-0.613,0.225 -1.245,0.568 -1.448,1.204c-0.361,1.134 0.522,2.194 1.154,2.991c1.46,1.838 2.972,3.815 5.171,4.66c0.054,0.02 0.109,0.04 0.164,0.057c0.739,0.231 1.579,-0.298 2.198,-1.218c0.479,-0.71 -0.116,-1.853 -0.792,-2.842c-1.201,-1.76 -2.777,-3.334 -4.639,-4.286c-0.033,-0.017 -0.067,-0.034 -0.101,-0.05Z" style="fill:#a58f6c;fill-rule:nonzero;"/><path d="M91.614,87.047c0.477,-1.094 1.706,-4.814 4.855,-3.58c2.456,0.963 2.347,2.915 1.45,5.197c-0.9,2.289 -1.839,3.816 -4.442,2.966c-2.602,-0.851 -2.591,-2.917 -1.863,-4.583Z" style="fill:#dbb986;"/><path d="M97.089,83.284c0.845,0.434 1.545,1.154 1.756,2.114c0.4,1.82 -0.552,3.776 -1.293,5.066c-0.49,0.851 -1.226,1.627 -2.28,1.789c-0.659,0.101 -1.331,-0.026 -1.958,-0.235c-1.13,-0.376 -2.198,-1.187 -2.467,-2.443c-0.409,-1.914 0.781,-3.916 1.545,-5.029c0.935,-1.362 2.67,-2.185 4.529,-1.343c0.056,0.026 0.113,0.054 0.168,0.081Zm-0.472,0.704c-0.68,-0.318 -1.46,-0.481 -2.163,-0.189c-1.807,0.75 -2.528,3.205 -2.768,4.383c-0.141,0.696 -0.086,1.465 0.366,2.054c0.511,0.666 1.359,0.996 2.141,1.149c0.604,0.118 1.262,0.083 1.794,-0.319c0.731,-0.553 1.103,-1.466 1.458,-2.347c0.648,-1.605 1.224,-3.678 -0.735,-4.685c-0.046,-0.023 -0.046,-0.023 -0.093,-0.046Z" style="fill:#a58f6c;fill-rule:nonzero;"/><path d="M87.92,97.916c1.442,0.714 2.033,2.464 1.319,3.906c-0.714,1.442 -2.465,2.033 -3.906,1.319c-1.442,-0.714 -2.033,-2.465 -1.319,-3.906c0.714,-1.442 2.464,-2.033 3.906,-1.319Z" style="fill:#bbb;"/></svg>