<?xml version="1.0" encoding="utf-8"?>
<svg version="1.1" id="Layer_1" xmlns="http://www.w3.org/2000/svg" xmlns:xlink="http://www.w3.org/1999/xlink" x="0px" y="0px"
	 viewBox="0 0 64 64" style="enable-background:new 0 0 64 64;" xml:space="preserve">
<path fill="#b4b4b4" d="M43.7,0.1c-11.2,0-20.2,9.1-20.2,20.2c0,3.7,1,7.3,2.8,10.3l-7.6,7.6c0.1-1-0.2-2-0.9-2.8l-3.9-3.9c-1.3-1.3-3.4-1.3-4.7,0
	L1,39.6c-1.3,1.3-1.3,3.4,0,4.7l3.9,3.9c0.8,0.8,1.8,1,2.8,0.9l-2,2c-1.3,1.3-1.3,3.4,0,4.7l4,4c1.3,1.3,3.4,1.3,4.7,0l21-21
	c2.5,1.1,5.3,1.8,8.2,1.8c11.2,0,20.2-9.1,20.2-20.2S54.8,0.1,43.7,0.1z M43.7,29.8c-5.3,0-9.5-4.3-9.5-9.5s4.3-9.5,9.5-9.5
	c5.3,0,9.5,4.3,9.5,9.5S48.9,29.8,43.7,29.8z"/>
</svg>