<?xml version="1.0" encoding="utf-8"?>
<!-- Generator: Adobe Illustrator 19.1.0, SVG Export Plug-In . SVG Version: 6.00 Build 0)  -->
<svg version="1.1" id="Layer_2" xmlns="http://www.w3.org/2000/svg" xmlns:xlink="http://www.w3.org/1999/xlink" x="0px" y="0px"
	 viewBox="0 0 1284.3 802.3" style="enable-background:new 0 0 1284.3 802.3;" xml:space="preserve">
<style type="text/css">
	.st0{opacity:0.17;fill:#ABABAB;}
	.st1{opacity:0.17;fill:#8C8C8C;}
	.st2{opacity:0.17;fill:#DEDEDE;}
	.st3{opacity:0.17;fill:#999999;}
	.st4{opacity:0.17;fill:#A3A3A3;}
	.st5{opacity:0.17;fill:#828282;}
	.st6{opacity:0.17;fill:#C7C7C7;}
	.st7{opacity:0.1;fill:#B0B0B0;}
	.st8{opacity:0.17;fill:#949494;}
	.st9{opacity:0.17;fill:#7D7D7D;}
	.st10{opacity:0.1;fill:#878787;}
	.st11{opacity:0.17;fill:#737373;}
	.st12{opacity:0.17;fill:#BFBFBF;}
	.st13{opacity:0.17;fill:#969696;}
	.st14{opacity:0.17;fill:#919191;}
	.st15{opacity:0.17;fill:#8A8A8A;}
	.st16{opacity:0.17;fill:#757575;}
	.st17{opacity:0.17;fill:#8F8F8F;}
	.st18{opacity:0.17;fill:#ADADAD;}
	.st19{opacity:0.1;fill:#9C9C9C;}
	.st20{opacity:0.17;fill:#878787;}
	.st21{opacity:0.1;fill:#7A7A7A;}
	.st22{opacity:0.17;fill:#A6A6A6;}
	.st23{opacity:0.1;fill:#8A8A8A;}
	.st24{opacity:0.17;fill:#787878;}
	.st25{opacity:0.17;fill:#7A7A7A;}
	.st26{opacity:0.1;fill:#7D7D7D;}
	.st27{opacity:0.17;fill:#707070;}
	.st28{opacity:0.17;fill:#B5B5B5;}
	.st29{opacity:0.17;fill:#BDBDBD;}
	.st30{opacity:0.17;fill:#9E9E9E;}
	.st31{opacity:0.17;fill:#858585;}
	.st32{opacity:0.17;fill:#D1D1D1;}
	.st33{opacity:0.17;fill:#A1A1A1;}
	.st34{opacity:0.17;fill:#696969;}
	.st35{opacity:0.17;fill:#6E6E6E;}
	.st36{opacity:0.17;fill:#636363;}
</style>
<path class="st0" d="M946.3,802.3c-22.7-39.3-47.7-82.4-73.9-127.7l-120.9,37.8l-62.1,89l1.6,0.9H946.3z"/>
<polygon class="st1" points="751.5,712.4 607.9,757.2 689.4,801.4 "/>
<path class="st2" d="M828.4,0l-68.5,212.2C819.7,127.3,871.5,53.9,909.5,0H828.4z"/>
<path class="st2" d="M1065.8,261.6l98.1-2.5c-1-49.4-2-95.1-2.8-134.1L1065.8,261.6z"/>
<path class="st2" d="M1093.6,802.3c6.8-44.5,14.3-94,22.3-145.9c-17.8-12.9-36.5-26.4-55.9-40.4l-187.6,58.6l73.9,127.7H1093.6z"/>
<path class="st0" d="M909.5,0c-38,53.9-89.7,127.3-149.5,212.2l-0.5,1.5c46.4,17.2,93.7,34.7,141,52.2l165.4-4.2l95.3-136.6
	c-1.3-63.9-2.3-109.9-2.6-125H909.5z"/>
<path class="st3" d="M946.3,802.3l-73.9-127.7l0,0C898.6,719.9,923.6,763,946.3,802.3L946.3,802.3z"/>
<path class="st4" d="M1209.8,55.2l-48.7,69.8c0.8,39,1.8,84.7,2.8,134.1l13.4-0.3C1190.4,175,1201.9,102.8,1209.8,55.2"/>
<path class="st5" d="M1158.5,0c0.3,15,1.3,61.1,2.6,125l48.7-69.8c4.5-27.3,7.9-46.5,9.7-55.2H1158.5z"/>
<path class="st6" d="M1175.2,802.3c-0.6-30.5-1.4-65.9-2.2-104.6c-17.4-12.6-36.1-26.1-55.8-40.4l-22.7,145H1175.2z"/>
<path class="st7" d="M1094.5,802.3l22.7-145c-0.4-0.3-0.9-0.6-1.3-1c-8,52-15.5,101.4-22.3,145.9H1094.5z"/>
<path class="st6" d="M1284.3,802.3v-24.1c-14.4-10.4-33.2-24.1-55.8-40.4c-6.8,23.2-13.1,44.9-18.8,64.5H1284.3z"/>
<polygon class="st8" points="1248.3,0 1212,52.1 1179.6,258.7 1284.3,256 1284.3,0 "/>
<polygon class="st9" points="1220.1,0 1212,52.1 1248.3,0 "/>
<path class="st10" d="M1212,52.1l-2.2,3.1c-7.9,47.6-19.4,119.8-32.5,203.6l2.3-0.1L1212,52.1z"/>
<path class="st11" d="M1219.5,0c-1.8,8.7-5.2,27.9-9.7,55.2l2.2-3.1l8.2-52.1H1219.5z"/>
<path class="st8" d="M1209.6,802.3c5.7-19.6,12-41.2,18.8-64.5c-16.6-12-35.2-25.5-55.4-40.1c0.8,38.7,1.5,74.1,2.2,104.6H1209.6z"
	/>
<path class="st12" d="M1163.9,259.1l-98.1,2.5l-36.2,51.9c44.7,16.5,88.8,32.7,131.6,48.4c1.4-9.2,2.8-18.3,4.3-27.4
	C1164.9,308.7,1164.4,283.4,1163.9,259.1"/>
<path class="st13" d="M1065.8,261.6l-165.4,4.2c43.2,16,86.5,31.9,129.2,47.7L1065.8,261.6z"/>
<path class="st14" d="M0,416.8v11l3.2,1.7C2.1,425.2,1,421,0,416.8z"/>
<path class="st3" d="M829.5,600.5l-78,111.9l120.9-37.8C858.4,650.4,844.1,625.7,829.5,600.5"/>
<path class="st9" d="M704.4,384.3l-116.8,362l20.3,11l143.5-44.9l78-111.9C788.3,529.2,745.4,455.1,704.4,384.3"/>
<path class="st12" d="M899.5,500.1l-70,100.4l42.9,74.1L1060,616C1010.3,580,956,540.8,899.5,500.1"/>
<path class="st13" d="M710.9,364.1l-6.5,20.1l125.1,216.2l70-100.4C838.1,455.8,774.1,409.7,710.9,364.1"/>
<path class="st15" d="M829.5,600.5L829.5,600.5c14.6,25.2,28.9,49.9,42.9,74.1l0,0L829.5,600.5z"/>
<path class="st16" d="M704.4,384.2L704.4,384.2c41,70.9,83.9,145,125.1,216.2l0,0L704.4,384.2z"/>
<path class="st17" d="M1177.3,258.8l-13.4,0.3c0.5,24.3,1,49.6,1.6,75.4C1169.5,308.5,1173.5,283.1,1177.3,258.8"/>
<path class="st18" d="M1163.3,362.7c0.9,0.3,1.8,0.7,2.8,1c-0.1-5.5-0.2-10.9-0.3-16.4L1163.3,362.7z"/>
<path class="st19" d="M1165.5,334.5c-1.4,9.1-2.8,18.2-4.3,27.4c0.7,0.3,1.4,0.5,2.1,0.8l2.4-15.4
	C1165.6,343,1165.5,338.8,1165.5,334.5"/>
<path class="st20" d="M1284.3,256l-104.7,2.7l-13.9,88.6c0.1,5.5,0.2,10.9,0.3,16.4c40.8,15,80.4,29.5,118.2,43.4V256z"/>
<path class="st21" d="M1179.6,258.7l-2.3,0.1c-3.8,24.4-7.8,49.7-11.8,75.7c0.1,4.3,0.2,8.5,0.3,12.8L1179.6,258.7z"/>
<path class="st20" d="M759.4,213.7l-18.2,56.3l159.1-4.1C853.1,248.4,805.8,230.9,759.4,213.7"/>
<path class="st22" d="M1125.2,595.6L1060,616c19.4,14,38,27.5,55.9,40.4C1118.9,636.4,1122,616.1,1125.2,595.6"/>
<path class="st3" d="M1126.9,595l-9.8,62.3c19.7,14.3,38.4,27.8,55.8,40.4c-0.8-36.4-1.6-75.6-2.4-116.3L1126.9,595z"/>
<path class="st3" d="M1284.3,546.4c-20,68.9-39.3,134.8-55.8,191.3c22.6,16.4,41.5,30,55.8,40.4V546.4z"/>
<path class="st23" d="M1126.9,595l-1.8,0.6c-3.1,20.5-6.3,40.8-9.3,60.8c0.4,0.3,0.9,0.6,1.3,1L1126.9,595z"/>
<path class="st24" d="M1284.3,545.9l-113.7,35.5c0.8,40.7,1.7,79.9,2.4,116.3c20.3,14.7,38.9,28.1,55.4,40.1
	c16.5-56.5,35.8-122.5,55.8-191.3V545.9z"/>
<path class="st8" d="M1029.6,313.5L899.5,500.1C956,540.8,1010.3,580,1060,616l65.2-20.4c11.9-77.3,24.3-157.7,36-233.7
	C1118.4,346.2,1074.4,330,1029.6,313.5"/>
<path class="st25" d="M900.4,265.8l-159.1,4.1l-30.4,94.2c63.2,45.5,127.2,91.6,188.6,136l130.1-186.6
	C986.9,297.8,943.6,281.8,900.4,265.8"/>
<path class="st20" d="M1163.3,362.7L1126.9,595l43.7-13.6c-1.5-70.7-3-145.8-4.5-217.7C1165.1,363.4,1164.2,363,1163.3,362.7"/>
<path class="st26" d="M1161.2,361.9c-11.8,75.9-24.2,156.4-36,233.7l1.8-0.6l36.4-232.4C1162.6,362.4,1161.9,362.2,1161.2,361.9"/>
<path class="st27" d="M1284.3,407.1c-37.8-13.9-77.4-28.4-118.2-43.4c1.5,71.9,3,147,4.5,217.7l113.7-35.5V407.1z"/>
<path class="st5" d="M0,802.3h96C61.1,661.7,28.1,529.4,3.2,429.5L0,427.8V802.3z"/>
<polygon class="st9" points="688.8,802.3 689.4,801.4 607.9,757.2 581.4,765.6 569.5,802.3 "/>
<polygon class="st11" points="587.6,746.2 581.4,765.6 607.9,757.2 "/>
<path class="st28" d="M199,0c28.4,13,116.7,47.3,236.6,92.6c11.7-41.4,20.8-73,26.5-92.6H199z"/>
<path class="st28" d="M9.6,0c17,62.7,44.9,164.5,78.4,286.6l295-7.6c12.9-45.8,24.7-87.8,35.2-125C309,76.2,226.2,17.7,198.9,0H9.6z
	"/>
<path class="st29" d="M485.1,111.3l-9.2-76.4l-19.8,65.5C465.6,104,475.3,107.6,485.1,111.3z"/>
<path class="st29" d="M435.9,166.8L402,278.6l102.9-2.6l-7.9-65.4C476,195.5,455.6,180.9,435.9,166.8z"/>
<path class="st8" d="M382.9,279.1l19.1-0.5l33.9-111.8c-6-4.3-11.9-8.5-17.8-12.7C407.6,191.3,395.8,233.3,382.9,279.1z"/>
<path class="st8" d="M462.1,0c-5.7,19.6-14.8,51.3-26.5,92.6c6.7,2.6,13.6,5.1,20.5,7.8l19.8-65.5L471.7,0H462.1z"/>
<path class="st30" d="M0,288.9l87.9-2.3C54.5,164.5,26.6,62.7,9.6,0H0V288.9z"/>
<path class="st4" d="M504.9,276l80.5-2.1c-30.3-21.8-59.9-43-88.4-63.4L504.9,276z"/>
<path class="st4" d="M485,5.1l-9,29.8l9.2,76.4c25.1,9.5,51.3,19.3,78.3,29.4C525.2,74.6,496.8,25.5,485,5.1z"/>
<path class="st31" d="M471.7,0l4.2,34.9l9-29.8c-1.1-2-2.1-3.6-2.9-5.1H471.7z"/>
<path class="st32" d="M486.5,0L485,5.1l78.5,135.6c61.6,23,127.6,47.6,195.5,72.8c0.3-0.4,0.6-0.9,0.9-1.3L828.4,0H486.5z"/>
<path class="st4" d="M759.9,212.2c-0.3,0.4-0.6,0.9-0.9,1.3c0.2,0.1,0.3,0.1,0.5,0.2L759.9,212.2z"/>
<polygon class="st33" points="482,0 485,5.1 486.5,0 "/>
<path class="st8" d="M485,5.1L485,5.1c11.8,20.4,40.2,69.6,78.5,135.6l0,0L485,5.1z"/>
<path class="st30" d="M382.9,279.1l-295,7.6c18.8,68.6,39.4,143.6,60.8,221.8l147.5,79.9C327.8,475.8,357.4,370,382.9,279.1"/>
<path class="st4" d="M504.9,276L402,278.6l-95.6,315.3l133.7,72.5c31.8-45.3,63.8-90.7,95.4-135.6L504.9,276z"/>
<path class="st20" d="M535.6,530.8c-31.6,44.9-63.5,90.3-95.4,135.6l119.5,64.8L535.6,530.8z"/>
<path class="st31" d="M402,278.6l-19.1,0.5c-25.5,90.9-55.2,196.7-86.6,309.3l10.2,5.5L402,278.6z"/>
<path class="st1" d="M87.9,286.6L0,288.9v127.9c1,4.2,2.1,8.4,3.2,12.7l145.6,78.9C127.3,430.3,106.7,355.3,87.9,286.6z"/>
<path class="st14" d="M585.4,273.9l-80.5,2.1l30.7,254.8c47-66.7,93.1-132.2,136.8-194.3C643,315.3,613.9,294.4,585.4,273.9"/>
<path class="st25" d="M672.4,336.4c-43.7,62.1-89.8,127.6-136.8,194.3l24.1,200.3l27.9,15.1l116.8-362
	c-8.3-14.3-16.5-28.5-24.6-42.5C677.3,340,674.9,338.2,672.4,336.4"/>
<path class="st17" d="M679.8,341.8l24.6,42.5l6.5-20.1C700.5,356.7,690.1,349.2,679.8,341.8"/>
<path class="st27" d="M679.8,341.7c8.1,14,16.3,28.2,24.6,42.5l0,0L679.8,341.7L679.8,341.7z"/>
<path class="st1" d="M198.9,0C226.2,17.7,309,76.2,418.1,154.1c6.3-22.3,12.1-42.9,17.4-61.5C315.7,47.3,227.4,13,199,0H198.9z"/>
<path class="st14" d="M456.1,100.4l-20.1,66.4c19.7,14.1,40.1,28.7,61.1,43.7l-11.9-99.2C475.3,107.6,465.6,104,456.1,100.4"/>
<path class="st24" d="M435.5,92.6c-5.3,18.6-11.1,39.2-17.4,61.5c5.9,4.2,11.8,8.4,17.8,12.7l20.1-66.4
	C449.1,97.7,442.3,95.2,435.5,92.6"/>
<path class="st5" d="M485.1,111.3l11.9,99.2c28.5,20.4,58.1,41.6,88.4,63.4l54.3-1.4c-27.9-48.2-53.8-93-76.3-131.8
	C536.4,130.6,510.2,120.8,485.1,111.3"/>
<path class="st30" d="M563.5,140.7l76.3,131.8l79.1-2c13.7-19.5,27.1-38.5,40.2-57C691.1,188.3,625,163.7,563.5,140.7"/>
<path class="st5" d="M759,213.5c-13,18.5-26.4,37.5-40.2,57l22.5-0.6l18.2-56.3C759.3,213.6,759.2,213.6,759,213.5"/>
<path class="st24" d="M563.4,140.7c22.5,38.9,48.4,83.6,76.3,131.8h0L563.4,140.7L563.4,140.7z"/>
<path class="st24" d="M639.7,272.5l-54.3,1.4c28.5,20.4,57.6,41.4,87,62.5c0.8-1.1,1.6-2.3,2.4-3.4
	C662.8,312.4,651.1,292.2,639.7,272.5"/>
<path class="st34" d="M674.8,333.1c-0.8,1.1-1.6,2.3-2.4,3.4c2.5,1.8,4.9,3.5,7.4,5.3C678.1,338.8,676.4,335.9,674.8,333.1"/>
<path class="st1" d="M718.8,270.5l-79.1,2l35,60.5C689.8,311.7,704.5,290.9,718.8,270.5"/>
<path class="st16" d="M741.3,269.9l-22.5,0.6c-14.4,20.4-29.1,41.2-44.1,62.6l5,8.7c10.3,7.4,20.7,14.9,31.1,22.4L741.3,269.9z"/>
<path class="st35" d="M639.7,272.5L639.7,272.5c11.4,19.7,23.1,39.9,35,60.5l0,0L639.7,272.5z"/>
<path class="st36" d="M674.8,333L674.8,333c1.7,2.9,3.3,5.8,5,8.7l0,0L674.8,333z"/>
<polygon class="st20" points="568.2,802.3 564.5,770.8 463.9,802.3 "/>
<polygon class="st24" points="569.5,802.3 581.4,765.6 564.5,770.8 568.2,802.3 "/>
<path class="st1" d="M236.5,802.3c20.3-72.6,40.4-144.5,59.8-213.9l-147.5-79.9c26.2,95.3,53.6,195.3,80.7,293.9H236.5z"/>
<path class="st14" d="M344.6,802.3C376,757.6,408,712,440.2,666.3l-133.7-72.5l-63.2,208.4H344.6z"/>
<path class="st25" d="M463.9,802.3l100.6-31.4l-4.8-39.7l-119.5-64.8C408,712,376,757.6,344.6,802.3H463.9z"/>
<path class="st24" d="M243.3,802.3l63.2-208.4l-10.2-5.5c-19.4,69.4-39.5,141.3-59.8,213.9H243.3z"/>
<path class="st9" d="M229.4,802.3c-27.1-98.6-54.5-198.5-80.7-293.9L3.2,429.5C28.1,529.4,61.1,661.7,96,802.3H229.4z"/>
<polygon class="st27" points="559.7,731.1 564.5,770.8 581.4,765.6 587.6,746.2 "/>
</svg>
