<?xml version="1.0" encoding="utf-8"?>
<!-- Generator: Adobe Illustrator 19.1.0, SVG Export Plug-In . SVG Version: 6.00 Build 0)  -->
<svg version="1.1" id="Layer_1" xmlns="http://www.w3.org/2000/svg" xmlns:xlink="http://www.w3.org/1999/xlink" x="0px" y="0px"
	 viewBox="0 0 161 132" style="enable-background:new 0 0 161 132;" xml:space="preserve">
<style type="text/css">
	.st0{fill:#E2E2E2;}
	.st1{fill:#009CDE;}
	.st2{fill:#FFFFFF;}
</style>
<g>
	<g>
		<path class="st0" d="M155.8,0H6.3C3.1,0,0,1.8,0,4.9v102.7c0,3.1,3.1,5.3,6.3,5.3H65v-2.8c0-1.2,1.3-2.2,2.5-2.2h11.3
			c1.2,0,3.1,0,4.3,0h3c1.2,0,3.1,0,4.3,0h11.3c1.2,0,0.3,1,0.3,2.2v2.8h53.8c3.1,0,5.2-2.2,5.2-5.3V4.9C161,1.8,158.9,0,155.8,0z
			 M84.4,107.1c-2.3,0-4.1-1.9-4.1-4.1c0-2.3,1.9-4.1,4.1-4.1c2.3,0,4.1,1.9,4.1,4.1C88.6,105.3,86.7,107.1,84.4,107.1z M155,86.3
			c0,3.2-2.6,5.7-5.7,5.7H12.7C9.6,92,7,89.4,7,86.3V12.7C7,9.6,9.6,7,12.7,7h136.6c3.2,0,5.7,2.6,5.7,5.7V86.3z"/>
	</g>
	<g>
		<path class="st0" d="M65,114.5c0,1.2-0.6,2.8-1.4,3.5l-8.1,7.2c-0.9,0.8-1.5,2.4-1.5,3.5v1.6c0,1.2,0.9,1.6,2.1,1.6h22.7
			c1.2,0,3.1,0,4.3,0h3.1c1.2,0,3.1,0,4.3,0h22.7c1.2,0,1.9-0.4,1.9-1.6v-1.6c0-1.2-0.6-2.8-1.5-3.5l-9-7.2
			c-0.9-0.8-2.5-2.4-2.5-3.5V113H65V114.5z"/>
	</g>
</g>
<g>
	<rect x="62.8" y="107.4" class="st0" width="48.6" height="5.9"/>
</g>
<g>
	<path class="st1" d="M125.2,75.9h-86c-6.6,0-12-5.4-12-12V37.5c0-6.6,5.4-12,12-12h86c6.6,0,12,5.4,12,12v26.4
		C137.2,70.5,131.8,75.9,125.2,75.9z"/>
</g>
<g>
	<path class="st2" d="M71.1,47.5v-8.6h1v7.7h3.8v0.9H71.1z"/>
	<path class="st2" d="M82.8,44.3c0,1-0.3,1.9-0.8,2.5c-0.5,0.6-1.3,0.9-2.2,0.9c-0.6,0-1.1-0.1-1.5-0.4c-0.4-0.3-0.8-0.7-1-1.2
		c-0.2-0.5-0.4-1.1-0.4-1.8c0-1,0.3-1.9,0.8-2.5c0.5-0.6,1.3-0.9,2.2-0.9c0.9,0,1.6,0.3,2.1,0.9C82.5,42.5,82.8,43.3,82.8,44.3z
		 M77.9,44.3c0,0.8,0.2,1.4,0.5,1.9c0.3,0.4,0.8,0.6,1.5,0.6c0.6,0,1.1-0.2,1.5-0.6c0.3-0.4,0.5-1.1,0.5-1.9c0-0.8-0.2-1.4-0.5-1.9
		c-0.3-0.4-0.8-0.6-1.5-0.6c-0.6,0-1.1,0.2-1.4,0.6C78,42.8,77.9,43.5,77.9,44.3z"/>
	<path class="st2" d="M89.7,41.1v0.6l-1.2,0.1c0.1,0.1,0.2,0.3,0.3,0.5c0.1,0.2,0.1,0.5,0.1,0.7c0,0.6-0.2,1.1-0.6,1.5
		c-0.4,0.4-1,0.6-1.8,0.6c-0.2,0-0.4,0-0.5,0c-0.4,0.2-0.6,0.5-0.6,0.8c0,0.2,0.1,0.3,0.2,0.4c0.1,0.1,0.4,0.1,0.7,0.1h1.1
		c0.7,0,1.2,0.1,1.6,0.4c0.4,0.3,0.6,0.7,0.6,1.3c0,0.7-0.3,1.3-0.9,1.6c-0.6,0.4-1.4,0.6-2.5,0.6c-0.8,0-1.5-0.2-1.9-0.5
		c-0.5-0.3-0.7-0.8-0.7-1.3c0-0.4,0.1-0.7,0.4-1c0.3-0.3,0.6-0.5,1.1-0.6c-0.2-0.1-0.3-0.2-0.4-0.3c-0.1-0.2-0.2-0.3-0.2-0.5
		c0-0.2,0.1-0.4,0.2-0.6c0.1-0.2,0.3-0.3,0.6-0.5c-0.3-0.1-0.6-0.4-0.8-0.7c-0.2-0.3-0.3-0.7-0.3-1.1c0-0.7,0.2-1.2,0.6-1.6
		c0.4-0.4,1-0.6,1.8-0.6c0.3,0,0.6,0,0.9,0.1H89.7z M84.6,48.6c0,0.3,0.1,0.6,0.4,0.8c0.3,0.2,0.7,0.3,1.3,0.3
		c0.8,0,1.4-0.1,1.8-0.4c0.4-0.2,0.6-0.6,0.6-1c0-0.3-0.1-0.6-0.3-0.7c-0.2-0.1-0.6-0.2-1.2-0.2H86c-0.4,0-0.8,0.1-1,0.3
		C84.7,47.9,84.6,48.2,84.6,48.6z M85.1,43.1c0,0.5,0.1,0.8,0.4,1c0.3,0.2,0.6,0.3,1.1,0.3c1,0,1.4-0.5,1.4-1.4c0-1-0.5-1.5-1.4-1.5
		c-0.5,0-0.8,0.1-1.1,0.4C85.3,42.3,85.1,42.6,85.1,43.1z"/>
	<path class="st2" d="M91,39.3c0-0.2,0.1-0.4,0.2-0.5c0.1-0.1,0.2-0.2,0.4-0.2c0.2,0,0.3,0.1,0.4,0.2c0.1,0.1,0.2,0.3,0.2,0.5
		c0,0.2-0.1,0.4-0.2,0.5c-0.1,0.1-0.2,0.2-0.4,0.2c-0.2,0-0.3-0.1-0.4-0.2C91,39.7,91,39.5,91,39.3z M92,47.5h-1v-6.4h1V47.5z"/>
	<path class="st2" d="M98.5,47.5v-4.2c0-0.5-0.1-0.9-0.4-1.2c-0.2-0.3-0.6-0.4-1.1-0.4c-0.7,0-1.2,0.2-1.5,0.5
		c-0.3,0.4-0.5,1-0.5,1.8v3.4h-1v-6.4h0.8l0.2,0.9h0c0.2-0.3,0.5-0.6,0.8-0.7c0.4-0.2,0.8-0.3,1.2-0.3c0.8,0,1.4,0.2,1.8,0.6
		c0.4,0.4,0.6,1,0.6,1.8v4.2H98.5z"/>
	<path class="st2" d="M76,59.7c0,0.8-0.3,1.3-0.8,1.8c-0.5,0.4-1.3,0.6-2.2,0.6c-1,0-1.8-0.1-2.3-0.4v-1c0.4,0.1,0.7,0.3,1.2,0.4
		c0.4,0.1,0.8,0.1,1.2,0.1c0.7,0,1.2-0.1,1.5-0.4c0.3-0.3,0.5-0.6,0.5-1.1c0-0.3-0.1-0.5-0.2-0.7c-0.1-0.2-0.3-0.4-0.6-0.5
		c-0.3-0.2-0.7-0.3-1.3-0.5c-0.8-0.3-1.4-0.6-1.7-1c-0.3-0.4-0.5-0.9-0.5-1.5c0-0.7,0.2-1.2,0.7-1.6c0.5-0.4,1.2-0.6,2-0.6
		c0.9,0,1.6,0.2,2.4,0.5l-0.3,0.9c-0.7-0.3-1.4-0.4-2.1-0.4c-0.5,0-0.9,0.1-1.2,0.3c-0.3,0.2-0.4,0.5-0.4,0.9c0,0.3,0.1,0.5,0.2,0.7
		c0.1,0.2,0.3,0.4,0.6,0.5s0.7,0.3,1.2,0.5c0.9,0.3,1.5,0.7,1.9,1C75.8,58.6,76,59.1,76,59.7z"/>
	<path class="st2" d="M78.5,55.5v4.2c0,0.5,0.1,0.9,0.4,1.2c0.2,0.3,0.6,0.4,1.1,0.4c0.7,0,1.2-0.2,1.5-0.6c0.3-0.4,0.5-1,0.5-1.8
		v-3.4h1v6.4h-0.8l-0.1-0.9h-0.1c-0.2,0.3-0.5,0.6-0.8,0.7c-0.4,0.2-0.8,0.3-1.2,0.3c-0.8,0-1.4-0.2-1.8-0.6c-0.4-0.4-0.6-1-0.6-1.8
		v-4.2H78.5z"/>
	<path class="st2" d="M87.5,62.1c-0.9,0-1.7-0.3-2.2-0.9c-0.5-0.6-0.8-1.4-0.8-2.4c0-1.1,0.3-1.9,0.8-2.5c0.5-0.6,1.3-0.9,2.2-0.9
		c0.3,0,0.6,0,0.9,0.1c0.3,0.1,0.6,0.1,0.7,0.2l-0.3,0.8c-0.2-0.1-0.5-0.2-0.7-0.2c-0.3-0.1-0.5-0.1-0.7-0.1c-1.3,0-2,0.8-2,2.5
		c0,0.8,0.2,1.4,0.5,1.8c0.3,0.4,0.8,0.6,1.4,0.6c0.5,0,1.1-0.1,1.7-0.3v0.9C88.7,61.9,88.2,62.1,87.5,62.1z"/>
	<path class="st2" d="M93.3,62.1c-0.9,0-1.7-0.3-2.2-0.9c-0.5-0.6-0.8-1.4-0.8-2.4c0-1.1,0.3-1.9,0.8-2.5c0.5-0.6,1.3-0.9,2.2-0.9
		c0.3,0,0.6,0,0.9,0.1c0.3,0.1,0.6,0.1,0.7,0.2l-0.3,0.8c-0.2-0.1-0.5-0.2-0.7-0.2c-0.3-0.1-0.5-0.1-0.7-0.1c-1.3,0-2,0.8-2,2.5
		c0,0.8,0.2,1.4,0.5,1.8c0.3,0.4,0.8,0.6,1.4,0.6c0.5,0,1.1-0.1,1.7-0.3v0.9C94.4,61.9,93.9,62.1,93.3,62.1z"/>
	<path class="st2" d="M99.1,62.1c-1,0-1.7-0.3-2.3-0.9c-0.6-0.6-0.8-1.4-0.8-2.4c0-1,0.3-1.9,0.8-2.5c0.5-0.6,1.2-0.9,2.1-0.9
		c0.8,0,1.4,0.3,1.9,0.8c0.5,0.5,0.7,1.2,0.7,2.1v0.6h-4.4c0,0.8,0.2,1.3,0.6,1.7c0.4,0.4,0.9,0.6,1.5,0.6c0.7,0,1.4-0.1,2.1-0.4
		v0.9c-0.3,0.1-0.7,0.3-1,0.3C99.9,62,99.6,62.1,99.1,62.1z M98.9,56.2c-0.5,0-0.9,0.2-1.2,0.5c-0.3,0.3-0.5,0.8-0.5,1.4h3.4
		c0-0.6-0.1-1.1-0.4-1.4C99.8,56.4,99.4,56.2,98.9,56.2z"/>
	<path class="st2" d="M107.3,60.2c0,0.6-0.2,1.1-0.7,1.4c-0.4,0.3-1.1,0.5-1.9,0.5c-0.9,0-1.5-0.1-2-0.4v-0.9c0.3,0.2,0.6,0.3,1,0.4
		c0.4,0.1,0.7,0.1,1,0.1c0.5,0,0.9-0.1,1.2-0.2c0.3-0.2,0.4-0.4,0.4-0.7c0-0.3-0.1-0.5-0.3-0.6c-0.2-0.2-0.6-0.4-1.3-0.6
		c-0.6-0.2-1-0.4-1.3-0.6c-0.3-0.2-0.4-0.4-0.6-0.6c-0.1-0.2-0.2-0.5-0.2-0.8c0-0.5,0.2-0.9,0.6-1.2c0.4-0.3,1-0.5,1.8-0.5
		c0.7,0,1.4,0.1,2,0.4l-0.3,0.8c-0.6-0.3-1.2-0.4-1.8-0.4c-0.5,0-0.8,0.1-1,0.2c-0.2,0.1-0.4,0.3-0.4,0.6c0,0.2,0,0.3,0.1,0.4
		c0.1,0.1,0.2,0.2,0.4,0.3c0.2,0.1,0.6,0.3,1.1,0.5c0.8,0.3,1.3,0.6,1.5,0.8C107.2,59.4,107.3,59.8,107.3,60.2z"/>
	<path class="st2" d="M113,60.2c0,0.6-0.2,1.1-0.7,1.4c-0.4,0.3-1.1,0.5-1.9,0.5c-0.9,0-1.5-0.1-2-0.4v-0.9c0.3,0.2,0.6,0.3,1,0.4
		c0.4,0.1,0.7,0.1,1,0.1c0.5,0,0.9-0.1,1.2-0.2c0.3-0.2,0.4-0.4,0.4-0.7c0-0.3-0.1-0.5-0.3-0.6c-0.2-0.2-0.6-0.4-1.3-0.6
		c-0.6-0.2-1-0.4-1.3-0.6c-0.3-0.2-0.4-0.4-0.6-0.6c-0.1-0.2-0.2-0.5-0.2-0.8c0-0.5,0.2-0.9,0.6-1.2c0.4-0.3,1-0.5,1.8-0.5
		c0.7,0,1.4,0.1,2,0.4l-0.3,0.8c-0.6-0.3-1.2-0.4-1.8-0.4c-0.5,0-0.8,0.1-1,0.2c-0.2,0.1-0.4,0.3-0.4,0.6c0,0.2,0,0.3,0.1,0.4
		c0.1,0.1,0.2,0.2,0.4,0.3c0.2,0.1,0.6,0.3,1.1,0.5c0.8,0.3,1.3,0.6,1.5,0.8C112.9,59.4,113,59.8,113,60.2z"/>
	<path class="st2" d="M117.5,56.3h-1.6v5.7h-1v-5.7h-1.2v-0.4l1.2-0.4v-0.4c0-1.6,0.7-2.4,2.1-2.4c0.3,0,0.7,0.1,1.2,0.2l-0.3,0.8
		c-0.4-0.1-0.7-0.2-1-0.2c-0.4,0-0.6,0.1-0.8,0.4c-0.2,0.2-0.3,0.6-0.3,1.2v0.4h1.6V56.3z"/>
	<path class="st2" d="M119.6,55.5v4.2c0,0.5,0.1,0.9,0.4,1.2c0.2,0.3,0.6,0.4,1.1,0.4c0.7,0,1.2-0.2,1.5-0.6c0.3-0.4,0.5-1,0.5-1.8
		v-3.4h1v6.4h-0.8l-0.1-0.9H123c-0.2,0.3-0.5,0.6-0.8,0.7s-0.8,0.3-1.2,0.3c-0.8,0-1.4-0.2-1.8-0.6c-0.4-0.4-0.6-1-0.6-1.8v-4.2
		H119.6z"/>
	<path class="st2" d="M127.1,61.9h-1v-9.1h1V61.9z"/>
	<path class="st2" d="M129,61.3c0-0.5,0.2-0.8,0.7-0.8c0.2,0,0.4,0.1,0.5,0.2c0.1,0.1,0.2,0.3,0.2,0.6c0,0.3-0.1,0.4-0.2,0.6
		c-0.1,0.1-0.3,0.2-0.5,0.2c-0.2,0-0.4-0.1-0.5-0.2C129.1,61.8,129,61.6,129,61.3z M130,59.6h-0.6l-0.3-6.2h1.2L130,59.6z"/>
</g>
<g>
	<polygon class="st2" points="33.6,55.2 40.3,61.9 41.3,59.2 35.3,53.1 	"/>
</g>
<g>
	<polygon class="st2" points="50.5,43.1 38.4,60 40.3,61.9 52.4,45 	"/>
</g>
<g>
	<rect x="61" y="33.5" class="st2" width="1" height="34.4"/>
</g>
</svg>
