<?xml version="1.0" encoding="utf-8"?>
<!-- Generator: Adobe Illustrator 19.1.0, SVG Export Plug-In . SVG Version: 6.00 Build 0)  -->
<svg version="1.1" id="Layer_1" xmlns="http://www.w3.org/2000/svg" xmlns:xlink="http://www.w3.org/1999/xlink" x="0px" y="0px"
	 viewBox="0 0 160 132.5" style="enable-background:new 0 0 160 132.5;" xml:space="preserve">
<style type="text/css">
	.st0{fill:#E2E2E2;}
	.st1{fill:#FFFFFF;}
	.st2{fill:#009CDE;}
	.st3{fill:#BCBCBC;}
</style>
<g>
	<g>
		<path class="st0" d="M155.3,0H5.7C2.6,0,0,1.8,0,4.9v102.7c0,3.1,2.6,5.4,5.7,5.4H64v-2.8c0-1.2,1.8-2.2,2.9-2.2h11.3
			c1.2,0,3.1,0,4.3,0h3c1.2,0,3.1,0,4.3,0h11.3c1.2,0,1.8,1,1.8,2.2v2.8h52.3c3.1,0,4.7-2.2,4.7-5.4V4.9C160,1.8,158.4,0,155.3,0z
			 M83.9,107.1c-2.3,0-4.1-1.9-4.1-4.1c0-2.3,1.9-4.1,4.1-4.1c2.3,0,4.1,1.9,4.1,4.1C88,105.3,86.2,107.1,83.9,107.1z M154,86.3
			c0,3.2-2.6,5.7-5.7,5.7H11.7C8.6,92,6,89.4,6,86.3V12.7C6,9.6,8.6,7,11.7,7h136.6c3.2,0,5.7,2.6,5.7,5.7V86.3z"/>
	</g>
	<g>
		<path class="st0" d="M64,114.5c0,1.2-0.3,2.8-1.2,3.5l-8.2,7.2c-0.9,0.8-1.6,2.4-1.6,3.5v1.6c0,1.2,1.4,1.6,2.6,1.6h22.7
			c1.2,0,3.1,0,4.3,0h3.1c1.2,0,3.1,0,4.3,0h22.7c1.2,0,2.5-0.4,2.5-1.6v-1.6c0-1.2-0.9-2.8-1.8-3.5l-8.4-7.2
			c-0.9-0.8-1.8-2.4-1.8-3.5V113H64V114.5z"/>
	</g>
</g>
<g>
	<path class="st1" d="M65.7,114.1c0,2.1-1.7,3.8-3.8,3.8H24.4c-2.1,0-3.8-1.7-3.8-3.8V43.7c0-2.1,1.7-3.8,3.8-3.8h37.5
		c2.1,0,3.8,1.7,3.8,3.8V114.1z"/>
</g>
<g>
	<path class="st2" d="M41.8,63.6c0,7.3,0,14.5,0,21.8c0,0.6,0,0.6-0.6,0.6c-1.9,0-3.7,0-5.6,0c-0.4,0-0.4,0-0.4-0.4
		c0-7.3,0-14.7,0-22C37.4,63.6,39.6,63.6,41.8,63.6z"/>
</g>
<g>
	<path class="st2" d="M44.1,96.5c0-2.6,0-5.3,0-7.9c0-4.7,0-9.3,0-14c0-0.5,0-0.5,0.5-0.5c1.9,0,3.8,0,5.7,0c0.4,0,0.4,0,0.4,0.4
		c0,7.3,0,14.6,0,21.9c0,0,0,0.1,0,0.1C48.5,96.5,46.3,96.5,44.1,96.5z"/>
</g>
<g>
	<path class="st2" d="M26.5,69.3c2,0,4.1,0,6.1,0c0.4,0,0.4,0,0.4,0.4c0,7.2,0,14.4,0,21.6c0,0.4,0,0.4-0.4,0.4c-2,0-4.1,0-6.1,0
		C26.5,84.2,26.5,76.7,26.5,69.3z"/>
</g>
<g>
	<path class="st2" d="M52.9,78.2c0-3.6,0-7.1,0-10.7c0-0.5,0-0.5,0.5-0.5c1.3,0,2.6,0,3.9,0c0.6,0,1.3,0,1.9,0
		c0.2,0,0.3,0.1,0.3,0.3c0,0.1,0,0.1,0,0.2c0,7.1,0,14.3,0,21.4c0,0.5,0,0.5-0.5,0.5c-1.9,0.1-3.7,0-5.6,0c-0.5,0-0.5,0-0.5-0.5
		C52.9,85.4,52.9,81.8,52.9,78.2z"/>
</g>
<g>
	<path class="st2" d="M108,24.8c0,11.3,0,22.6,0,34c0,0.9,0,0.9-0.9,0.9c-2.9,0-5.8,0-8.7,0c-0.6,0-0.6,0-0.6-0.6
		c0-11.4,0-22.9,0-34.3C101.1,24.8,104.6,24.8,108,24.8z"/>
</g>
<g>
	<path class="st2" d="M111.6,76c0-4.1,0-8.2,0-12.3c0-7.3,0-14.5,0-21.8c0-0.8,0-0.8,0.8-0.8c3,0,5.9,0,8.9,0c0.6,0,0.6,0,0.6,0.6
		c0,11.4,0,22.7,0,34.1c0,0.1,0,0.1,0,0.2C118.4,76,115,76,111.6,76z"/>
</g>
<g>
	<path class="st2" d="M84.1,33.5c3.2,0,6.3,0,9.5,0c0.6,0,0.7,0,0.7,0.7c0,11.2,0,22.4,0,33.7c0,0.6,0,0.7-0.7,0.7
		c-3.2,0-6.3,0-9.5,0C84.1,56.9,84.1,45.2,84.1,33.5z"/>
</g>
<g>
	<path class="st2" d="M125.2,47.5c0-5.6,0-11.1,0-16.7c0-0.8,0-0.8,0.8-0.8c2,0,4,0,6,0c1,0,2,0.1,3,0.1c0.3,0,0.4,0.1,0.4,0.4
		c0,0.1,0,0.2,0,0.3c0,11.1,0,22.2,0,33.3c0,0.7,0,0.7-0.7,0.7c-2.9,0.1-5.8,0.1-8.7,0.1c-0.7,0-0.7,0-0.7-0.7
		C125.2,58.7,125.2,53.1,125.2,47.5z"/>
</g>
<g>
	<rect x="66.7" y="107.1" class="st0" width="53" height="6.2"/>
</g>
<g>
	<path class="st3" d="M63.4,37.4l-40.3-0.1c-2.6,0-4.6,2.1-4.6,4.7l-0.2,85.6c0,2.6,2.1,4.8,4.6,4.8l40.3,0.1c2.6,0,4.6-2.1,4.6-4.7
		L68,42.2C68,39.6,66,37.4,63.4,37.4z M42.1,128.4c-1.9,0-3.5-1.6-3.5-3.5s1.6-3.5,3.5-3.5c1.9,0,3.5,1.6,3.5,3.5
		S44,128.4,42.1,128.4z M65.5,113.8c0,2.3-1.9,4.1-4.1,4.1l-36.8-0.1c-2.3,0-4.1-1.9-4.1-4.1l0.2-69.6c0-2.3,1.9-4.1,4.1-4.1
		l36.8,0.1c2.3,0,4.1,1.9,4.1,4.1L65.5,113.8z"/>
</g>
</svg>
